<svg width="24" height="24" viewBox="0 0 24 24" fill="none" xmlns="http://www.w3.org/2000/svg">
<path d="M12.3943 2.07569C12.5033 2.02107 12.6245 1.99526 12.7463 2.00072C12.8681 2.00618 12.9865 2.04272 13.0901 2.10688C13.1938 2.17104 13.2794 2.26067 13.3386 2.36724C13.3978 2.47381 13.4288 2.59376 13.4286 2.71569V5.75426L19.0443 7.43998C19.4855 7.57234 19.8724 7.84338 20.1474 8.21289C20.4225 8.58241 20.5712 9.03074 20.5714 9.49141V20.5714H21.2857C21.4752 20.5714 21.6568 20.6467 21.7908 20.7806C21.9247 20.9146 22 21.0963 22 21.2857C22 21.4751 21.9247 21.6568 21.7908 21.7908C21.6568 21.9247 21.4752 22 21.2857 22H2.71429C2.52485 22 2.34316 21.9247 2.20921 21.7908C2.07525 21.6568 2 21.4751 2 21.2857C2 21.0963 2.07525 20.9146 2.20921 20.7806C2.34316 20.6467 2.52485 20.5714 2.71429 20.5714H3.42857V7.88426C3.42857 7.13998 3.81429 6.45426 4.43714 6.06569L4.61286 5.96712L12.3943 2.07569ZM12 3.87141L5.25143 7.24283C5.13228 7.30254 5.03221 7.39438 4.96253 7.50799C4.89285 7.62159 4.85635 7.75242 4.85714 7.88569V20.5714H12V3.86998V3.87141ZM13.4286 7.24283V20.5714H19.1429V9.48998C19.1429 9.3364 19.0935 9.1869 19.0019 9.06363C18.9103 8.94037 18.7814 8.84992 18.6343 8.80569L13.4286 7.24426V7.24283ZM9.85714 15.5714C10.0466 15.5714 10.2283 15.6467 10.3622 15.7806C10.4962 15.9146 10.5714 16.0963 10.5714 16.2857C10.5714 16.4751 10.4962 16.6568 10.3622 16.7908C10.2283 16.9247 10.0466 17 9.85714 17H7C6.81056 17 6.62888 16.9247 6.49492 16.7908C6.36097 16.6568 6.28571 16.4751 6.28571 16.2857C6.28571 16.0963 6.36097 15.9146 6.49492 15.7806C6.62888 15.6467 6.81056 15.5714 7 15.5714H9.85714ZM17 15.5714C17.1894 15.5714 17.3711 15.6467 17.5051 15.7806C17.639 15.9146 17.7143 16.0963 17.7143 16.2857C17.7143 16.4751 17.639 16.6568 17.5051 16.7908C17.3711 16.9247 17.1894 17 17 17H15.5714C15.382 17 15.2003 16.9247 15.0664 16.7908C14.9324 16.6568 14.8571 16.4751 14.8571 16.2857C14.8571 16.0963 14.9324 15.9146 15.0664 15.7806C15.2003 15.6467 15.382 15.5714 15.5714 15.5714H17ZM9.85714 12.7143C10.0466 12.7143 10.2283 12.7895 10.3622 12.9235C10.4962 13.0574 10.5714 13.2391 10.5714 13.4285C10.5714 13.618 10.4962 13.7997 10.3622 13.9336C10.2283 14.0676 10.0466 14.1428 9.85714 14.1428H7C6.81056 14.1428 6.62888 14.0676 6.49492 13.9336C6.36097 13.7997 6.28571 13.618 6.28571 13.4285C6.28571 13.2391 6.36097 13.0574 6.49492 12.9235C6.62888 12.7895 6.81056 12.7143 7 12.7143H9.85714ZM17 12.7143C17.1894 12.7143 17.3711 12.7895 17.5051 12.9235C17.639 13.0574 17.7143 13.2391 17.7143 13.4285C17.7143 13.618 17.639 13.7997 17.5051 13.9336C17.3711 14.0676 17.1894 14.1428 17 14.1428H15.5714C15.382 14.1428 15.2003 14.0676 15.0664 13.9336C14.9324 13.7997 14.8571 13.618 14.8571 13.4285C14.8571 13.2391 14.9324 13.0574 15.0664 12.9235C15.2003 12.7895 15.382 12.7143 15.5714 12.7143H17ZM9.85714 9.85712C10.0466 9.85712 10.2283 9.93237 10.3622 10.0663C10.4962 10.2003 10.5714 10.382 10.5714 10.5714C10.5714 10.7608 10.4962 10.9425 10.3622 11.0765C10.2283 11.2104 10.0466 11.2857 9.85714 11.2857H7C6.81056 11.2857 6.62888 11.2104 6.49492 11.0765C6.36097 10.9425 6.28571 10.7608 6.28571 10.5714C6.28571 10.382 6.36097 10.2003 6.49492 10.0663C6.62888 9.93237 6.81056 9.85712 7 9.85712H9.85714Z" fill="white"/>
</svg>
