<svg width="944" height="67" viewBox="0 0 944 67" fill="none" xmlns="http://www.w3.org/2000/svg">
<path d="M443.188 9.896V31.28H422.908V9.896H443.188ZM439.396 13.424H426.652V27.776H439.396V13.424ZM438.724 26.888H427.348V23.72H431.044V21.608H427.636V18.776H431.044V17.432H427.396V14.36H438.676V17.432H434.548V18.776H438.436V21.608H434.548V23.72H435.412C435.364 23.464 435.3 23.168 435.22 22.832C435.156 22.496 435.108 22.272 435.076 22.16H437.548C437.58 22.304 437.628 22.544 437.692 22.88C437.772 23.216 437.836 23.496 437.884 23.72H438.724V26.888ZM466.978 12.272V28.304C466.978 28.992 466.906 29.536 466.762 29.936C466.634 30.352 466.426 30.672 466.138 30.896C465.85 31.136 465.482 31.304 465.034 31.4C464.602 31.496 464.074 31.568 463.45 31.616L461.05 31.832L459.922 28.184L461.914 27.992C462.314 27.96 462.634 27.856 462.874 27.68C463.114 27.488 463.234 27.24 463.234 26.936V24.392L461.218 26.648C460.61 25.864 459.922 25.024 459.154 24.128C458.386 23.232 457.642 22.384 456.922 21.584C456.41 22.512 455.786 23.408 455.05 24.272C454.314 25.12 453.442 25.976 452.434 26.84L450.49 24.584V31.616H446.77V12.272H454.882V9.464L458.746 9.56V12.272H466.978ZM450.49 22.976C451.162 22.384 451.746 21.824 452.242 21.296C452.738 20.752 453.154 20.208 453.49 19.664C453.826 19.104 454.09 18.536 454.282 17.96C454.49 17.368 454.642 16.736 454.738 16.064H450.49V22.976ZM458.362 17.72C458.714 18.072 459.098 18.464 459.514 18.896C459.946 19.312 460.378 19.744 460.81 20.192C461.242 20.64 461.666 21.088 462.082 21.536C462.498 21.984 462.882 22.408 463.234 22.808V16.064H458.626C458.594 16.352 458.554 16.632 458.506 16.904C458.474 17.176 458.426 17.448 458.362 17.72ZM490.408 24.056C490.232 23.88 490.016 23.68 489.76 23.456C489.504 23.216 489.224 22.968 488.92 22.712C488.632 22.44 488.32 22.168 487.984 21.896C487.648 21.608 487.312 21.32 486.976 21.032V31.688H483.064V9.44L486.976 9.536V16.04C487.408 16.36 487.88 16.704 488.392 17.072C488.904 17.44 489.4 17.8 489.88 18.152C490.376 18.504 490.824 18.832 491.224 19.136C491.624 19.44 491.936 19.68 492.16 19.856L490.408 24.056ZM477.76 9.752C477.568 10.568 477.352 11.384 477.112 12.2H482.08V16.376C481.824 17.848 481.456 19.256 480.976 20.6C480.496 21.944 479.88 23.256 479.128 24.536C478.392 25.8 477.512 27.04 476.488 28.256C475.48 29.472 474.32 30.68 473.008 31.88L469.816 29.096C470.968 28.088 471.984 27.128 472.864 26.216C473.76 25.304 474.552 24.368 475.24 23.408L472.72 21.728C472.592 21.92 472.464 22.104 472.336 22.28C472.208 22.456 472.08 22.632 471.952 22.808L469.528 19.304C470.008 18.632 470.464 17.904 470.896 17.12C471.328 16.32 471.72 15.496 472.072 14.648C472.44 13.8 472.76 12.944 473.032 12.08C473.304 11.2 473.536 10.328 473.728 9.464L477.76 9.752ZM475.72 16.16C475.4 16.912 475.064 17.632 474.712 18.32C475.096 18.544 475.504 18.792 475.936 19.064C476.384 19.336 476.816 19.608 477.232 19.88C477.696 18.744 478.088 17.504 478.408 16.16H475.72ZM501.261 22.448C501.229 22.64 501.197 22.832 501.165 23.024C501.133 23.2 501.101 23.376 501.069 23.552C501.821 24.144 502.525 24.728 503.181 25.304C503.837 25.88 504.405 26.4 504.885 26.864L502.797 30.272C502.461 29.936 502.013 29.504 501.453 28.976C500.909 28.448 500.309 27.896 499.653 27.32C499.237 28.088 498.725 28.84 498.117 29.576C497.525 30.328 496.829 31.112 496.029 31.928L493.029 29.144C493.685 28.536 494.261 27.96 494.757 27.416C495.269 26.872 495.701 26.336 496.053 25.808C496.421 25.28 496.717 24.744 496.941 24.2C497.181 23.64 497.365 23.056 497.493 22.448H493.653V18.728H498.093V15.704H497.493C497.349 16.072 497.197 16.44 497.037 16.808C496.877 17.176 496.717 17.536 496.557 17.888L493.629 16.568C494.189 15.224 494.653 13.976 495.021 12.824C495.389 11.672 495.709 10.512 495.981 9.344L499.581 9.968C499.549 10.08 499.509 10.224 499.461 10.4C499.413 10.576 499.357 10.76 499.293 10.952C499.245 11.144 499.189 11.336 499.125 11.528C499.077 11.704 499.029 11.856 498.981 11.984H503.997V15.704H501.621V18.728H504.141V22.448H501.261ZM514.365 10.76V30.824H505.005V10.76H514.365ZM510.597 14.552H508.725V27.08H510.597V14.552ZM537.579 20.48V31.4H520.419V24.8C520.115 24.896 519.803 25 519.483 25.112C519.179 25.208 518.867 25.304 518.547 25.4L517.083 21.68C519.467 21.056 521.635 20.36 523.587 19.592C523.123 19.208 522.659 18.832 522.195 18.464C521.747 18.096 521.323 17.76 520.923 17.456C520.699 17.6 520.475 17.744 520.251 17.888C520.027 18.016 519.795 18.144 519.555 18.272L517.419 14.96C518.155 14.576 518.875 14.168 519.579 13.736C520.283 13.288 520.947 12.832 521.571 12.368C522.195 11.888 522.771 11.4 523.299 10.904C523.827 10.408 524.299 9.92 524.715 9.44L529.491 9.656C529.331 9.88 529.171 10.104 529.011 10.328C528.851 10.552 528.683 10.776 528.507 11H537.171V14.84C536.243 15.944 535.211 16.96 534.075 17.888C532.955 18.8 531.699 19.664 530.307 20.48H537.579ZM524.307 15.08C524.867 15.48 525.451 15.912 526.059 16.376C526.683 16.824 527.251 17.248 527.763 17.648C528.659 17.168 529.475 16.672 530.211 16.16C530.947 15.648 531.619 15.128 532.227 14.6H524.907C524.811 14.68 524.715 14.76 524.619 14.84C524.523 14.92 524.419 15 524.307 15.08ZM533.763 24.008H524.235V27.8H533.763V24.008ZM545.504 16.304C545.328 15.968 545.104 15.592 544.832 15.176C544.56 14.744 544.272 14.32 543.968 13.904C543.664 13.472 543.368 13.064 543.08 12.68C542.792 12.296 542.536 11.976 542.312 11.72L545.6 9.416C545.808 9.64 546.048 9.912 546.32 10.232C546.592 10.536 546.872 10.872 547.16 11.24C547.448 11.592 547.728 11.96 548 12.344C548.288 12.728 548.544 13.096 548.768 13.448L545.504 16.304ZM548.72 16.52C549.072 16.136 549.36 15.776 549.584 15.44C549.808 15.104 549.984 14.76 550.112 14.408C550.24 14.056 550.328 13.68 550.376 13.28C550.44 12.864 550.472 12.392 550.472 11.864V10.016H560.504V13.208C560.504 13.928 560.816 14.288 561.44 14.288H562.592L562.04 17.528H559.352C558.472 17.528 557.824 17.392 557.408 17.12C557.008 16.848 556.808 16.28 556.808 15.416V13.352H554.144V13.952C554.144 14.688 553.992 15.432 553.688 16.184C553.4 16.92 552.904 17.648 552.2 18.368L548.72 16.52ZM561.392 31.832C560.352 31.416 559.352 30.968 558.392 30.488C557.432 30.024 556.512 29.512 555.632 28.952C554.048 30.024 552.144 30.992 549.92 31.856L548.168 29.072C547.864 29.296 547.568 29.504 547.28 29.696C546.992 29.904 546.736 30.104 546.512 30.296C546.192 30.552 545.856 30.824 545.504 31.112C545.152 31.416 544.864 31.656 544.64 31.832L542.288 29C542.528 28.76 542.72 28.536 542.864 28.328C543.024 28.104 543.144 27.888 543.224 27.68C543.304 27.456 543.36 27.216 543.392 26.96C543.44 26.704 543.464 26.408 543.464 26.072V20.384H541.208V16.52H547.28V25.256C547.552 25.032 547.848 24.8 548.168 24.56C548.504 24.32 548.776 24.112 548.984 23.936L549.656 27.752C550.152 27.56 550.624 27.368 551.072 27.176C551.536 26.968 551.976 26.76 552.392 26.552C551.896 26.12 551.432 25.672 551 25.208C550.568 24.744 550.152 24.256 549.752 23.744L551.864 22.304H549.128V18.776H561.752V22.448C560.952 23.904 559.936 25.248 558.704 26.48C559.36 26.768 560.056 27.04 560.792 27.296C561.528 27.536 562.328 27.768 563.192 27.992L561.392 31.832ZM553.28 22.304C553.632 22.752 553.992 23.168 554.36 23.552C554.728 23.936 555.12 24.288 555.536 24.608C556.496 23.872 557.248 23.104 557.792 22.304H553.28ZM569.534 16.424C569.39 16.168 569.166 15.824 568.862 15.392C568.574 14.96 568.262 14.512 567.926 14.048C567.59 13.568 567.262 13.112 566.942 12.68C566.622 12.248 566.358 11.912 566.15 11.672L569.318 9.512C569.526 9.736 569.782 10.032 570.086 10.4C570.39 10.752 570.694 11.136 570.998 11.552C571.318 11.952 571.622 12.352 571.91 12.752C572.198 13.152 572.438 13.504 572.63 13.808L569.534 16.424ZM586.55 21.152H581.942V31.568H577.79V21.152H573.134V16.808H577.79V9.536L581.942 9.632V16.808H586.55V21.152ZM571.286 24.992C571.702 24.72 572.126 24.416 572.558 24.08C573.006 23.744 573.342 23.48 573.566 23.288L574.622 27.104C574.254 27.36 573.878 27.624 573.494 27.896C573.11 28.168 572.734 28.432 572.366 28.688C572.014 28.928 571.686 29.152 571.382 29.36C571.078 29.584 570.83 29.768 570.638 29.912C570.302 30.184 569.95 30.472 569.582 30.776C569.23 31.096 568.934 31.368 568.694 31.592L566.438 28.712C566.694 28.456 566.894 28.232 567.038 28.04C567.182 27.848 567.294 27.656 567.374 27.464C567.454 27.256 567.502 27.032 567.518 26.792C567.55 26.536 567.566 26.224 567.566 25.856V20.288H564.998V16.448H571.286V24.992ZM598.172 10.76C597.324 12.952 596.252 14.952 594.956 16.76C593.676 18.568 592.156 20.248 590.396 21.8L588.116 18.176C588.916 17.456 589.636 16.76 590.276 16.088C590.932 15.4 591.524 14.704 592.052 14C592.58 13.296 593.052 12.576 593.468 11.84C593.9 11.104 594.292 10.32 594.644 9.488L598.172 10.76ZM608.18 21.632C606.58 20.128 605.132 18.488 603.836 16.712C602.556 14.936 601.5 12.928 600.668 10.688L604.052 9.488C604.788 11.152 605.692 12.672 606.764 14.048C607.852 15.408 609.156 16.744 610.676 18.056L608.18 21.632ZM603.572 20.744C604.052 21.4 604.556 22.096 605.084 22.832C605.612 23.568 606.132 24.32 606.644 25.088C607.156 25.84 607.652 26.592 608.132 27.344C608.628 28.08 609.084 28.768 609.5 29.408L605.996 31.784L604.94 29.888C604.156 29.92 603.292 29.96 602.348 30.008C601.404 30.072 600.476 30.128 599.564 30.176C598.652 30.24 597.804 30.296 597.02 30.344C596.236 30.408 595.612 30.456 595.148 30.488C594.748 30.52 594.34 30.552 593.924 30.584C593.508 30.632 593.108 30.68 592.724 30.728C592.34 30.792 591.98 30.848 591.644 30.896C591.324 30.96 591.06 31.016 590.852 31.064L589.532 27.104C590.14 26.96 590.676 26.76 591.14 26.504C591.604 26.248 592.028 25.88 592.412 25.4C592.812 24.888 593.228 24.304 593.66 23.648C594.108 22.976 594.548 22.264 594.98 21.512C595.428 20.744 595.86 19.952 596.276 19.136C596.692 18.304 597.084 17.48 597.452 16.664L601.076 18.152C600.404 19.592 599.644 21.04 598.796 22.496C597.964 23.936 597.084 25.304 596.156 26.6C596.572 26.584 597.052 26.568 597.596 26.552C598.14 26.52 598.708 26.496 599.3 26.48C599.892 26.448 600.484 26.416 601.076 26.384C601.684 26.352 602.252 26.32 602.78 26.288C602.364 25.6 601.956 24.944 601.556 24.32C601.156 23.696 600.788 23.136 600.452 22.64L603.572 20.744ZM632.929 10.136V28.952C632.929 29.848 632.673 30.488 632.161 30.872C631.665 31.256 630.897 31.496 629.857 31.592L627.049 31.856L626.377 29.624H614.017V19.928H626.953V27.632L627.793 27.56C628.225 27.528 628.545 27.44 628.753 27.296C628.977 27.152 629.089 26.896 629.089 26.528V13.928H613.441V10.136H632.929ZM627.817 18.752H612.433V15.128H627.817V18.752ZM623.065 23.6H617.857V26.096H623.065V23.6ZM648.943 9.416C649.375 10.072 649.935 10.704 650.623 11.312C651.311 11.92 652.063 12.488 652.879 13.016C653.711 13.544 654.575 14.024 655.471 14.456C656.383 14.888 657.279 15.256 658.159 15.56L656.455 19.496C655.895 19.24 655.335 18.984 654.775 18.728C654.231 18.456 653.687 18.16 653.143 17.84V19.352H640.735V17.84C640.223 18.128 639.687 18.416 639.127 18.704C638.583 18.976 638.015 19.248 637.423 19.52L635.671 15.56C636.631 15.208 637.583 14.8 638.527 14.336C639.487 13.872 640.383 13.376 641.215 12.848C642.047 12.304 642.799 11.744 643.471 11.168C644.143 10.576 644.679 9.992 645.079 9.416H648.943ZM650.047 15.848C649.487 15.432 648.951 15 648.439 14.552C647.943 14.104 647.471 13.632 647.023 13.136C646.591 13.6 646.111 14.056 645.583 14.504C645.071 14.952 644.511 15.4 643.903 15.848H650.047ZM638.263 20.936H655.615V31.4H638.263V20.936ZM642.055 27.824H651.823V24.464H642.055V27.824ZM667.885 10.304C667.597 11.216 667.277 12.088 666.925 12.92C666.589 13.752 666.221 14.568 665.821 15.368V31.688H662.269V21.104C661.965 21.52 661.661 21.928 661.357 22.328C661.053 22.712 660.741 23.096 660.421 23.48L659.557 18.008C660.437 16.792 661.253 15.488 662.005 14.096C662.757 12.704 663.389 11.12 663.901 9.344L667.885 10.304ZM674.941 15.944V18.296H680.317V22.112H674.941V24.416H680.845V28.184H674.941V31.712H670.837V17.672C670.469 18.264 670.085 18.84 669.685 19.4C669.301 19.96 668.893 20.496 668.461 21.008L665.845 17.936C666.805 16.736 667.645 15.424 668.365 14C669.101 12.56 669.693 11.04 670.141 9.44L674.437 9.776C674.309 10.16 674.181 10.552 674.053 10.952C673.925 11.336 673.773 11.736 673.597 12.152H681.613V15.944H674.941ZM685.218 32.264C685.458 31.8 685.698 31.232 685.938 30.56C686.194 29.904 686.418 29.224 686.61 28.52C686.818 27.816 686.986 27.12 687.114 26.432C687.242 25.728 687.306 25.104 687.306 24.56H691.674C691.674 25.056 691.586 25.656 691.41 26.36C691.25 27.048 691.034 27.76 690.762 28.496C690.49 29.232 690.186 29.936 689.85 30.608C689.53 31.28 689.21 31.832 688.89 32.264H685.218ZM711.864 16.304C711.688 15.968 711.464 15.592 711.192 15.176C710.92 14.744 710.632 14.32 710.328 13.904C710.024 13.472 709.728 13.064 709.44 12.68C709.152 12.296 708.896 11.976 708.672 11.72L711.96 9.416C712.168 9.64 712.408 9.912 712.68 10.232C712.952 10.536 713.232 10.872 713.52 11.24C713.808 11.592 714.088 11.96 714.36 12.344C714.648 12.728 714.904 13.096 715.128 13.448L711.864 16.304ZM715.08 16.52C715.432 16.136 715.72 15.776 715.944 15.44C716.168 15.104 716.344 14.76 716.472 14.408C716.6 14.056 716.688 13.68 716.736 13.28C716.8 12.864 716.832 12.392 716.832 11.864V10.016H726.864V13.208C726.864 13.928 727.176 14.288 727.8 14.288H728.952L728.4 17.528H725.712C724.832 17.528 724.184 17.392 723.768 17.12C723.368 16.848 723.168 16.28 723.168 15.416V13.352H720.504V13.952C720.504 14.688 720.352 15.432 720.048 16.184C719.76 16.92 719.264 17.648 718.56 18.368L715.08 16.52ZM727.752 31.832C726.712 31.416 725.712 30.968 724.752 30.488C723.792 30.024 722.872 29.512 721.992 28.952C720.408 30.024 718.504 30.992 716.28 31.856L714.528 29.072C714.224 29.296 713.928 29.504 713.64 29.696C713.352 29.904 713.096 30.104 712.872 30.296C712.552 30.552 712.216 30.824 711.864 31.112C711.512 31.416 711.224 31.656 711 31.832L708.648 29C708.888 28.76 709.08 28.536 709.224 28.328C709.384 28.104 709.504 27.888 709.584 27.68C709.664 27.456 709.72 27.216 709.752 26.96C709.8 26.704 709.824 26.408 709.824 26.072V20.384H707.568V16.52H713.64V25.256C713.912 25.032 714.208 24.8 714.528 24.56C714.864 24.32 715.136 24.112 715.344 23.936L716.016 27.752C716.512 27.56 716.984 27.368 717.432 27.176C717.896 26.968 718.336 26.76 718.752 26.552C718.256 26.12 717.792 25.672 717.36 25.208C716.928 24.744 716.512 24.256 716.112 23.744L718.224 22.304H715.488V18.776H728.112V22.448C727.312 23.904 726.296 25.248 725.064 26.48C725.72 26.768 726.416 27.04 727.152 27.296C727.888 27.536 728.688 27.768 729.552 27.992L727.752 31.832ZM719.64 22.304C719.992 22.752 720.352 23.168 720.72 23.552C721.088 23.936 721.48 24.288 721.896 24.608C722.856 23.872 723.608 23.104 724.152 22.304H719.64ZM735.893 16.424C735.749 16.168 735.525 15.824 735.221 15.392C734.933 14.96 734.621 14.512 734.285 14.048C733.949 13.568 733.621 13.112 733.301 12.68C732.981 12.248 732.717 11.912 732.509 11.672L735.677 9.512C735.885 9.736 736.141 10.032 736.445 10.4C736.749 10.752 737.053 11.136 737.357 11.552C737.677 11.952 737.981 12.352 738.269 12.752C738.557 13.152 738.797 13.504 738.989 13.808L735.893 16.424ZM752.909 21.152H748.301V31.568H744.149V21.152H739.493V16.808H744.149V9.536L748.301 9.632V16.808H752.909V21.152ZM737.645 24.992C738.061 24.72 738.485 24.416 738.917 24.08C739.365 23.744 739.701 23.48 739.925 23.288L740.981 27.104C740.613 27.36 740.237 27.624 739.853 27.896C739.469 28.168 739.093 28.432 738.725 28.688C738.373 28.928 738.045 29.152 737.741 29.36C737.437 29.584 737.189 29.768 736.997 29.912C736.661 30.184 736.309 30.472 735.941 30.776C735.589 31.096 735.293 31.368 735.053 31.592L732.797 28.712C733.053 28.456 733.253 28.232 733.397 28.04C733.541 27.848 733.653 27.656 733.733 27.464C733.813 27.256 733.861 27.032 733.877 26.792C733.909 26.536 733.925 26.224 733.925 25.856V20.288H731.357V16.448H737.645V24.992ZM761.747 31.88C761.475 31.4 761.131 30.888 760.715 30.344C760.315 29.8 759.891 29.272 759.443 28.76C759.011 28.248 758.571 27.768 758.123 27.32C757.675 26.872 757.275 26.504 756.923 26.216L759.899 24.248C760.347 24.584 760.811 24.968 761.291 25.4C761.771 25.832 762.235 26.288 762.683 26.768C763.131 27.248 763.555 27.744 763.955 28.256C764.355 28.768 764.715 29.272 765.035 29.768L761.747 31.88ZM800.369 27.728V31.352H787.241V21.488C787.113 21.664 786.985 21.84 786.857 22.016C786.729 22.176 786.601 22.344 786.473 22.52L785.897 20.72L785.921 23.624C785.745 23.656 785.545 23.68 785.321 23.696C785.097 23.712 784.857 23.736 784.601 23.768V28.664C784.601 29.288 784.545 29.776 784.433 30.128C784.337 30.496 784.153 30.776 783.881 30.968C783.625 31.176 783.265 31.32 782.801 31.4C782.353 31.496 781.777 31.584 781.073 31.664L779.993 31.784L778.817 27.944L779.609 27.824C780.009 27.76 780.321 27.664 780.545 27.536C780.769 27.408 780.881 27.136 780.881 26.72V24.152C780.417 24.2 779.985 24.248 779.585 24.296C779.201 24.344 778.865 24.384 778.577 24.416L778.265 20.432C778.633 20.4 779.041 20.368 779.489 20.336C779.937 20.288 780.401 20.24 780.881 20.192V16.712H778.985V12.968H780.881V9.44L784.601 9.536V12.968H786.041V16.712H784.601V19.832C784.777 19.8 784.945 19.784 785.105 19.784C785.265 19.768 785.425 19.744 785.585 19.712L785.177 18.416C785.657 17.584 786.065 16.808 786.401 16.088C786.737 15.368 787.025 14.672 787.265 14C787.505 13.312 787.705 12.632 787.865 11.96C788.041 11.288 788.201 10.568 788.345 9.8L791.969 9.968C791.825 10.832 791.633 11.704 791.393 12.584H793.505C793.457 12.376 793.409 12.144 793.361 11.888C793.313 11.632 793.257 11.384 793.193 11.144C793.145 10.904 793.097 10.688 793.049 10.496C793.001 10.304 792.969 10.168 792.953 10.088H796.577C796.609 10.216 796.649 10.392 796.697 10.616C796.745 10.824 796.793 11.048 796.841 11.288C796.889 11.512 796.929 11.744 796.961 11.984C796.993 12.208 797.025 12.408 797.057 12.584H799.889V16.16H796.481V17.888H799.481V21.08H796.481V22.832H799.481V26H796.481V27.728H800.369ZM793.265 16.16H790.673V17.888H793.265V16.16ZM793.265 21.08H790.673V22.832H793.265V21.08ZM790.673 27.728H793.265V26H790.673V27.728ZM824.038 11.912V15.632H808.006V19.112C808.006 20.632 807.95 21.976 807.838 23.144C807.742 24.296 807.59 25.36 807.382 26.336C807.19 27.312 806.95 28.232 806.662 29.096C806.374 29.96 806.046 30.848 805.678 31.76L802.03 30.056C802.414 29.272 802.742 28.504 803.014 27.752C803.302 27 803.542 26.216 803.734 25.4C803.926 24.584 804.07 23.712 804.166 22.784C804.278 21.84 804.334 20.792 804.334 19.64V11.912H812.758C812.71 11.72 812.654 11.504 812.59 11.264C812.542 11.008 812.486 10.76 812.422 10.52C812.358 10.28 812.302 10.064 812.254 9.872C812.206 9.68 812.166 9.536 812.134 9.44H816.406C816.454 9.584 816.502 9.768 816.55 9.992C816.614 10.216 816.67 10.448 816.718 10.688C816.766 10.912 816.806 11.136 816.838 11.36C816.886 11.584 816.926 11.768 816.958 11.912H824.038ZM833.092 24.008C832.964 23.8 832.82 23.56 832.66 23.288C832.5 23 832.332 22.704 832.156 22.4V31.688H828.484V23.504C828.276 23.888 828.06 24.264 827.836 24.632C827.628 25 827.42 25.352 827.212 25.688C827.004 26.008 826.812 26.296 826.636 26.552C826.476 26.808 826.34 27.016 826.228 27.176L825.508 21.728C825.796 21.328 826.076 20.912 826.348 20.48C826.636 20.032 826.908 19.592 827.164 19.16C827.42 18.728 827.644 18.312 827.836 17.912C828.044 17.496 828.212 17.104 828.34 16.736H826.468V13.088H828.484V9.44L832.156 9.56V13.088H833.716V16.736H832.156V18.848L832.828 18.248C832.988 18.424 833.18 18.648 833.404 18.92C833.644 19.176 833.884 19.448 834.124 19.736C834.364 20.024 834.596 20.32 834.82 20.624C835.044 20.912 835.236 21.176 835.396 21.416L833.092 24.008ZM846.988 14H835.132V10.328H846.988V14ZM845.044 29.672C844.9 29.192 844.732 28.672 844.54 28.112C844.364 27.536 844.172 26.952 843.964 26.36C843.772 25.752 843.572 25.16 843.364 24.584C843.156 23.992 842.956 23.448 842.764 22.952V29C842.764 29.512 842.7 29.92 842.572 30.224C842.46 30.544 842.284 30.792 842.044 30.968C841.804 31.16 841.5 31.296 841.132 31.376C840.764 31.456 840.332 31.52 839.836 31.568L838.18 31.712L836.956 27.92L838.06 27.776C838.428 27.728 838.684 27.64 838.828 27.512C838.988 27.368 839.068 27.144 839.068 26.84V19.688H834.412V16.016H848.068V19.688H842.764V22.088L845.476 21.152C845.684 21.6 845.916 22.136 846.172 22.76C846.428 23.368 846.684 24 846.94 24.656C847.212 25.312 847.46 25.96 847.684 26.6C847.924 27.224 848.124 27.776 848.284 28.256L845.044 29.672ZM838.78 21.824C838.636 22.4 838.46 23.04 838.252 23.744C838.044 24.448 837.812 25.168 837.556 25.904C837.3 26.64 837.036 27.36 836.764 28.064C836.492 28.752 836.228 29.368 835.972 29.912L832.732 28.688C833.036 28.112 833.324 27.496 833.596 26.84C833.884 26.184 834.148 25.52 834.388 24.848C834.628 24.176 834.844 23.52 835.036 22.88C835.228 22.224 835.396 21.616 835.54 21.056L838.78 21.824ZM871.666 27.728V31.352H857.074V21.488L856.21 22.52L856.138 22.28C855.994 22.984 855.826 23.728 855.634 24.512C855.458 25.28 855.274 26.048 855.082 26.816C854.89 27.584 854.69 28.32 854.482 29.024C854.29 29.744 854.106 30.392 853.93 30.968L849.898 29.888C850.122 29.232 850.346 28.52 850.57 27.752C850.81 26.984 851.042 26.192 851.266 25.376C851.49 24.56 851.698 23.736 851.89 22.904C852.098 22.056 852.29 21.24 852.465 20.456L855.802 21.368L854.794 18.416C854.906 18.24 855.01 18.072 855.105 17.912C855.217 17.736 855.322 17.56 855.418 17.384L852.658 18.368C852.562 17.968 852.41 17.44 852.202 16.784C852.01 16.112 851.802 15.432 851.578 14.744C851.37 14.04 851.162 13.384 850.954 12.776C850.762 12.152 850.602 11.688 850.474 11.384L854.122 10.16C854.266 10.544 854.426 10.976 854.602 11.456C854.794 11.936 854.978 12.44 855.154 12.968C855.33 13.48 855.506 14 855.682 14.528C855.874 15.056 856.042 15.56 856.186 16.04C856.746 14.968 857.186 13.944 857.506 12.968C857.826 11.992 858.098 10.936 858.322 9.8L862.33 9.968C862.17 10.832 861.954 11.704 861.682 12.584H864.058C864.01 12.376 863.954 12.144 863.89 11.888C863.826 11.632 863.762 11.384 863.698 11.144C863.65 10.904 863.594 10.688 863.53 10.496C863.482 10.304 863.45 10.168 863.434 10.088H867.466C867.498 10.216 867.538 10.392 867.586 10.616C867.65 10.824 867.706 11.048 867.754 11.288C867.802 11.512 867.85 11.744 867.898 11.984C867.946 12.208 867.986 12.408 868.018 12.584H871.162V16.16H867.37V17.888H870.682V21.08H867.37V22.832H870.682V26H867.37V27.728H871.666ZM863.746 16.16H860.89V17.888H863.746V16.16ZM863.746 21.08H860.89V22.832H863.746V21.08ZM860.89 27.728H863.746V26H860.89V27.728ZM895.647 24.8C895.615 25.312 895.567 25.88 895.503 26.504C895.439 27.112 895.351 27.664 895.239 28.16C895.111 28.736 894.951 29.216 894.759 29.6C894.583 30 894.343 30.328 894.039 30.584C893.751 30.84 893.383 31.024 892.935 31.136C892.487 31.264 891.927 31.344 891.255 31.376C890.135 31.424 889.015 31.424 887.895 31.376C887.159 31.344 886.535 31.264 886.023 31.136C885.527 31.024 885.127 30.816 884.823 30.512C884.519 30.224 884.295 29.832 884.151 29.336C884.023 28.84 883.959 28.208 883.959 27.44V24.32L881.535 25.688L880.335 23.744V31.736H876.495V21.656C876.175 22.072 875.855 22.496 875.535 22.928C875.215 23.36 874.887 23.792 874.551 24.224L873.567 19.184C874.159 18.304 874.695 17.472 875.175 16.688C875.655 15.888 876.087 15.104 876.471 14.336C876.855 13.552 877.199 12.768 877.503 11.984C877.807 11.184 878.087 10.336 878.343 9.44L882.327 10.064C882.055 11.024 881.751 11.936 881.415 12.8C881.079 13.648 880.719 14.48 880.335 15.296V21.656C880.959 21.336 881.567 21.008 882.159 20.672C882.767 20.336 883.367 19.984 883.959 19.616V9.56L887.919 9.656V16.88C889.743 15.488 891.335 14.056 892.695 12.584L895.359 15.752C894.175 16.92 892.983 17.992 891.783 18.968C890.583 19.944 889.295 20.896 887.919 21.824V26.264C887.919 26.76 888.015 27.08 888.207 27.224C888.415 27.352 888.711 27.44 889.095 27.488C889.527 27.536 889.967 27.536 890.415 27.488C890.879 27.44 891.191 27.328 891.351 27.152C891.527 26.976 891.655 26.72 891.735 26.384C891.799 26.112 891.855 25.704 891.903 25.16C891.967 24.6 892.015 24.048 892.047 23.504L895.647 24.8ZM905.133 9.512C905.085 9.672 904.997 9.912 904.869 10.232C904.757 10.536 904.637 10.848 904.509 11.168H907.605V28.64C907.605 29.232 907.557 29.704 907.461 30.056C907.381 30.424 907.229 30.712 907.005 30.92C906.797 31.128 906.509 31.272 906.141 31.352C905.789 31.448 905.341 31.52 904.797 31.568L903.357 31.688L902.325 28.256L903.477 28.208C904.229 28.16 904.605 27.824 904.605 27.2V26.336L902.493 27.344C902.445 27.152 902.389 26.944 902.325 26.72C902.261 26.48 902.189 26.232 902.109 25.976C902.029 25.72 901.949 25.472 901.869 25.232C901.789 24.976 901.717 24.752 901.653 24.56C901.589 25.472 901.501 26.28 901.389 26.984C901.293 27.672 901.181 28.304 901.053 28.88C900.925 29.44 900.781 29.96 900.621 30.44C900.461 30.936 900.301 31.432 900.141 31.928L896.901 30.296C897.125 29.72 897.325 29.168 897.501 28.64C897.693 28.096 897.861 27.536 898.005 26.96C898.149 26.384 898.269 25.76 898.365 25.088C898.461 24.416 898.525 23.64 898.557 22.76H897.621V19.304H898.605V11.168H901.077C901.173 10.88 901.261 10.584 901.341 10.28C901.437 9.96 901.509 9.688 901.557 9.464L905.133 9.512ZM919.173 15.176L918.765 18.728H916.725C916.293 18.728 915.925 18.688 915.621 18.608C915.317 18.512 915.061 18.352 914.853 18.128C914.645 17.888 914.493 17.576 914.397 17.192C914.301 16.792 914.253 16.28 914.253 15.656V13.568H912.645V14.072C912.645 15 912.509 15.896 912.237 16.76C911.981 17.608 911.493 18.528 910.773 19.52L907.821 17.336C908.125 16.936 908.373 16.56 908.565 16.208C908.757 15.84 908.909 15.456 909.021 15.056C909.133 14.64 909.213 14.192 909.261 13.712C909.309 13.216 909.333 12.64 909.333 11.984V9.944H917.493V14.096C917.493 14.512 917.557 14.8 917.685 14.96C917.829 15.104 918.061 15.176 918.381 15.176H919.173ZM904.605 14.288H901.773V15.656L903.693 15.08C903.901 15.512 904.069 15.944 904.197 16.376C904.341 16.808 904.477 17.256 904.605 17.72V14.288ZM901.773 19.304H904.605V17.912L902.565 18.8C902.485 18.384 902.373 17.92 902.229 17.408C902.085 16.896 901.933 16.408 901.773 15.944V19.304ZM908.637 19.976H918.429V31.184H908.637V19.976ZM903.645 23.48C903.805 23.816 903.973 24.24 904.149 24.752C904.325 25.248 904.477 25.704 904.605 26.12V22.76H901.749L901.677 24.152L903.645 23.48ZM911.973 27.584H914.997V23.624H911.973V27.584ZM936.386 19.808H934.082V10.568L937.202 10.664V18.992C937.65 18.944 937.954 18.832 938.114 18.656C938.29 18.48 938.378 18.184 938.378 17.768V9.416L942.098 9.512V19.088C942.098 19.696 942.05 20.2 941.954 20.6C941.874 20.984 941.73 21.296 941.522 21.536C941.33 21.776 941.074 21.952 940.754 22.064C940.434 22.176 940.05 22.256 939.602 22.304L937.298 22.544L936.386 19.808ZM942.962 27.896V31.376H921.29V27.896H930.218V26.408H922.946V23.336H930.218V22.328H928.514V18.944H926.714C926.65 19.36 926.57 19.744 926.474 20.096C926.378 20.448 926.25 20.784 926.09 21.104C925.946 21.408 925.77 21.72 925.562 22.04C925.354 22.344 925.114 22.672 924.842 23.024L921.362 21.488C921.794 21.024 922.138 20.6 922.394 20.216C922.65 19.832 922.85 19.408 922.994 18.944H921.482V15.368H923.402V15.176V13.352H921.914V9.944H933.098V13.352H932.042V15.368H933.338V18.944H932.042V21.824H934.034V23.336H941.306V26.408H934.034V27.896H942.962ZM928.514 15.368V13.352H926.882V15.248V15.368H928.514Z" fill="white"/>
<path d="M353.705 50.352C354.969 50.352 356.041 50.688 356.905 51.36C357.769 52.032 358.281 52.944 358.441 54.08H357.177C357.017 53.248 356.601 52.608 355.961 52.16C355.337 51.728 354.585 51.52 353.689 51.52C352.361 51.52 351.337 51.984 350.617 52.912C349.945 53.776 349.609 54.912 349.609 56.336C349.609 57.76 349.929 58.896 350.601 59.728C351.305 60.608 352.313 61.056 353.657 61.056C354.569 61.056 355.337 60.816 355.977 60.336C356.649 59.824 357.113 59.072 357.337 58.08H358.601C358.345 59.408 357.753 60.448 356.809 61.184C355.929 61.872 354.873 62.224 353.657 62.224C351.881 62.224 350.521 61.632 349.577 60.464C348.713 59.408 348.297 58.032 348.297 56.336C348.297 54.64 348.729 53.248 349.609 52.16C350.569 50.944 351.945 50.352 353.705 50.352ZM363.954 53.504C365.186 53.504 366.178 53.92 366.914 54.784C367.618 55.6 367.97 56.624 367.97 57.872C367.97 59.104 367.618 60.128 366.93 60.928C366.178 61.792 365.186 62.224 363.954 62.224C362.706 62.224 361.73 61.792 360.994 60.928C360.29 60.128 359.938 59.104 359.938 57.872C359.938 56.624 360.29 55.6 360.994 54.784C361.73 53.92 362.706 53.504 363.954 53.504ZM363.954 54.576C363.074 54.576 362.386 54.912 361.906 55.584C361.458 56.192 361.25 56.944 361.25 57.872C361.25 58.784 361.458 59.536 361.906 60.144C362.386 60.816 363.074 61.152 363.954 61.152C364.818 61.152 365.506 60.816 366.018 60.144C366.45 59.536 366.674 58.768 366.674 57.872C366.674 56.944 366.45 56.192 366.018 55.584C365.506 54.912 364.818 54.576 363.954 54.576ZM373.329 53.504C374.561 53.504 375.553 53.92 376.289 54.784C376.993 55.6 377.345 56.624 377.345 57.872C377.345 59.104 376.993 60.128 376.305 60.928C375.553 61.792 374.561 62.224 373.329 62.224C372.081 62.224 371.105 61.792 370.369 60.928C369.665 60.128 369.313 59.104 369.313 57.872C369.313 56.624 369.665 55.6 370.369 54.784C371.105 53.92 372.081 53.504 373.329 53.504ZM373.329 54.576C372.449 54.576 371.761 54.912 371.281 55.584C370.833 56.192 370.625 56.944 370.625 57.872C370.625 58.784 370.833 59.536 371.281 60.144C371.761 60.816 372.449 61.152 373.329 61.152C374.193 61.152 374.881 60.816 375.393 60.144C375.825 59.536 376.049 58.768 376.049 57.872C376.049 56.944 375.825 56.192 375.393 55.584C374.881 54.912 374.193 54.576 373.329 54.576ZM382.96 53.504C384.144 53.504 385.088 53.936 385.776 54.832C386.4 55.632 386.72 56.64 386.72 57.888C386.72 59.104 386.4 60.112 385.792 60.912C385.12 61.776 384.208 62.224 383.024 62.224C381.84 62.224 380.928 61.648 380.288 60.496V65.168H379.008V53.728H380.208V55.088C380.8 54.032 381.712 53.504 382.96 53.504ZM382.8 54.56C381.968 54.56 381.312 54.88 380.864 55.536C380.448 56.112 380.24 56.88 380.24 57.808V57.968C380.24 58.928 380.464 59.696 380.944 60.288C381.392 60.864 381.984 61.168 382.752 61.168C383.648 61.168 384.32 60.848 384.784 60.24C385.2 59.664 385.408 58.88 385.408 57.888C385.408 56.912 385.2 56.128 384.816 55.552C384.352 54.88 383.68 54.56 382.8 54.56ZM391.791 53.504C393.119 53.504 394.127 53.952 394.799 54.848C395.407 55.648 395.727 56.784 395.759 58.224H389.231C389.295 59.152 389.535 59.872 389.983 60.384C390.431 60.896 391.055 61.152 391.839 61.152C392.511 61.152 393.071 60.976 393.487 60.64C393.839 60.352 394.111 59.92 394.319 59.344H395.599C395.407 60.144 395.039 60.784 394.479 61.296C393.791 61.904 392.911 62.224 391.839 62.224C390.655 62.224 389.695 61.824 388.991 61.056C388.255 60.256 387.903 59.2 387.903 57.856C387.903 56.64 388.239 55.616 388.943 54.8C389.647 53.936 390.591 53.504 391.791 53.504ZM391.823 54.576C391.087 54.576 390.495 54.816 390.047 55.296C389.599 55.776 389.343 56.416 389.263 57.232H394.431C394.271 55.456 393.391 54.576 391.823 54.576ZM400.89 53.504C401.338 53.504 401.722 53.568 402.026 53.696V54.976C401.61 54.848 401.194 54.8 400.794 54.8C400.154 54.8 399.61 55.072 399.178 55.648C398.73 56.192 398.522 56.848 398.522 57.616V62H397.258V53.728H398.522V55.168C398.746 54.688 399.034 54.304 399.386 54.032C399.818 53.68 400.314 53.504 400.89 53.504ZM406.701 53.504C407.885 53.504 408.749 53.808 409.325 54.432C409.805 54.976 410.061 55.728 410.061 56.688V62H408.861V60.608C408.541 61.056 408.109 61.424 407.597 61.712C406.989 62.048 406.301 62.224 405.533 62.224C404.701 62.224 404.045 62.016 403.549 61.6C403.037 61.168 402.781 60.608 402.781 59.936C402.781 58.992 403.149 58.288 403.917 57.808C404.589 57.36 405.549 57.12 406.797 57.104L408.781 57.072V56.64C408.781 55.248 408.061 54.56 406.621 54.56C406.013 54.56 405.517 54.672 405.133 54.928C404.701 55.184 404.429 55.584 404.301 56.112L403.037 56.016C403.213 55.152 403.645 54.496 404.317 54.08C404.925 53.696 405.709 53.504 406.701 53.504ZM408.781 58.032L406.877 58.064C405.021 58.096 404.093 58.704 404.093 59.904C404.093 60.288 404.237 60.592 404.557 60.848C404.877 61.088 405.293 61.216 405.805 61.216C406.589 61.216 407.277 60.96 407.885 60.448C408.477 59.952 408.781 59.376 408.781 58.736V58.032ZM414.247 51.056V53.728H416.295V54.8H414.247V60.064C414.247 60.368 414.295 60.592 414.423 60.72C414.535 60.848 414.743 60.928 415.031 60.928H416.087V62H414.839C414.167 62 413.671 61.824 413.383 61.472C413.111 61.152 412.983 60.688 412.983 60.064V54.8H411.319V53.728H412.983V51.584L414.247 51.056ZM421.134 53.504C422.462 53.504 423.47 53.952 424.142 54.848C424.75 55.648 425.07 56.784 425.102 58.224H418.574C418.638 59.152 418.878 59.872 419.326 60.384C419.774 60.896 420.398 61.152 421.182 61.152C421.854 61.152 422.414 60.976 422.83 60.64C423.182 60.352 423.454 59.92 423.662 59.344H424.942C424.75 60.144 424.382 60.784 423.822 61.296C423.134 61.904 422.254 62.224 421.182 62.224C419.998 62.224 419.038 61.824 418.334 61.056C417.598 60.256 417.246 59.2 417.246 57.856C417.246 56.64 417.582 55.616 418.286 54.8C418.99 53.936 419.934 53.504 421.134 53.504ZM421.166 54.576C420.43 54.576 419.838 54.816 419.39 55.296C418.942 55.776 418.686 56.416 418.606 57.232H423.774C423.614 55.456 422.734 54.576 421.166 54.576ZM431.018 53.728H432.426L434.458 60.432L436.378 53.728H437.578L439.498 60.432L441.53 53.728H442.938L440.122 62H438.906L436.986 55.344L435.034 62H433.834L431.018 53.728ZM445.064 50.608C445.336 50.608 445.56 50.688 445.752 50.88C445.944 51.04 446.04 51.264 446.04 51.552C446.04 51.824 445.944 52.048 445.752 52.24C445.56 52.416 445.336 52.512 445.064 52.512C444.792 52.512 444.568 52.416 444.376 52.24C444.184 52.048 444.104 51.824 444.104 51.552C444.104 51.264 444.184 51.04 444.376 50.88C444.568 50.688 444.792 50.608 445.064 50.608ZM444.424 53.728H445.704V62H444.424V53.728ZM450.309 51.056V53.728H452.357V54.8H450.309V60.064C450.309 60.368 450.357 60.592 450.485 60.72C450.597 60.848 450.805 60.928 451.093 60.928H452.149V62H450.901C450.229 62 449.733 61.824 449.445 61.472C449.173 61.152 449.045 60.688 449.045 60.064V54.8H447.381V53.728H449.045V51.584L450.309 51.056ZM453.789 50.352H455.069V55.088C455.357 54.56 455.741 54.16 456.221 53.888C456.669 53.632 457.165 53.504 457.725 53.504C458.685 53.504 459.437 53.776 459.949 54.352C460.461 54.912 460.717 55.728 460.717 56.784V62H459.437V56.976C459.437 56.208 459.245 55.616 458.893 55.2C458.509 54.784 457.981 54.576 457.293 54.576C456.653 54.576 456.125 54.832 455.709 55.344C455.277 55.856 455.069 56.512 455.069 57.28V62H453.789V50.352ZM470.216 51.056V53.728H472.264V54.8H470.216V60.064C470.216 60.368 470.264 60.592 470.392 60.72C470.504 60.848 470.712 60.928 471 60.928H472.056V62H470.808C470.136 62 469.64 61.824 469.352 61.472C469.08 61.152 468.952 60.688 468.952 60.064V54.8H467.288V53.728H468.952V51.584L470.216 51.056ZM477.391 53.504C478.623 53.504 479.615 53.92 480.351 54.784C481.055 55.6 481.407 56.624 481.407 57.872C481.407 59.104 481.055 60.128 480.367 60.928C479.615 61.792 478.623 62.224 477.391 62.224C476.143 62.224 475.167 61.792 474.431 60.928C473.727 60.128 473.375 59.104 473.375 57.872C473.375 56.624 473.727 55.6 474.431 54.784C475.167 53.92 476.143 53.504 477.391 53.504ZM477.391 54.576C476.511 54.576 475.823 54.912 475.343 55.584C474.895 56.192 474.687 56.944 474.687 57.872C474.687 58.784 474.895 59.536 475.343 60.144C475.823 60.816 476.511 61.152 477.391 61.152C478.255 61.152 478.943 60.816 479.455 60.144C479.887 59.536 480.111 58.768 480.111 57.872C480.111 56.944 479.887 56.192 479.455 55.584C478.943 54.912 478.255 54.576 477.391 54.576ZM487.022 53.504C488.206 53.504 489.15 53.936 489.838 54.832C490.462 55.632 490.782 56.64 490.782 57.888C490.782 59.104 490.462 60.112 489.854 60.912C489.182 61.776 488.27 62.224 487.086 62.224C485.902 62.224 484.99 61.648 484.35 60.496V65.168H483.07V53.728H484.27V55.088C484.862 54.032 485.774 53.504 487.022 53.504ZM486.862 54.56C486.03 54.56 485.374 54.88 484.926 55.536C484.51 56.112 484.302 56.88 484.302 57.808V57.968C484.302 58.928 484.526 59.696 485.006 60.288C485.454 60.864 486.046 61.168 486.814 61.168C487.71 61.168 488.382 60.848 488.846 60.24C489.262 59.664 489.47 58.88 489.47 57.888C489.47 56.912 489.262 56.128 488.878 55.552C488.414 54.88 487.742 54.56 486.862 54.56ZM501.181 53.504C502.429 53.504 503.357 54.048 503.965 55.152V53.728H505.245V61.424C505.245 64.064 503.981 65.392 501.469 65.392C500.349 65.392 499.485 65.168 498.909 64.72C498.317 64.272 497.949 63.6 497.805 62.704H499.085C499.181 63.264 499.421 63.68 499.789 63.936C500.157 64.208 500.717 64.352 501.469 64.352C503.133 64.352 503.965 63.424 503.965 61.6V60.144C503.357 61.248 502.429 61.808 501.181 61.808C500.029 61.808 499.117 61.408 498.445 60.624C497.773 59.856 497.453 58.88 497.453 57.68C497.453 56.464 497.773 55.488 498.445 54.72C499.117 53.904 500.029 53.504 501.181 53.504ZM501.373 54.56C500.541 54.56 499.901 54.848 499.437 55.456C498.989 56 498.765 56.752 498.765 57.68C498.765 58.544 498.957 59.264 499.357 59.808C499.805 60.416 500.461 60.736 501.357 60.736C502.189 60.736 502.829 60.448 503.309 59.872C503.757 59.312 503.981 58.576 503.981 57.68C503.981 56.752 503.757 56 503.309 55.456C502.829 54.848 502.189 54.56 501.373 54.56ZM507.482 50.352H508.746V62H507.482V50.352ZM514.688 53.504C515.92 53.504 516.912 53.92 517.648 54.784C518.352 55.6 518.704 56.624 518.704 57.872C518.704 59.104 518.352 60.128 517.664 60.928C516.912 61.792 515.92 62.224 514.688 62.224C513.44 62.224 512.464 61.792 511.728 60.928C511.024 60.128 510.672 59.104 510.672 57.872C510.672 56.624 511.024 55.6 511.728 54.784C512.464 53.92 513.44 53.504 514.688 53.504ZM514.688 54.576C513.808 54.576 513.12 54.912 512.64 55.584C512.192 56.192 511.984 56.944 511.984 57.872C511.984 58.784 512.192 59.536 512.64 60.144C513.12 60.816 513.808 61.152 514.688 61.152C515.552 61.152 516.24 60.816 516.752 60.144C517.184 59.536 517.408 58.768 517.408 57.872C517.408 56.944 517.184 56.192 516.752 55.584C516.24 54.912 515.552 54.576 514.688 54.576ZM520.367 50.352H521.647V55.248C522.287 54.08 523.199 53.504 524.383 53.504C525.551 53.504 526.479 53.936 527.151 54.832C527.759 55.632 528.079 56.624 528.079 57.84C528.079 59.088 527.759 60.112 527.151 60.912C526.463 61.776 525.519 62.224 524.319 62.224C523.039 62.224 522.127 61.696 521.567 60.64V62H520.367V50.352ZM524.111 54.56C523.359 54.56 522.751 54.848 522.303 55.456C521.823 56.048 521.599 56.832 521.599 57.792V57.952C521.599 58.88 521.807 59.632 522.223 60.208C522.671 60.848 523.327 61.168 524.159 61.168C525.055 61.168 525.727 60.832 526.175 60.192C526.559 59.616 526.767 58.832 526.767 57.84C526.767 56.848 526.559 56.08 526.143 55.52C525.679 54.88 525.007 54.56 524.111 54.56ZM533.342 53.504C534.526 53.504 535.39 53.808 535.966 54.432C536.446 54.976 536.702 55.728 536.702 56.688V62H535.502V60.608C535.182 61.056 534.75 61.424 534.238 61.712C533.63 62.048 532.942 62.224 532.174 62.224C531.342 62.224 530.686 62.016 530.19 61.6C529.678 61.168 529.422 60.608 529.422 59.936C529.422 58.992 529.79 58.288 530.558 57.808C531.23 57.36 532.19 57.12 533.438 57.104L535.422 57.072V56.64C535.422 55.248 534.702 54.56 533.262 54.56C532.654 54.56 532.158 54.672 531.774 54.928C531.342 55.184 531.07 55.584 530.942 56.112L529.678 56.016C529.854 55.152 530.286 54.496 530.958 54.08C531.566 53.696 532.35 53.504 533.342 53.504ZM535.422 58.032L533.518 58.064C531.662 58.096 530.734 58.704 530.734 59.904C530.734 60.288 530.878 60.592 531.198 60.848C531.518 61.088 531.934 61.216 532.446 61.216C533.23 61.216 533.918 60.96 534.526 60.448C535.118 59.952 535.422 59.376 535.422 58.736V58.032ZM538.936 50.352H540.2V62H538.936V50.352ZM553.885 50.352H555.165V62H553.965V60.64C553.389 61.696 552.461 62.224 551.213 62.224C549.997 62.224 549.053 61.776 548.381 60.912C547.757 60.112 547.453 59.088 547.453 57.84C547.453 56.624 547.757 55.632 548.381 54.832C549.053 53.936 549.965 53.504 551.149 53.504C552.333 53.504 553.245 54.08 553.885 55.248V50.352ZM551.421 54.56C550.509 54.56 549.821 54.88 549.373 55.52C548.957 56.08 548.765 56.848 548.765 57.84C548.765 58.832 548.957 59.616 549.357 60.192C549.805 60.832 550.477 61.168 551.373 61.168C552.205 61.168 552.845 60.848 553.309 60.208C553.709 59.632 553.917 58.88 553.917 57.952V57.792C553.917 56.832 553.677 56.048 553.229 55.456C552.765 54.848 552.157 54.56 551.421 54.56ZM560.556 53.504C561.884 53.504 562.892 53.952 563.564 54.848C564.172 55.648 564.492 56.784 564.524 58.224H557.996C558.06 59.152 558.3 59.872 558.748 60.384C559.196 60.896 559.82 61.152 560.604 61.152C561.276 61.152 561.836 60.976 562.252 60.64C562.604 60.352 562.876 59.92 563.084 59.344H564.364C564.172 60.144 563.804 60.784 563.244 61.296C562.556 61.904 561.676 62.224 560.604 62.224C559.42 62.224 558.46 61.824 557.756 61.056C557.02 60.256 556.668 59.2 556.668 57.856C556.668 56.64 557.004 55.616 557.708 54.8C558.412 53.936 559.356 53.504 560.556 53.504ZM560.588 54.576C559.852 54.576 559.26 54.816 558.812 55.296C558.364 55.776 558.108 56.416 558.028 57.232H563.196C563.036 55.456 562.156 54.576 560.588 54.576ZM568.951 53.504C570.999 53.504 572.119 54.352 572.343 56.08H571.095C570.983 55.568 570.775 55.184 570.455 54.96C570.103 54.704 569.591 54.576 568.935 54.576C568.359 54.576 567.911 54.672 567.591 54.896C567.239 55.104 567.063 55.392 567.063 55.76C567.063 56.112 567.287 56.416 567.767 56.656C568.071 56.8 568.647 56.976 569.479 57.2C570.471 57.44 571.175 57.696 571.607 57.968C572.263 58.384 572.599 58.944 572.599 59.664C572.599 61.36 571.431 62.224 569.095 62.224C566.919 62.224 565.735 61.264 565.543 59.36H566.791C566.887 60.016 567.127 60.48 567.479 60.768C567.831 61.024 568.359 61.152 569.063 61.152C570.535 61.152 571.287 60.672 571.287 59.744C571.287 59.28 571.015 58.928 570.503 58.672C570.231 58.544 569.639 58.368 568.743 58.144C567.767 57.904 567.079 57.664 566.695 57.408C566.055 57.024 565.751 56.496 565.751 55.792C565.751 55.088 566.055 54.544 566.679 54.128C567.255 53.712 568.023 53.504 568.951 53.504ZM575.157 50.608C575.429 50.608 575.653 50.688 575.845 50.88C576.037 51.04 576.133 51.264 576.133 51.552C576.133 51.824 576.037 52.048 575.845 52.24C575.653 52.416 575.429 52.512 575.157 52.512C574.885 52.512 574.661 52.416 574.469 52.24C574.277 52.048 574.197 51.824 574.197 51.552C574.197 51.264 574.277 51.04 574.469 50.88C574.661 50.688 574.885 50.608 575.157 50.608ZM574.517 53.728H575.797V62H574.517V53.728ZM581.603 53.504C582.851 53.504 583.779 54.048 584.387 55.152V53.728H585.667V61.424C585.667 64.064 584.403 65.392 581.891 65.392C580.771 65.392 579.907 65.168 579.331 64.72C578.739 64.272 578.371 63.6 578.227 62.704H579.507C579.603 63.264 579.843 63.68 580.211 63.936C580.579 64.208 581.139 64.352 581.891 64.352C583.555 64.352 584.387 63.424 584.387 61.6V60.144C583.779 61.248 582.851 61.808 581.603 61.808C580.451 61.808 579.539 61.408 578.867 60.624C578.195 59.856 577.875 58.88 577.875 57.68C577.875 56.464 578.195 55.488 578.867 54.72C579.539 53.904 580.451 53.504 581.603 53.504ZM581.795 54.56C580.963 54.56 580.323 54.848 579.859 55.456C579.411 56 579.187 56.752 579.187 57.68C579.187 58.544 579.379 59.264 579.779 59.808C580.227 60.416 580.883 60.736 581.779 60.736C582.611 60.736 583.251 60.448 583.731 59.872C584.179 59.312 584.403 58.576 584.403 57.68C584.403 56.752 584.179 56 583.731 55.456C583.251 54.848 582.611 54.56 581.795 54.56ZM591.52 53.504C593.568 53.504 594.608 54.64 594.608 56.912V62H593.328V57.008C593.328 55.392 592.592 54.592 591.152 54.592C590.576 54.592 590.08 54.8 589.664 55.216C589.216 55.664 588.976 56.256 588.928 57.008V62H587.648V53.728H588.928V54.944C589.216 54.48 589.584 54.128 590.032 53.888C590.48 53.632 590.976 53.504 591.52 53.504ZM605.226 50.576H606.81V51.68H605.386C605.034 51.68 604.762 51.76 604.602 51.952C604.442 52.128 604.362 52.416 604.362 52.816V53.728H609.402V62H608.138V54.8H604.362V62H603.082V54.8H601.002V53.728H603.082V52.784C603.082 52.08 603.258 51.552 603.61 51.168C603.978 50.768 604.522 50.576 605.226 50.576ZM615.28 53.504C615.728 53.504 616.112 53.568 616.416 53.696V54.976C616 54.848 615.584 54.8 615.184 54.8C614.544 54.8 614 55.072 613.568 55.648C613.12 56.192 612.912 56.848 612.912 57.616V62H611.648V53.728H612.912V55.168C613.136 54.688 613.424 54.304 613.776 54.032C614.208 53.68 614.704 53.504 615.28 53.504ZM621.108 53.504C622.372 53.504 623.236 54.016 623.7 55.072C624.02 54.528 624.404 54.128 624.852 53.888C625.252 53.632 625.732 53.504 626.308 53.504C627.172 53.504 627.86 53.776 628.404 54.32C628.916 54.88 629.188 55.632 629.188 56.576V62H627.908V56.784C627.908 56.048 627.748 55.504 627.444 55.152C627.124 54.768 626.612 54.592 625.908 54.592C625.364 54.592 624.9 54.784 624.548 55.2C624.164 55.616 623.988 56.144 623.988 56.816V62H622.708V56.784C622.708 55.312 622.068 54.592 620.804 54.592C620.212 54.592 619.732 54.816 619.348 55.296C618.964 55.744 618.772 56.304 618.772 56.96V62H617.492V53.728H618.772V54.832C619.396 53.936 620.18 53.504 621.108 53.504ZM634.108 53.504C636.156 53.504 637.276 54.352 637.5 56.08H636.252C636.14 55.568 635.932 55.184 635.612 54.96C635.26 54.704 634.748 54.576 634.092 54.576C633.516 54.576 633.068 54.672 632.748 54.896C632.396 55.104 632.22 55.392 632.22 55.76C632.22 56.112 632.444 56.416 632.924 56.656C633.228 56.8 633.804 56.976 634.636 57.2C635.628 57.44 636.332 57.696 636.764 57.968C637.42 58.384 637.756 58.944 637.756 59.664C637.756 61.36 636.588 62.224 634.252 62.224C632.076 62.224 630.892 61.264 630.7 59.36H631.948C632.044 60.016 632.284 60.48 632.636 60.768C632.988 61.024 633.516 61.152 634.22 61.152C635.692 61.152 636.444 60.672 636.444 59.744C636.444 59.28 636.172 58.928 635.66 58.672C635.388 58.544 634.796 58.368 633.9 58.144C632.924 57.904 632.236 57.664 631.852 57.408C631.212 57.024 630.908 56.496 630.908 55.792C630.908 55.088 631.212 54.544 631.836 54.128C632.412 53.712 633.18 53.504 634.108 53.504ZM646.794 51.056V53.728H648.842V54.8H646.794V60.064C646.794 60.368 646.842 60.592 646.97 60.72C647.082 60.848 647.29 60.928 647.578 60.928H648.634V62H647.386C646.714 62 646.218 61.824 645.93 61.472C645.658 61.152 645.53 60.688 645.53 60.064V54.8H643.866V53.728H645.53V51.584L646.794 51.056ZM653.969 53.504C655.201 53.504 656.193 53.92 656.929 54.784C657.633 55.6 657.985 56.624 657.985 57.872C657.985 59.104 657.633 60.128 656.945 60.928C656.193 61.792 655.201 62.224 653.969 62.224C652.721 62.224 651.745 61.792 651.009 60.928C650.305 60.128 649.953 59.104 649.953 57.872C649.953 56.624 650.305 55.6 651.009 54.784C651.745 53.92 652.721 53.504 653.969 53.504ZM653.969 54.576C653.089 54.576 652.401 54.912 651.921 55.584C651.473 56.192 651.265 56.944 651.265 57.872C651.265 58.784 651.473 59.536 651.921 60.144C652.401 60.816 653.089 61.152 653.969 61.152C654.833 61.152 655.521 60.816 656.033 60.144C656.465 59.536 656.689 58.768 656.689 57.872C656.689 56.944 656.465 56.192 656.033 55.584C655.521 54.912 654.833 54.576 653.969 54.576ZM668.928 53.504C670.112 53.504 671.056 53.936 671.744 54.832C672.368 55.632 672.688 56.64 672.688 57.888C672.688 59.104 672.368 60.112 671.76 60.912C671.088 61.776 670.176 62.224 668.992 62.224C667.808 62.224 666.896 61.648 666.256 60.496V65.168H664.976V53.728H666.176V55.088C666.768 54.032 667.68 53.504 668.928 53.504ZM668.768 54.56C667.936 54.56 667.28 54.88 666.832 55.536C666.416 56.112 666.208 56.88 666.208 57.808V57.968C666.208 58.928 666.432 59.696 666.912 60.288C667.36 60.864 667.952 61.168 668.72 61.168C669.616 61.168 670.288 60.848 670.752 60.24C671.168 59.664 671.376 58.88 671.376 57.888C671.376 56.912 671.168 56.128 670.784 55.552C670.32 54.88 669.648 54.56 668.768 54.56ZM677.983 53.504C678.431 53.504 678.815 53.568 679.119 53.696V54.976C678.703 54.848 678.287 54.8 677.887 54.8C677.247 54.8 676.703 55.072 676.271 55.648C675.823 56.192 675.615 56.848 675.615 57.616V62H674.351V53.728H675.615V55.168C675.839 54.688 676.127 54.304 676.479 54.032C676.911 53.68 677.407 53.504 677.983 53.504ZM683.891 53.504C685.123 53.504 686.115 53.92 686.851 54.784C687.555 55.6 687.907 56.624 687.907 57.872C687.907 59.104 687.555 60.128 686.867 60.928C686.115 61.792 685.123 62.224 683.891 62.224C682.643 62.224 681.667 61.792 680.931 60.928C680.227 60.128 679.875 59.104 679.875 57.872C679.875 56.624 680.227 55.6 680.931 54.784C681.667 53.92 682.643 53.504 683.891 53.504ZM683.891 54.576C683.011 54.576 682.323 54.912 681.843 55.584C681.395 56.192 681.187 56.944 681.187 57.872C681.187 58.784 681.395 59.536 681.843 60.144C682.323 60.816 683.011 61.152 683.891 61.152C684.755 61.152 685.443 60.816 685.955 60.144C686.387 59.536 686.611 58.768 686.611 57.872C686.611 56.944 686.387 56.192 685.955 55.584C685.443 54.912 684.755 54.576 683.891 54.576ZM693.186 53.504C694.45 53.504 695.314 54.016 695.778 55.072C696.098 54.528 696.482 54.128 696.93 53.888C697.33 53.632 697.81 53.504 698.386 53.504C699.25 53.504 699.938 53.776 700.482 54.32C700.994 54.88 701.266 55.632 701.266 56.576V62H699.986V56.784C699.986 56.048 699.826 55.504 699.522 55.152C699.202 54.768 698.69 54.592 697.986 54.592C697.442 54.592 696.978 54.784 696.626 55.2C696.242 55.616 696.066 56.144 696.066 56.816V62H694.786V56.784C694.786 55.312 694.146 54.592 692.882 54.592C692.29 54.592 691.81 54.816 691.426 55.296C691.042 55.744 690.85 56.304 690.85 56.96V62H689.57V53.728H690.85V54.832C691.474 53.936 692.258 53.504 693.186 53.504ZM706.954 53.504C708.186 53.504 709.178 53.92 709.914 54.784C710.618 55.6 710.97 56.624 710.97 57.872C710.97 59.104 710.618 60.128 709.93 60.928C709.178 61.792 708.186 62.224 706.954 62.224C705.706 62.224 704.73 61.792 703.994 60.928C703.29 60.128 702.938 59.104 702.938 57.872C702.938 56.624 703.29 55.6 703.994 54.784C704.73 53.92 705.706 53.504 706.954 53.504ZM706.954 54.576C706.074 54.576 705.386 54.912 704.906 55.584C704.458 56.192 704.25 56.944 704.25 57.872C704.25 58.784 704.458 59.536 704.906 60.144C705.386 60.816 706.074 61.152 706.954 61.152C707.818 61.152 708.506 60.816 709.018 60.144C709.45 59.536 709.674 58.768 709.674 57.872C709.674 56.944 709.45 56.192 709.018 55.584C708.506 54.912 707.818 54.576 706.954 54.576ZM714.841 51.056V53.728H716.889V54.8H714.841V60.064C714.841 60.368 714.889 60.592 715.017 60.72C715.129 60.848 715.337 60.928 715.625 60.928H716.681V62H715.433C714.761 62 714.265 61.824 713.977 61.472C713.705 61.152 713.577 60.688 713.577 60.064V54.8H711.913V53.728H713.577V51.584L714.841 51.056ZM721.728 53.504C723.056 53.504 724.064 53.952 724.736 54.848C725.344 55.648 725.664 56.784 725.696 58.224H719.168C719.232 59.152 719.472 59.872 719.92 60.384C720.368 60.896 720.992 61.152 721.776 61.152C722.448 61.152 723.008 60.976 723.424 60.64C723.776 60.352 724.048 59.92 724.256 59.344H725.536C725.344 60.144 724.976 60.784 724.416 61.296C723.728 61.904 722.848 62.224 721.776 62.224C720.592 62.224 719.632 61.824 718.928 61.056C718.192 60.256 717.84 59.2 717.84 57.856C717.84 56.64 718.176 55.616 718.88 54.8C719.584 53.936 720.528 53.504 721.728 53.504ZM721.76 54.576C721.024 54.576 720.432 54.816 719.984 55.296C719.536 55.776 719.28 56.416 719.2 57.232H724.368C724.208 55.456 723.328 54.576 721.76 54.576ZM735.451 53.504C737.499 53.504 738.619 54.352 738.843 56.08H737.595C737.483 55.568 737.275 55.184 736.955 54.96C736.603 54.704 736.091 54.576 735.435 54.576C734.859 54.576 734.411 54.672 734.091 54.896C733.739 55.104 733.563 55.392 733.563 55.76C733.563 56.112 733.787 56.416 734.267 56.656C734.571 56.8 735.147 56.976 735.979 57.2C736.971 57.44 737.675 57.696 738.107 57.968C738.763 58.384 739.099 58.944 739.099 59.664C739.099 61.36 737.931 62.224 735.595 62.224C733.419 62.224 732.235 61.264 732.043 59.36H733.291C733.387 60.016 733.627 60.48 733.979 60.768C734.331 61.024 734.859 61.152 735.563 61.152C737.035 61.152 737.787 60.672 737.787 59.744C737.787 59.28 737.515 58.928 737.003 58.672C736.731 58.544 736.139 58.368 735.243 58.144C734.267 57.904 733.579 57.664 733.195 57.408C732.555 57.024 732.251 56.496 732.251 55.792C732.251 55.088 732.555 54.544 733.179 54.128C733.755 53.712 734.523 53.504 735.451 53.504ZM742.809 51.056V53.728H744.857V54.8H742.809V60.064C742.809 60.368 742.857 60.592 742.985 60.72C743.097 60.848 743.305 60.928 743.593 60.928H744.649V62H743.401C742.729 62 742.233 61.824 741.945 61.472C741.673 61.152 741.545 60.688 741.545 60.064V54.8H739.881V53.728H741.545V51.584L742.809 51.056ZM749.889 53.504C751.073 53.504 751.937 53.808 752.513 54.432C752.993 54.976 753.249 55.728 753.249 56.688V62H752.049V60.608C751.729 61.056 751.297 61.424 750.785 61.712C750.177 62.048 749.489 62.224 748.721 62.224C747.889 62.224 747.233 62.016 746.737 61.6C746.225 61.168 745.969 60.608 745.969 59.936C745.969 58.992 746.337 58.288 747.105 57.808C747.777 57.36 748.737 57.12 749.985 57.104L751.969 57.072V56.64C751.969 55.248 751.249 54.56 749.809 54.56C749.201 54.56 748.705 54.672 748.321 54.928C747.889 55.184 747.617 55.584 747.489 56.112L746.225 56.016C746.401 55.152 746.833 54.496 747.505 54.08C748.113 53.696 748.897 53.504 749.889 53.504ZM751.969 58.032L750.065 58.064C748.209 58.096 747.281 58.704 747.281 59.904C747.281 60.288 747.425 60.592 747.745 60.848C748.065 61.088 748.481 61.216 748.993 61.216C749.777 61.216 750.465 60.96 751.073 60.448C751.665 59.952 751.969 59.376 751.969 58.736V58.032ZM759.098 53.504C761.146 53.504 762.186 54.64 762.186 56.912V62H760.906V57.008C760.906 55.392 760.17 54.592 758.73 54.592C758.154 54.592 757.658 54.8 757.242 55.216C756.794 55.664 756.554 56.256 756.506 57.008V62H755.226V53.728H756.506V54.944C756.794 54.48 757.162 54.128 757.61 53.888C758.058 53.632 758.554 53.504 759.098 53.504ZM770.276 50.352H771.556V62H770.356V60.64C769.78 61.696 768.852 62.224 767.604 62.224C766.388 62.224 765.444 61.776 764.772 60.912C764.148 60.112 763.844 59.088 763.844 57.84C763.844 56.624 764.148 55.632 764.772 54.832C765.444 53.936 766.356 53.504 767.54 53.504C768.724 53.504 769.636 54.08 770.276 55.248V50.352ZM767.812 54.56C766.9 54.56 766.212 54.88 765.764 55.52C765.348 56.08 765.156 56.848 765.156 57.84C765.156 58.832 765.348 59.616 765.748 60.192C766.196 60.832 766.868 61.168 767.764 61.168C768.596 61.168 769.236 60.848 769.7 60.208C770.1 59.632 770.308 58.88 770.308 57.952V57.792C770.308 56.832 770.068 56.048 769.62 55.456C769.156 54.848 768.548 54.56 767.812 54.56ZM777.139 53.504C778.323 53.504 779.187 53.808 779.763 54.432C780.243 54.976 780.499 55.728 780.499 56.688V62H779.299V60.608C778.979 61.056 778.547 61.424 778.035 61.712C777.427 62.048 776.739 62.224 775.971 62.224C775.139 62.224 774.483 62.016 773.987 61.6C773.475 61.168 773.219 60.608 773.219 59.936C773.219 58.992 773.587 58.288 774.355 57.808C775.027 57.36 775.987 57.12 777.235 57.104L779.219 57.072V56.64C779.219 55.248 778.499 54.56 777.059 54.56C776.451 54.56 775.955 54.672 775.571 54.928C775.139 55.184 774.867 55.584 774.739 56.112L773.475 56.016C773.651 55.152 774.083 54.496 774.755 54.08C775.363 53.696 776.147 53.504 777.139 53.504ZM779.219 58.032L777.315 58.064C775.459 58.096 774.531 58.704 774.531 59.904C774.531 60.288 774.675 60.592 774.995 60.848C775.315 61.088 775.731 61.216 776.243 61.216C777.027 61.216 777.715 60.96 778.323 60.448C778.915 59.952 779.219 59.376 779.219 58.736V58.032ZM786.108 53.504C786.556 53.504 786.94 53.568 787.244 53.696V54.976C786.828 54.848 786.412 54.8 786.012 54.8C785.372 54.8 784.828 55.072 784.396 55.648C783.948 56.192 783.74 56.848 783.74 57.616V62H782.476V53.728H783.74V55.168C783.964 54.688 784.252 54.304 784.604 54.032C785.036 53.68 785.532 53.504 786.108 53.504ZM794.432 50.352H795.712V62H794.512V60.64C793.936 61.696 793.008 62.224 791.76 62.224C790.544 62.224 789.6 61.776 788.928 60.912C788.304 60.112 788 59.088 788 57.84C788 56.624 788.304 55.632 788.928 54.832C789.6 53.936 790.512 53.504 791.696 53.504C792.88 53.504 793.792 54.08 794.432 55.248V50.352ZM791.968 54.56C791.056 54.56 790.368 54.88 789.92 55.52C789.504 56.08 789.312 56.848 789.312 57.84C789.312 58.832 789.504 59.616 789.904 60.192C790.352 60.832 791.024 61.168 791.92 61.168C792.752 61.168 793.392 60.848 793.856 60.208C794.256 59.632 794.464 58.88 794.464 57.952V57.792C794.464 56.832 794.224 56.048 793.776 55.456C793.312 54.848 792.704 54.56 791.968 54.56ZM798.751 50.608C799.023 50.608 799.247 50.688 799.439 50.88C799.631 51.04 799.727 51.264 799.727 51.552C799.727 51.824 799.631 52.048 799.439 52.24C799.247 52.416 799.023 52.512 798.751 52.512C798.479 52.512 798.255 52.416 798.063 52.24C797.871 52.048 797.791 51.824 797.791 51.552C797.791 51.264 797.871 51.04 798.063 50.88C798.255 50.688 798.479 50.608 798.751 50.608ZM798.111 53.728H799.391V62H798.111V53.728ZM801.357 53.728H807.933V54.624L802.861 60.928H808.189V62H801.197V61.072L806.253 54.8H801.357V53.728ZM812.994 53.504C814.322 53.504 815.33 53.952 816.002 54.848C816.61 55.648 816.93 56.784 816.962 58.224H810.434C810.498 59.152 810.738 59.872 811.186 60.384C811.634 60.896 812.258 61.152 813.042 61.152C813.714 61.152 814.274 60.976 814.69 60.64C815.042 60.352 815.314 59.92 815.522 59.344H816.802C816.61 60.144 816.242 60.784 815.682 61.296C814.994 61.904 814.114 62.224 813.042 62.224C811.858 62.224 810.898 61.824 810.194 61.056C809.458 60.256 809.106 59.2 809.106 57.856C809.106 56.64 809.442 55.616 810.146 54.8C810.85 53.936 811.794 53.504 812.994 53.504ZM813.026 54.576C812.29 54.576 811.698 54.816 811.25 55.296C810.802 55.776 810.546 56.416 810.466 57.232H815.634C815.474 55.456 814.594 54.576 813.026 54.576ZM824.573 50.352H825.853V62H824.653V60.64C824.077 61.696 823.149 62.224 821.901 62.224C820.685 62.224 819.741 61.776 819.069 60.912C818.445 60.112 818.141 59.088 818.141 57.84C818.141 56.624 818.445 55.632 819.069 54.832C819.741 53.936 820.653 53.504 821.837 53.504C823.021 53.504 823.933 54.08 824.573 55.248V50.352ZM822.109 54.56C821.197 54.56 820.509 54.88 820.061 55.52C819.645 56.08 819.453 56.848 819.453 57.84C819.453 58.832 819.645 59.616 820.045 60.192C820.493 60.832 821.165 61.168 822.061 61.168C822.893 61.168 823.533 60.848 823.997 60.208C824.397 59.632 824.605 58.88 824.605 57.952V57.792C824.605 56.832 824.365 56.048 823.917 55.456C823.453 54.848 822.845 54.56 822.109 54.56ZM832.252 53.728H833.66L836.028 60.4L838.396 53.728H839.804L836.668 62H835.372L832.252 53.728ZM844.291 53.504C845.619 53.504 846.627 53.952 847.299 54.848C847.907 55.648 848.227 56.784 848.259 58.224H841.731C841.795 59.152 842.035 59.872 842.483 60.384C842.931 60.896 843.555 61.152 844.339 61.152C845.011 61.152 845.571 60.976 845.987 60.64C846.339 60.352 846.611 59.92 846.819 59.344H848.099C847.907 60.144 847.539 60.784 846.979 61.296C846.291 61.904 845.411 62.224 844.339 62.224C843.155 62.224 842.195 61.824 841.491 61.056C840.755 60.256 840.403 59.2 840.403 57.856C840.403 56.64 840.739 55.616 841.443 54.8C842.147 53.936 843.091 53.504 844.291 53.504ZM844.323 54.576C843.587 54.576 842.995 54.816 842.547 55.296C842.099 55.776 841.843 56.416 841.763 57.232H846.931C846.771 55.456 845.891 54.576 844.323 54.576ZM852.686 53.504C854.734 53.504 855.854 54.352 856.078 56.08H854.83C854.718 55.568 854.51 55.184 854.19 54.96C853.838 54.704 853.326 54.576 852.67 54.576C852.094 54.576 851.646 54.672 851.326 54.896C850.974 55.104 850.798 55.392 850.798 55.76C850.798 56.112 851.022 56.416 851.502 56.656C851.806 56.8 852.382 56.976 853.214 57.2C854.206 57.44 854.91 57.696 855.342 57.968C855.998 58.384 856.334 58.944 856.334 59.664C856.334 61.36 855.166 62.224 852.83 62.224C850.654 62.224 849.47 61.264 849.278 59.36H850.526C850.622 60.016 850.862 60.48 851.214 60.768C851.566 61.024 852.094 61.152 852.798 61.152C854.27 61.152 855.022 60.672 855.022 59.744C855.022 59.28 854.75 58.928 854.238 58.672C853.966 58.544 853.374 58.368 852.478 58.144C851.502 57.904 850.814 57.664 850.43 57.408C849.79 57.024 849.486 56.496 849.486 55.792C849.486 55.088 849.79 54.544 850.414 54.128C850.99 53.712 851.758 53.504 852.686 53.504ZM860.764 53.504C862.812 53.504 863.932 54.352 864.156 56.08H862.908C862.796 55.568 862.588 55.184 862.268 54.96C861.916 54.704 861.404 54.576 860.748 54.576C860.172 54.576 859.724 54.672 859.404 54.896C859.052 55.104 858.876 55.392 858.876 55.76C858.876 56.112 859.1 56.416 859.58 56.656C859.884 56.8 860.46 56.976 861.292 57.2C862.284 57.44 862.988 57.696 863.42 57.968C864.076 58.384 864.412 58.944 864.412 59.664C864.412 61.36 863.244 62.224 860.908 62.224C858.732 62.224 857.548 61.264 857.356 59.36H858.604C858.7 60.016 858.94 60.48 859.292 60.768C859.644 61.024 860.172 61.152 860.876 61.152C862.348 61.152 863.1 60.672 863.1 59.744C863.1 59.28 862.828 58.928 862.316 58.672C862.044 58.544 861.452 58.368 860.556 58.144C859.58 57.904 858.892 57.664 858.508 57.408C857.868 57.024 857.564 56.496 857.564 55.792C857.564 55.088 857.868 54.544 858.492 54.128C859.068 53.712 859.836 53.504 860.764 53.504ZM869.322 53.504C870.65 53.504 871.658 53.952 872.33 54.848C872.938 55.648 873.258 56.784 873.29 58.224H866.762C866.826 59.152 867.066 59.872 867.514 60.384C867.962 60.896 868.586 61.152 869.37 61.152C870.042 61.152 870.602 60.976 871.018 60.64C871.37 60.352 871.642 59.92 871.85 59.344H873.13C872.938 60.144 872.57 60.784 872.01 61.296C871.322 61.904 870.442 62.224 869.37 62.224C868.186 62.224 867.226 61.824 866.522 61.056C865.786 60.256 865.434 59.2 865.434 57.856C865.434 56.64 865.77 55.616 866.474 54.8C867.178 53.936 868.122 53.504 869.322 53.504ZM869.354 54.576C868.618 54.576 868.026 54.816 867.578 55.296C867.13 55.776 866.874 56.416 866.794 57.232H871.962C871.802 55.456 870.922 54.576 869.354 54.576ZM875.045 50.352H876.309V62H875.045V50.352ZM889.995 50.352H891.275V62H890.075V60.64C889.499 61.696 888.571 62.224 887.323 62.224C886.107 62.224 885.163 61.776 884.491 60.912C883.867 60.112 883.563 59.088 883.563 57.84C883.563 56.624 883.867 55.632 884.491 54.832C885.163 53.936 886.075 53.504 887.259 53.504C888.443 53.504 889.355 54.08 889.995 55.248V50.352ZM887.531 54.56C886.619 54.56 885.931 54.88 885.483 55.52C885.067 56.08 884.875 56.848 884.875 57.84C884.875 58.832 885.067 59.616 885.467 60.192C885.915 60.832 886.587 61.168 887.483 61.168C888.315 61.168 888.955 60.848 889.419 60.208C889.819 59.632 890.027 58.88 890.027 57.952V57.792C890.027 56.832 889.787 56.048 889.339 55.456C888.875 54.848 888.267 54.56 887.531 54.56ZM896.666 53.504C897.994 53.504 899.002 53.952 899.674 54.848C900.282 55.648 900.602 56.784 900.634 58.224H894.106C894.17 59.152 894.41 59.872 894.858 60.384C895.306 60.896 895.93 61.152 896.714 61.152C897.386 61.152 897.946 60.976 898.362 60.64C898.714 60.352 898.986 59.92 899.194 59.344H900.474C900.282 60.144 899.914 60.784 899.354 61.296C898.666 61.904 897.786 62.224 896.714 62.224C895.53 62.224 894.57 61.824 893.866 61.056C893.13 60.256 892.778 59.2 892.778 57.856C892.778 56.64 893.114 55.616 893.818 54.8C894.522 53.936 895.466 53.504 896.666 53.504ZM896.698 54.576C895.962 54.576 895.37 54.816 894.922 55.296C894.474 55.776 894.218 56.416 894.138 57.232H899.306C899.146 55.456 898.266 54.576 896.698 54.576ZM905.061 53.504C907.109 53.504 908.229 54.352 908.453 56.08H907.205C907.093 55.568 906.885 55.184 906.565 54.96C906.213 54.704 905.701 54.576 905.045 54.576C904.469 54.576 904.021 54.672 903.701 54.896C903.349 55.104 903.173 55.392 903.173 55.76C903.173 56.112 903.397 56.416 903.877 56.656C904.181 56.8 904.757 56.976 905.589 57.2C906.581 57.44 907.285 57.696 907.717 57.968C908.373 58.384 908.709 58.944 908.709 59.664C908.709 61.36 907.541 62.224 905.205 62.224C903.029 62.224 901.845 61.264 901.653 59.36H902.901C902.997 60.016 903.237 60.48 903.589 60.768C903.941 61.024 904.469 61.152 905.173 61.152C906.645 61.152 907.397 60.672 907.397 59.744C907.397 59.28 907.125 58.928 906.613 58.672C906.341 58.544 905.749 58.368 904.853 58.144C903.877 57.904 903.189 57.664 902.805 57.408C902.165 57.024 901.861 56.496 901.861 55.792C901.861 55.088 902.165 54.544 902.789 54.128C903.365 53.712 904.133 53.504 905.061 53.504ZM911.267 50.608C911.539 50.608 911.763 50.688 911.955 50.88C912.147 51.04 912.243 51.264 912.243 51.552C912.243 51.824 912.147 52.048 911.955 52.24C911.763 52.416 911.539 52.512 911.267 52.512C910.995 52.512 910.771 52.416 910.579 52.24C910.387 52.048 910.307 51.824 910.307 51.552C910.307 51.264 910.387 51.04 910.579 50.88C910.771 50.688 910.995 50.608 911.267 50.608ZM910.627 53.728H911.907V62H910.627V53.728ZM917.713 53.504C918.961 53.504 919.889 54.048 920.497 55.152V53.728H921.777V61.424C921.777 64.064 920.513 65.392 918.001 65.392C916.881 65.392 916.017 65.168 915.441 64.72C914.849 64.272 914.481 63.6 914.337 62.704H915.617C915.713 63.264 915.953 63.68 916.321 63.936C916.689 64.208 917.249 64.352 918.001 64.352C919.665 64.352 920.497 63.424 920.497 61.6V60.144C919.889 61.248 918.961 61.808 917.713 61.808C916.561 61.808 915.649 61.408 914.977 60.624C914.305 59.856 913.985 58.88 913.985 57.68C913.985 56.464 914.305 55.488 914.977 54.72C915.649 53.904 916.561 53.504 917.713 53.504ZM917.905 54.56C917.073 54.56 916.433 54.848 915.969 55.456C915.521 56 915.297 56.752 915.297 57.68C915.297 58.544 915.489 59.264 915.889 59.808C916.337 60.416 916.993 60.736 917.889 60.736C918.721 60.736 919.361 60.448 919.841 59.872C920.289 59.312 920.513 58.576 920.513 57.68C920.513 56.752 920.289 56 919.841 55.456C919.361 54.848 918.721 54.56 917.905 54.56ZM927.63 53.504C929.678 53.504 930.718 54.64 930.718 56.912V62H929.438V57.008C929.438 55.392 928.702 54.592 927.262 54.592C926.686 54.592 926.19 54.8 925.774 55.216C925.326 55.664 925.086 56.256 925.038 57.008V62H923.758V53.728H925.038V54.944C925.326 54.48 925.694 54.128 926.142 53.888C926.59 53.632 927.086 53.504 927.63 53.504ZM935.623 53.504C937.671 53.504 938.791 54.352 939.015 56.08H937.767C937.655 55.568 937.447 55.184 937.127 54.96C936.775 54.704 936.263 54.576 935.607 54.576C935.031 54.576 934.583 54.672 934.263 54.896C933.911 55.104 933.735 55.392 933.735 55.76C933.735 56.112 933.959 56.416 934.439 56.656C934.743 56.8 935.319 56.976 936.151 57.2C937.143 57.44 937.847 57.696 938.279 57.968C938.935 58.384 939.271 58.944 939.271 59.664C939.271 61.36 938.103 62.224 935.767 62.224C933.591 62.224 932.407 61.264 932.215 59.36H933.463C933.559 60.016 933.799 60.48 934.151 60.768C934.503 61.024 935.031 61.152 935.735 61.152C937.207 61.152 937.959 60.672 937.959 59.744C937.959 59.28 937.687 58.928 937.175 58.672C936.903 58.544 936.311 58.368 935.415 58.144C934.439 57.904 933.751 57.664 933.367 57.408C932.727 57.024 932.423 56.496 932.423 55.792C932.423 55.088 932.727 54.544 933.351 54.128C933.927 53.712 934.695 53.504 935.623 53.504ZM941.893 60.096C942.149 60.096 942.389 60.192 942.581 60.384C942.773 60.576 942.869 60.8 942.869 61.088C942.869 61.36 942.773 61.584 942.581 61.776C942.389 61.968 942.149 62.064 941.893 62.064C941.605 62.064 941.381 61.968 941.205 61.776C941.013 61.584 940.917 61.36 940.917 61.088C940.917 60.8 941.013 60.576 941.205 60.384C941.381 60.192 941.605 60.096 941.893 60.096Z" fill="white" fill-opacity="0.5"/>
</svg>
