<svg width="457" height="44" viewBox="0 0 457 44" fill="none" xmlns="http://www.w3.org/2000/svg">
<path d="M1.152 5.576H5.248C7.056 5.576 8.416 6.088 9.344 7.144C10.192 8.104 10.624 9.496 10.624 11.288C10.624 13.048 10.16 14.44 9.248 15.432C8.288 16.472 6.912 17 5.12 17H1.152V5.576ZM2.464 6.712V15.864H4.896C6.384 15.864 7.504 15.464 8.256 14.68C8.96 13.912 9.328 12.776 9.328 11.288C9.328 9.752 8.992 8.616 8.336 7.88C7.632 7.096 6.544 6.712 5.04 6.712H2.464ZM15.6969 8.504C17.0249 8.504 18.0329 8.952 18.7049 9.848C19.3129 10.648 19.6329 11.784 19.6649 13.224H13.1369C13.2009 14.152 13.4409 14.872 13.8889 15.384C14.3369 15.896 14.9609 16.152 15.7449 16.152C16.4169 16.152 16.9769 15.976 17.3929 15.64C17.7449 15.352 18.0169 14.92 18.2249 14.344H19.5049C19.3129 15.144 18.9449 15.784 18.3849 16.296C17.6969 16.904 16.8169 17.224 15.7449 17.224C14.5609 17.224 13.6009 16.824 12.8969 16.056C12.1609 15.256 11.8089 14.2 11.8089 12.856C11.8089 11.64 12.1449 10.616 12.8489 9.8C13.5529 8.936 14.4969 8.504 15.6969 8.504ZM15.7289 9.576C14.9929 9.576 14.4009 9.816 13.9529 10.296C13.5049 10.776 13.2489 11.416 13.1689 12.232H18.3369C18.1769 10.456 17.2969 9.576 15.7289 9.576ZM24.5719 8.504C25.8999 8.504 26.9079 8.952 27.5799 9.848C28.1879 10.648 28.5079 11.784 28.5399 13.224H22.0119C22.0759 14.152 22.3159 14.872 22.7639 15.384C23.2119 15.896 23.8359 16.152 24.6199 16.152C25.2919 16.152 25.8519 15.976 26.2679 15.64C26.6199 15.352 26.8919 14.92 27.0999 14.344H28.3799C28.1879 15.144 27.8199 15.784 27.2599 16.296C26.5719 16.904 25.6919 17.224 24.6199 17.224C23.4359 17.224 22.4759 16.824 21.7719 16.056C21.0359 15.256 20.6839 14.2 20.6839 12.856C20.6839 11.64 21.0199 10.616 21.7239 9.8C22.4279 8.936 23.3719 8.504 24.5719 8.504ZM24.6039 9.576C23.8679 9.576 23.2759 9.816 22.8279 10.296C22.3799 10.776 22.1239 11.416 22.0439 12.232H27.2119C27.0519 10.456 26.1719 9.576 24.6039 9.576ZM33.9909 8.504C35.1749 8.504 36.1189 8.936 36.8069 9.832C37.4309 10.632 37.7509 11.64 37.7509 12.888C37.7509 14.104 37.4309 15.112 36.8229 15.912C36.1509 16.776 35.2389 17.224 34.0549 17.224C32.8709 17.224 31.9589 16.648 31.3189 15.496V20.168H30.0389V8.728H31.2389V10.088C31.8309 9.032 32.7429 8.504 33.9909 8.504ZM33.8309 9.56C32.9989 9.56 32.3429 9.88 31.8949 10.536C31.4789 11.112 31.2709 11.88 31.2709 12.808V12.968C31.2709 13.928 31.4949 14.696 31.9749 15.288C32.4229 15.864 33.0149 16.168 33.7829 16.168C34.6789 16.168 35.3509 15.848 35.8149 15.24C36.2309 14.664 36.4389 13.88 36.4389 12.888C36.4389 11.912 36.2309 11.128 35.8469 10.552C35.3829 9.88 34.7109 9.56 33.8309 9.56ZM44.742 8.728H46.022V13.784C46.022 14.568 46.182 15.16 46.518 15.544C46.854 15.928 47.398 16.136 48.15 16.136C48.694 16.136 49.19 15.912 49.622 15.496C50.07 15.048 50.342 14.472 50.438 13.768V8.728H51.718V17H50.438V15.72C49.766 16.712 48.87 17.224 47.75 17.224C45.734 17.224 44.742 16.088 44.742 13.848V8.728ZM57.5671 8.504C59.6151 8.504 60.6551 9.64 60.6551 11.912V17H59.3751V12.008C59.3751 10.392 58.6391 9.592 57.1991 9.592C56.6231 9.592 56.1271 9.8 55.7111 10.216C55.2631 10.664 55.0231 11.256 54.9751 12.008V17H53.6951V8.728H54.9751V9.944C55.2631 9.48 55.6311 9.128 56.0791 8.888C56.5271 8.632 57.0231 8.504 57.5671 8.504ZM68.7446 5.352H70.0246V17H68.8246V15.64C68.2486 16.696 67.3206 17.224 66.0726 17.224C64.8566 17.224 63.9126 16.776 63.2406 15.912C62.6166 15.112 62.3126 14.088 62.3126 12.84C62.3126 11.624 62.6166 10.632 63.2406 9.832C63.9126 8.936 64.8246 8.504 66.0086 8.504C67.1926 8.504 68.1046 9.08 68.7446 10.248V5.352ZM66.2806 9.56C65.3686 9.56 64.6806 9.88 64.2326 10.52C63.8166 11.08 63.6246 11.848 63.6246 12.84C63.6246 13.832 63.8166 14.616 64.2166 15.192C64.6646 15.832 65.3366 16.168 66.2326 16.168C67.0646 16.168 67.7046 15.848 68.1686 15.208C68.5686 14.632 68.7766 13.88 68.7766 12.952V12.792C68.7766 11.832 68.5366 11.048 68.0886 10.456C67.6246 9.848 67.0166 9.56 66.2806 9.56ZM75.4156 8.504C76.7436 8.504 77.7516 8.952 78.4236 9.848C79.0316 10.648 79.3516 11.784 79.3836 13.224H72.8556C72.9196 14.152 73.1596 14.872 73.6076 15.384C74.0556 15.896 74.6796 16.152 75.4636 16.152C76.1356 16.152 76.6956 15.976 77.1116 15.64C77.4636 15.352 77.7356 14.92 77.9436 14.344H79.2236C79.0316 15.144 78.6636 15.784 78.1036 16.296C77.4156 16.904 76.5356 17.224 75.4636 17.224C74.2796 17.224 73.3196 16.824 72.6156 16.056C71.8796 15.256 71.5276 14.2 71.5276 12.856C71.5276 11.64 71.8636 10.616 72.5676 9.8C73.2716 8.936 74.2156 8.504 75.4156 8.504ZM75.4476 9.576C74.7116 9.576 74.1196 9.816 73.6716 10.296C73.2236 10.776 72.9676 11.416 72.8876 12.232H78.0556C77.8956 10.456 77.0156 9.576 75.4476 9.576ZM84.5146 8.504C84.9626 8.504 85.3466 8.568 85.6506 8.696V9.976C85.2346 9.848 84.8186 9.8 84.4186 9.8C83.7786 9.8 83.2346 10.072 82.8026 10.648C82.3546 11.192 82.1466 11.848 82.1466 12.616V17H80.8826V8.728H82.1466V10.168C82.3706 9.688 82.6586 9.304 83.0106 9.032C83.4426 8.68 83.9386 8.504 84.5146 8.504ZM89.6544 8.504C91.7024 8.504 92.8224 9.352 93.0464 11.08H91.7984C91.6864 10.568 91.4784 10.184 91.1584 9.96C90.8064 9.704 90.2944 9.576 89.6384 9.576C89.0624 9.576 88.6144 9.672 88.2944 9.896C87.9424 10.104 87.7664 10.392 87.7664 10.76C87.7664 11.112 87.9904 11.416 88.4704 11.656C88.7744 11.8 89.3504 11.976 90.1824 12.2C91.1744 12.44 91.8784 12.696 92.3104 12.968C92.9664 13.384 93.3024 13.944 93.3024 14.664C93.3024 16.36 92.1344 17.224 89.7984 17.224C87.6224 17.224 86.4384 16.264 86.2464 14.36H87.4944C87.5904 15.016 87.8304 15.48 88.1824 15.768C88.5344 16.024 89.0624 16.152 89.7664 16.152C91.2384 16.152 91.9904 15.672 91.9904 14.744C91.9904 14.28 91.7184 13.928 91.2064 13.672C90.9344 13.544 90.3424 13.368 89.4464 13.144C88.4704 12.904 87.7824 12.664 87.3984 12.408C86.7584 12.024 86.4544 11.496 86.4544 10.792C86.4544 10.088 86.7584 9.544 87.3824 9.128C87.9584 8.712 88.7264 8.504 89.6544 8.504ZM97.0125 6.056V8.728H99.0605V9.8H97.0125V15.064C97.0125 15.368 97.0605 15.592 97.1885 15.72C97.3005 15.848 97.5085 15.928 97.7965 15.928H98.8525V17H97.6045C96.9325 17 96.4365 16.824 96.1485 16.472C95.8765 16.152 95.7485 15.688 95.7485 15.064V9.8H94.0845V8.728H95.7485V6.584L97.0125 6.056ZM104.092 8.504C105.276 8.504 106.14 8.808 106.716 9.432C107.196 9.976 107.452 10.728 107.452 11.688V17H106.252V15.608C105.932 16.056 105.5 16.424 104.988 16.712C104.38 17.048 103.692 17.224 102.924 17.224C102.092 17.224 101.436 17.016 100.94 16.6C100.428 16.168 100.172 15.608 100.172 14.936C100.172 13.992 100.54 13.288 101.308 12.808C101.98 12.36 102.94 12.12 104.188 12.104L106.172 12.072V11.64C106.172 10.248 105.452 9.56 104.012 9.56C103.404 9.56 102.908 9.672 102.524 9.928C102.092 10.184 101.82 10.584 101.692 11.112L100.428 11.016C100.604 10.152 101.036 9.496 101.708 9.08C102.316 8.696 103.1 8.504 104.092 8.504ZM106.172 13.032L104.268 13.064C102.412 13.096 101.484 13.704 101.484 14.904C101.484 15.288 101.628 15.592 101.948 15.848C102.268 16.088 102.684 16.216 103.196 16.216C103.98 16.216 104.668 15.96 105.276 15.448C105.868 14.952 106.172 14.376 106.172 13.736V13.032ZM113.302 8.504C115.35 8.504 116.39 9.64 116.39 11.912V17H115.11V12.008C115.11 10.392 114.374 9.592 112.934 9.592C112.358 9.592 111.862 9.8 111.446 10.216C110.998 10.664 110.758 11.256 110.71 12.008V17H109.43V8.728H110.71V9.944C110.998 9.48 111.366 9.128 111.814 8.888C112.262 8.632 112.758 8.504 113.302 8.504ZM124.479 5.352H125.759V17H124.559V15.64C123.983 16.696 123.055 17.224 121.807 17.224C120.591 17.224 119.647 16.776 118.975 15.912C118.351 15.112 118.047 14.088 118.047 12.84C118.047 11.624 118.351 10.632 118.975 9.832C119.647 8.936 120.559 8.504 121.743 8.504C122.927 8.504 123.839 9.08 124.479 10.248V5.352ZM122.015 9.56C121.103 9.56 120.415 9.88 119.967 10.52C119.551 11.08 119.359 11.848 119.359 12.84C119.359 13.832 119.551 14.616 119.951 15.192C120.399 15.832 121.071 16.168 121.967 16.168C122.799 16.168 123.439 15.848 123.903 15.208C124.303 14.632 124.511 13.88 124.511 12.952V12.792C124.511 11.832 124.271 11.048 123.823 10.456C123.359 9.848 122.751 9.56 122.015 9.56ZM128.798 5.608C129.07 5.608 129.294 5.688 129.486 5.88C129.678 6.04 129.774 6.264 129.774 6.552C129.774 6.824 129.678 7.048 129.486 7.24C129.294 7.416 129.07 7.512 128.798 7.512C128.526 7.512 128.302 7.416 128.11 7.24C127.918 7.048 127.838 6.824 127.838 6.552C127.838 6.264 127.918 6.04 128.11 5.88C128.302 5.688 128.526 5.608 128.798 5.608ZM128.158 8.728H129.438V17H128.158V8.728ZM135.708 8.504C137.756 8.504 138.796 9.64 138.796 11.912V17H137.516V12.008C137.516 10.392 136.78 9.592 135.34 9.592C134.764 9.592 134.268 9.8 133.852 10.216C133.404 10.664 133.164 11.256 133.116 12.008V17H131.836V8.728H133.116V9.944C133.404 9.48 133.772 9.128 134.22 8.888C134.668 8.632 135.164 8.504 135.708 8.504ZM144.181 8.504C145.429 8.504 146.357 9.048 146.965 10.152V8.728H148.245V16.424C148.245 19.064 146.981 20.392 144.469 20.392C143.349 20.392 142.485 20.168 141.909 19.72C141.317 19.272 140.949 18.6 140.805 17.704H142.085C142.181 18.264 142.421 18.68 142.789 18.936C143.157 19.208 143.717 19.352 144.469 19.352C146.133 19.352 146.965 18.424 146.965 16.6V15.144C146.357 16.248 145.429 16.808 144.181 16.808C143.029 16.808 142.117 16.408 141.445 15.624C140.773 14.856 140.453 13.88 140.453 12.68C140.453 11.464 140.773 10.488 141.445 9.72C142.117 8.904 143.029 8.504 144.181 8.504ZM144.373 9.56C143.541 9.56 142.901 9.848 142.437 10.456C141.989 11 141.765 11.752 141.765 12.68C141.765 13.544 141.957 14.264 142.357 14.808C142.805 15.416 143.461 15.736 144.357 15.736C145.189 15.736 145.829 15.448 146.309 14.872C146.757 14.312 146.981 13.576 146.981 12.68C146.981 11.752 146.757 11 146.309 10.456C145.829 9.848 145.189 9.56 144.373 9.56ZM159.251 8.504C160.483 8.504 161.475 8.92 162.211 9.784C162.915 10.6 163.267 11.624 163.267 12.872C163.267 14.104 162.915 15.128 162.227 15.928C161.475 16.792 160.483 17.224 159.251 17.224C158.003 17.224 157.027 16.792 156.291 15.928C155.587 15.128 155.235 14.104 155.235 12.872C155.235 11.624 155.587 10.6 156.291 9.784C157.027 8.92 158.003 8.504 159.251 8.504ZM159.251 9.576C158.371 9.576 157.683 9.912 157.203 10.584C156.755 11.192 156.547 11.944 156.547 12.872C156.547 13.784 156.755 14.536 157.203 15.144C157.683 15.816 158.371 16.152 159.251 16.152C160.115 16.152 160.803 15.816 161.315 15.144C161.747 14.536 161.971 13.768 161.971 12.872C161.971 11.944 161.747 11.192 161.315 10.584C160.803 9.912 160.115 9.576 159.251 9.576ZM168.242 5.576H169.826V6.68H168.402C168.049 6.68 167.778 6.76 167.618 6.952C167.458 7.128 167.378 7.416 167.378 7.816V8.728H169.714V9.8H167.378V17H166.098V9.8H164.018V8.728H166.098V7.784C166.098 7.08 166.274 6.552 166.626 6.168C166.994 5.768 167.538 5.576 168.242 5.576ZM179.154 8.504C181.202 8.504 182.322 9.352 182.546 11.08H181.298C181.186 10.568 180.978 10.184 180.658 9.96C180.306 9.704 179.794 9.576 179.138 9.576C178.562 9.576 178.114 9.672 177.794 9.896C177.442 10.104 177.266 10.392 177.266 10.76C177.266 11.112 177.49 11.416 177.97 11.656C178.274 11.8 178.85 11.976 179.682 12.2C180.674 12.44 181.378 12.696 181.81 12.968C182.466 13.384 182.802 13.944 182.802 14.664C182.802 16.36 181.634 17.224 179.298 17.224C177.122 17.224 175.938 16.264 175.746 14.36H176.994C177.09 15.016 177.33 15.48 177.682 15.768C178.034 16.024 178.562 16.152 179.266 16.152C180.738 16.152 181.49 15.672 181.49 14.744C181.49 14.28 181.218 13.928 180.706 13.672C180.434 13.544 179.842 13.368 178.946 13.144C177.97 12.904 177.282 12.664 176.898 12.408C176.258 12.024 175.954 11.496 175.954 10.792C175.954 10.088 176.258 9.544 176.882 9.128C177.458 8.712 178.226 8.504 179.154 8.504ZM184.305 5.352H185.585V10.088C185.873 9.56 186.257 9.16 186.737 8.888C187.185 8.632 187.681 8.504 188.241 8.504C189.201 8.504 189.953 8.776 190.465 9.352C190.977 9.912 191.233 10.728 191.233 11.784V17H189.953V11.976C189.953 11.208 189.761 10.616 189.409 10.2C189.025 9.784 188.497 9.576 187.809 9.576C187.169 9.576 186.641 9.832 186.225 10.344C185.793 10.856 185.585 11.512 185.585 12.28V17H184.305V5.352ZM194.251 5.608C194.523 5.608 194.747 5.688 194.939 5.88C195.131 6.04 195.227 6.264 195.227 6.552C195.227 6.824 195.131 7.048 194.939 7.24C194.747 7.416 194.523 7.512 194.251 7.512C193.979 7.512 193.755 7.416 193.563 7.24C193.371 7.048 193.291 6.824 193.291 6.552C193.291 6.264 193.371 6.04 193.563 5.88C193.755 5.688 193.979 5.608 194.251 5.608ZM193.611 8.728H194.891V17H193.611V8.728ZM201.241 8.504C202.425 8.504 203.369 8.936 204.057 9.832C204.681 10.632 205.001 11.64 205.001 12.888C205.001 14.104 204.681 15.112 204.073 15.912C203.401 16.776 202.489 17.224 201.305 17.224C200.121 17.224 199.209 16.648 198.569 15.496V20.168H197.289V8.728H198.489V10.088C199.081 9.032 199.993 8.504 201.241 8.504ZM201.081 9.56C200.249 9.56 199.593 9.88 199.145 10.536C198.729 11.112 198.521 11.88 198.521 12.808V12.968C198.521 13.928 198.745 14.696 199.225 15.288C199.673 15.864 200.265 16.168 201.033 16.168C201.929 16.168 202.601 15.848 203.065 15.24C203.481 14.664 203.689 13.88 203.689 12.888C203.689 11.912 203.481 11.128 203.097 10.552C202.633 9.88 201.961 9.56 201.081 9.56ZM210.616 8.504C211.8 8.504 212.744 8.936 213.432 9.832C214.056 10.632 214.376 11.64 214.376 12.888C214.376 14.104 214.056 15.112 213.448 15.912C212.776 16.776 211.864 17.224 210.68 17.224C209.496 17.224 208.584 16.648 207.944 15.496V20.168H206.664V8.728H207.864V10.088C208.456 9.032 209.368 8.504 210.616 8.504ZM210.456 9.56C209.624 9.56 208.968 9.88 208.52 10.536C208.104 11.112 207.896 11.88 207.896 12.808V12.968C207.896 13.928 208.12 14.696 208.6 15.288C209.048 15.864 209.64 16.168 210.408 16.168C211.304 16.168 211.976 15.848 212.44 15.24C212.856 14.664 213.064 13.88 213.064 12.888C213.064 11.912 212.856 11.128 212.472 10.552C212.008 9.88 211.336 9.56 210.456 9.56ZM217.095 5.608C217.367 5.608 217.591 5.688 217.783 5.88C217.975 6.04 218.071 6.264 218.071 6.552C218.071 6.824 217.975 7.048 217.783 7.24C217.591 7.416 217.367 7.512 217.095 7.512C216.823 7.512 216.599 7.416 216.407 7.24C216.215 7.048 216.135 6.824 216.135 6.552C216.135 6.264 216.215 6.04 216.407 5.88C216.599 5.688 216.823 5.608 217.095 5.608ZM216.455 8.728H217.735V17H216.455V8.728ZM224.005 8.504C226.053 8.504 227.093 9.64 227.093 11.912V17H225.813V12.008C225.813 10.392 225.077 9.592 223.637 9.592C223.061 9.592 222.565 9.8 222.149 10.216C221.701 10.664 221.461 11.256 221.413 12.008V17H220.133V8.728H221.413V9.944C221.701 9.48 222.069 9.128 222.517 8.888C222.965 8.632 223.461 8.504 224.005 8.504ZM232.478 8.504C233.726 8.504 234.654 9.048 235.262 10.152V8.728H236.542V16.424C236.542 19.064 235.278 20.392 232.766 20.392C231.646 20.392 230.782 20.168 230.206 19.72C229.614 19.272 229.246 18.6 229.102 17.704H230.382C230.478 18.264 230.718 18.68 231.086 18.936C231.454 19.208 232.014 19.352 232.766 19.352C234.43 19.352 235.262 18.424 235.262 16.6V15.144C234.654 16.248 233.726 16.808 232.478 16.808C231.326 16.808 230.414 16.408 229.742 15.624C229.07 14.856 228.75 13.88 228.75 12.68C228.75 11.464 229.07 10.488 229.742 9.72C230.414 8.904 231.326 8.504 232.478 8.504ZM232.67 9.56C231.838 9.56 231.198 9.848 230.734 10.456C230.286 11 230.062 11.752 230.062 12.68C230.062 13.544 230.254 14.264 230.654 14.808C231.102 15.416 231.758 15.736 232.654 15.736C233.486 15.736 234.126 15.448 234.606 14.872C235.054 14.312 235.278 13.576 235.278 12.68C235.278 11.752 235.054 11 234.606 10.456C234.126 9.848 233.486 9.56 232.67 9.56ZM246.779 8.504C248.827 8.504 249.947 9.352 250.171 11.08H248.923C248.811 10.568 248.603 10.184 248.283 9.96C247.931 9.704 247.419 9.576 246.763 9.576C246.187 9.576 245.739 9.672 245.419 9.896C245.067 10.104 244.891 10.392 244.891 10.76C244.891 11.112 245.115 11.416 245.595 11.656C245.899 11.8 246.475 11.976 247.307 12.2C248.299 12.44 249.003 12.696 249.435 12.968C250.091 13.384 250.427 13.944 250.427 14.664C250.427 16.36 249.259 17.224 246.923 17.224C244.747 17.224 243.563 16.264 243.371 14.36H244.619C244.715 15.016 244.955 15.48 245.307 15.768C245.659 16.024 246.187 16.152 246.891 16.152C248.363 16.152 249.115 15.672 249.115 14.744C249.115 14.28 248.843 13.928 248.331 13.672C248.059 13.544 247.467 13.368 246.571 13.144C245.595 12.904 244.907 12.664 244.523 12.408C243.883 12.024 243.579 11.496 243.579 10.792C243.579 10.088 243.883 9.544 244.507 9.128C245.083 8.712 245.851 8.504 246.779 8.504ZM255.498 8.504C256.522 8.504 257.338 8.744 257.962 9.224C258.602 9.72 258.986 10.472 259.13 11.48H257.866C257.754 10.84 257.498 10.36 257.098 10.04C256.682 9.72 256.154 9.576 255.498 9.576C254.698 9.576 254.058 9.88 253.594 10.488C253.146 11.08 252.922 11.88 252.922 12.888C252.922 13.896 253.13 14.696 253.578 15.272C254.01 15.848 254.65 16.152 255.482 16.152C256.89 16.152 257.706 15.432 257.898 14.008H259.178C258.986 15.064 258.586 15.88 257.946 16.424C257.322 16.952 256.506 17.224 255.482 17.224C254.234 17.224 253.274 16.808 252.586 15.976C251.93 15.192 251.61 14.168 251.61 12.904C251.61 11.64 251.93 10.616 252.586 9.816C253.289 8.936 254.266 8.504 255.498 8.504ZM264.088 8.504C265.416 8.504 266.424 8.952 267.096 9.848C267.704 10.648 268.024 11.784 268.056 13.224H261.528C261.592 14.152 261.832 14.872 262.28 15.384C262.728 15.896 263.352 16.152 264.136 16.152C264.808 16.152 265.368 15.976 265.784 15.64C266.136 15.352 266.408 14.92 266.616 14.344H267.896C267.704 15.144 267.336 15.784 266.776 16.296C266.088 16.904 265.208 17.224 264.136 17.224C262.952 17.224 261.992 16.824 261.288 16.056C260.552 15.256 260.2 14.2 260.2 12.856C260.2 11.64 260.536 10.616 261.24 9.8C261.944 8.936 262.888 8.504 264.088 8.504ZM264.12 9.576C263.384 9.576 262.792 9.816 262.344 10.296C261.896 10.776 261.64 11.416 261.56 12.232H266.728C266.568 10.456 265.688 9.576 264.12 9.576ZM273.427 8.504C275.475 8.504 276.515 9.64 276.515 11.912V17H275.235V12.008C275.235 10.392 274.499 9.592 273.059 9.592C272.483 9.592 271.987 9.8 271.571 10.216C271.123 10.664 270.883 11.256 270.835 12.008V17H269.555V8.728H270.835V9.944C271.123 9.48 271.491 9.128 271.939 8.888C272.387 8.632 272.883 8.504 273.427 8.504ZM282.092 8.504C283.276 8.504 284.14 8.808 284.716 9.432C285.196 9.976 285.452 10.728 285.452 11.688V17H284.252V15.608C283.932 16.056 283.5 16.424 282.988 16.712C282.38 17.048 281.692 17.224 280.924 17.224C280.092 17.224 279.436 17.016 278.94 16.6C278.428 16.168 278.172 15.608 278.172 14.936C278.172 13.992 278.54 13.288 279.308 12.808C279.98 12.36 280.94 12.12 282.188 12.104L284.172 12.072V11.64C284.172 10.248 283.452 9.56 282.012 9.56C281.404 9.56 280.908 9.672 280.524 9.928C280.092 10.184 279.82 10.584 279.692 11.112L278.428 11.016C278.604 10.152 279.036 9.496 279.708 9.08C280.316 8.696 281.1 8.504 282.092 8.504ZM284.172 13.032L282.268 13.064C280.412 13.096 279.484 13.704 279.484 14.904C279.484 15.288 279.628 15.592 279.948 15.848C280.268 16.088 280.684 16.216 281.196 16.216C281.98 16.216 282.668 15.96 283.276 15.448C283.868 14.952 284.172 14.376 284.172 13.736V13.032ZM291.062 8.504C291.51 8.504 291.894 8.568 292.198 8.696V9.976C291.782 9.848 291.366 9.8 290.966 9.8C290.326 9.8 289.782 10.072 289.35 10.648C288.902 11.192 288.694 11.848 288.694 12.616V17H287.43V8.728H288.694V10.168C288.918 9.688 289.206 9.304 289.558 9.032C289.99 8.68 290.486 8.504 291.062 8.504ZM294.329 5.608C294.601 5.608 294.825 5.688 295.017 5.88C295.209 6.04 295.305 6.264 295.305 6.552C295.305 6.824 295.209 7.048 295.017 7.24C294.825 7.416 294.601 7.512 294.329 7.512C294.057 7.512 293.833 7.416 293.641 7.24C293.449 7.048 293.369 6.824 293.369 6.552C293.369 6.264 293.449 6.04 293.641 5.88C293.833 5.688 294.057 5.608 294.329 5.608ZM293.689 8.728H294.969V17H293.689V8.728ZM301.063 8.504C302.295 8.504 303.287 8.92 304.023 9.784C304.727 10.6 305.079 11.624 305.079 12.872C305.079 14.104 304.727 15.128 304.039 15.928C303.287 16.792 302.295 17.224 301.063 17.224C299.815 17.224 298.839 16.792 298.103 15.928C297.399 15.128 297.047 14.104 297.047 12.872C297.047 11.624 297.399 10.6 298.103 9.784C298.839 8.92 299.815 8.504 301.063 8.504ZM301.063 9.576C300.183 9.576 299.495 9.912 299.015 10.584C298.567 11.192 298.359 11.944 298.359 12.872C298.359 13.784 298.567 14.536 299.015 15.144C299.495 15.816 300.183 16.152 301.063 16.152C301.927 16.152 302.615 15.816 303.127 15.144C303.559 14.536 303.783 13.768 303.783 12.872C303.783 11.944 303.559 11.192 303.127 10.584C302.615 9.912 301.927 9.576 301.063 9.576ZM309.67 8.504C311.718 8.504 312.838 9.352 313.062 11.08H311.814C311.702 10.568 311.494 10.184 311.174 9.96C310.822 9.704 310.31 9.576 309.654 9.576C309.078 9.576 308.63 9.672 308.31 9.896C307.958 10.104 307.782 10.392 307.782 10.76C307.782 11.112 308.006 11.416 308.486 11.656C308.79 11.8 309.366 11.976 310.198 12.2C311.19 12.44 311.894 12.696 312.326 12.968C312.982 13.384 313.318 13.944 313.318 14.664C313.318 16.36 312.15 17.224 309.814 17.224C307.638 17.224 306.454 16.264 306.262 14.36H307.51C307.606 15.016 307.846 15.48 308.198 15.768C308.55 16.024 309.078 16.152 309.782 16.152C311.254 16.152 312.006 15.672 312.006 14.744C312.006 14.28 311.734 13.928 311.222 13.672C310.95 13.544 310.358 13.368 309.462 13.144C308.486 12.904 307.798 12.664 307.414 12.408C306.774 12.024 306.47 11.496 306.47 10.792C306.47 10.088 306.774 9.544 307.398 9.128C307.974 8.712 308.742 8.504 309.67 8.504ZM315.94 15.096C316.292 15.096 316.596 15.24 316.82 15.544C317.028 15.832 317.14 16.2 317.14 16.664C317.14 17.368 316.932 17.992 316.516 18.536C316.1 19.048 315.54 19.4 314.852 19.576V18.792C315.268 18.648 315.62 18.408 315.876 18.088C316.116 17.752 316.228 17.4 316.228 17.016C316.148 17.048 316.036 17.08 315.876 17.08C315.604 17.08 315.38 16.984 315.188 16.792C314.996 16.6 314.9 16.36 314.9 16.088C314.9 15.784 314.996 15.544 315.204 15.368C315.38 15.176 315.62 15.096 315.94 15.096ZM327.295 8.504C329.343 8.504 330.463 9.352 330.687 11.08H329.439C329.327 10.568 329.119 10.184 328.799 9.96C328.447 9.704 327.935 9.576 327.279 9.576C326.703 9.576 326.255 9.672 325.935 9.896C325.583 10.104 325.407 10.392 325.407 10.76C325.407 11.112 325.631 11.416 326.111 11.656C326.415 11.8 326.991 11.976 327.823 12.2C328.815 12.44 329.519 12.696 329.951 12.968C330.607 13.384 330.943 13.944 330.943 14.664C330.943 16.36 329.775 17.224 327.439 17.224C325.263 17.224 324.079 16.264 323.887 14.36H325.135C325.231 15.016 325.471 15.48 325.823 15.768C326.175 16.024 326.703 16.152 327.407 16.152C328.879 16.152 329.631 15.672 329.631 14.744C329.631 14.28 329.359 13.928 328.847 13.672C328.575 13.544 327.983 13.368 327.087 13.144C326.111 12.904 325.423 12.664 325.039 12.408C324.399 12.024 324.095 11.496 324.095 10.792C324.095 10.088 324.399 9.544 325.023 9.128C325.599 8.712 326.367 8.504 327.295 8.504ZM336.013 8.504C337.037 8.504 337.853 8.744 338.477 9.224C339.117 9.72 339.501 10.472 339.645 11.48H338.381C338.269 10.84 338.013 10.36 337.613 10.04C337.197 9.72 336.669 9.576 336.013 9.576C335.213 9.576 334.573 9.88 334.109 10.488C333.661 11.08 333.437 11.88 333.437 12.888C333.437 13.896 333.645 14.696 334.093 15.272C334.525 15.848 335.165 16.152 335.997 16.152C337.405 16.152 338.221 15.432 338.413 14.008H339.693C339.501 15.064 339.101 15.88 338.461 16.424C337.837 16.952 337.021 17.224 335.997 17.224C334.749 17.224 333.789 16.808 333.101 15.976C332.445 15.192 332.125 14.168 332.125 12.904C332.125 11.64 332.445 10.616 333.101 9.816C333.805 8.936 334.781 8.504 336.013 8.504ZM344.603 8.504C345.931 8.504 346.939 8.952 347.611 9.848C348.219 10.648 348.539 11.784 348.571 13.224H342.043C342.107 14.152 342.347 14.872 342.795 15.384C343.243 15.896 343.867 16.152 344.651 16.152C345.323 16.152 345.883 15.976 346.299 15.64C346.651 15.352 346.923 14.92 347.131 14.344H348.411C348.219 15.144 347.851 15.784 347.291 16.296C346.603 16.904 345.723 17.224 344.651 17.224C343.467 17.224 342.507 16.824 341.803 16.056C341.067 15.256 340.715 14.2 340.715 12.856C340.715 11.64 341.051 10.616 341.755 9.8C342.459 8.936 343.403 8.504 344.603 8.504ZM344.635 9.576C343.899 9.576 343.307 9.816 342.859 10.296C342.411 10.776 342.155 11.416 342.075 12.232H347.243C347.083 10.456 346.203 9.576 344.635 9.576ZM353.942 8.504C355.99 8.504 357.03 9.64 357.03 11.912V17H355.75V12.008C355.75 10.392 355.014 9.592 353.574 9.592C352.998 9.592 352.502 9.8 352.086 10.216C351.638 10.664 351.398 11.256 351.35 12.008V17H350.07V8.728H351.35V9.944C351.638 9.48 352.006 9.128 352.454 8.888C352.902 8.632 353.398 8.504 353.942 8.504ZM362.608 8.504C363.792 8.504 364.656 8.808 365.232 9.432C365.712 9.976 365.968 10.728 365.968 11.688V17H364.768V15.608C364.448 16.056 364.016 16.424 363.504 16.712C362.896 17.048 362.208 17.224 361.44 17.224C360.608 17.224 359.952 17.016 359.456 16.6C358.944 16.168 358.688 15.608 358.688 14.936C358.688 13.992 359.056 13.288 359.824 12.808C360.496 12.36 361.456 12.12 362.704 12.104L364.688 12.072V11.64C364.688 10.248 363.968 9.56 362.528 9.56C361.92 9.56 361.424 9.672 361.04 9.928C360.608 10.184 360.336 10.584 360.208 11.112L358.944 11.016C359.12 10.152 359.552 9.496 360.224 9.08C360.832 8.696 361.616 8.504 362.608 8.504ZM364.688 13.032L362.784 13.064C360.928 13.096 360 13.704 360 14.904C360 15.288 360.144 15.592 360.464 15.848C360.784 16.088 361.2 16.216 361.712 16.216C362.496 16.216 363.184 15.96 363.792 15.448C364.384 14.952 364.688 14.376 364.688 13.736V13.032ZM371.577 8.504C372.025 8.504 372.409 8.568 372.713 8.696V9.976C372.297 9.848 371.881 9.8 371.481 9.8C370.841 9.8 370.297 10.072 369.865 10.648C369.417 11.192 369.209 11.848 369.209 12.616V17H367.945V8.728H369.209V10.168C369.433 9.688 369.721 9.304 370.073 9.032C370.505 8.68 371.001 8.504 371.577 8.504ZM374.845 5.608C375.117 5.608 375.341 5.688 375.533 5.88C375.725 6.04 375.821 6.264 375.821 6.552C375.821 6.824 375.725 7.048 375.533 7.24C375.341 7.416 375.117 7.512 374.845 7.512C374.573 7.512 374.349 7.416 374.157 7.24C373.965 7.048 373.885 6.824 373.885 6.552C373.885 6.264 373.965 6.04 374.157 5.88C374.349 5.688 374.573 5.608 374.845 5.608ZM374.205 8.728H375.485V17H374.205V8.728ZM381.579 8.504C382.811 8.504 383.803 8.92 384.539 9.784C385.243 10.6 385.595 11.624 385.595 12.872C385.595 14.104 385.243 15.128 384.555 15.928C383.803 16.792 382.811 17.224 381.579 17.224C380.331 17.224 379.355 16.792 378.619 15.928C377.915 15.128 377.563 14.104 377.563 12.872C377.563 11.624 377.915 10.6 378.619 9.784C379.355 8.92 380.331 8.504 381.579 8.504ZM381.579 9.576C380.699 9.576 380.011 9.912 379.531 10.584C379.083 11.192 378.875 11.944 378.875 12.872C378.875 13.784 379.083 14.536 379.531 15.144C380.011 15.816 380.699 16.152 381.579 16.152C382.443 16.152 383.131 15.816 383.643 15.144C384.075 14.536 384.299 13.768 384.299 12.872C384.299 11.944 384.075 11.192 383.643 10.584C383.131 9.912 382.443 9.576 381.579 9.576ZM390.186 8.504C392.234 8.504 393.354 9.352 393.578 11.08H392.33C392.218 10.568 392.01 10.184 391.69 9.96C391.338 9.704 390.826 9.576 390.17 9.576C389.594 9.576 389.146 9.672 388.826 9.896C388.474 10.104 388.298 10.392 388.298 10.76C388.298 11.112 388.522 11.416 389.002 11.656C389.306 11.8 389.882 11.976 390.714 12.2C391.706 12.44 392.41 12.696 392.842 12.968C393.498 13.384 393.834 13.944 393.834 14.664C393.834 16.36 392.666 17.224 390.33 17.224C388.154 17.224 386.97 16.264 386.778 14.36H388.026C388.122 15.016 388.362 15.48 388.714 15.768C389.066 16.024 389.594 16.152 390.298 16.152C391.77 16.152 392.522 15.672 392.522 14.744C392.522 14.28 392.25 13.928 391.738 13.672C391.466 13.544 390.874 13.368 389.978 13.144C389.002 12.904 388.314 12.664 387.93 12.408C387.29 12.024 386.986 11.496 386.986 10.792C386.986 10.088 387.29 9.544 387.914 9.128C388.49 8.712 389.258 8.504 390.186 8.504ZM406.776 5.352H408.056V17H406.856V15.64C406.28 16.696 405.352 17.224 404.104 17.224C402.888 17.224 401.944 16.776 401.272 15.912C400.648 15.112 400.344 14.088 400.344 12.84C400.344 11.624 400.648 10.632 401.272 9.832C401.944 8.936 402.856 8.504 404.04 8.504C405.224 8.504 406.136 9.08 406.776 10.248V5.352ZM404.312 9.56C403.4 9.56 402.712 9.88 402.264 10.52C401.848 11.08 401.656 11.848 401.656 12.84C401.656 13.832 401.848 14.616 402.248 15.192C402.696 15.832 403.368 16.168 404.264 16.168C405.096 16.168 405.736 15.848 406.2 15.208C406.6 14.632 406.808 13.88 406.808 12.952V12.792C406.808 11.832 406.568 11.048 406.12 10.456C405.656 9.848 405.048 9.56 404.312 9.56ZM413.447 8.504C414.775 8.504 415.783 8.952 416.455 9.848C417.063 10.648 417.383 11.784 417.415 13.224H410.887C410.951 14.152 411.191 14.872 411.639 15.384C412.087 15.896 412.711 16.152 413.495 16.152C414.167 16.152 414.727 15.976 415.143 15.64C415.495 15.352 415.767 14.92 415.975 14.344H417.255C417.063 15.144 416.695 15.784 416.135 16.296C415.447 16.904 414.567 17.224 413.495 17.224C412.311 17.224 411.351 16.824 410.647 16.056C409.911 15.256 409.559 14.2 409.559 12.856C409.559 11.64 409.895 10.616 410.599 9.8C411.303 8.936 412.247 8.504 413.447 8.504ZM413.479 9.576C412.743 9.576 412.151 9.816 411.703 10.296C411.255 10.776 410.999 11.416 410.919 12.232H416.087C415.927 10.456 415.047 9.576 413.479 9.576ZM422.226 5.576H423.81V6.68H422.386C422.034 6.68 421.762 6.76 421.602 6.952C421.442 7.128 421.362 7.416 421.362 7.816V8.728H426.402V17H425.138V9.8H421.362V17H420.082V9.8H418.002V8.728H420.082V7.784C420.082 7.08 420.258 6.552 420.61 6.168C420.978 5.768 421.522 5.576 422.226 5.576ZM432.52 8.504C434.568 8.504 435.608 9.64 435.608 11.912V17H434.328V12.008C434.328 10.392 433.592 9.592 432.152 9.592C431.576 9.592 431.08 9.8 430.664 10.216C430.216 10.664 429.976 11.256 429.928 12.008V17H428.648V8.728H429.928V9.944C430.216 9.48 430.584 9.128 431.032 8.888C431.48 8.632 431.976 8.504 432.52 8.504ZM440.994 8.504C442.322 8.504 443.33 8.952 444.002 9.848C444.61 10.648 444.93 11.784 444.962 13.224H438.434C438.498 14.152 438.738 14.872 439.186 15.384C439.634 15.896 440.258 16.152 441.042 16.152C441.714 16.152 442.274 15.976 442.69 15.64C443.042 15.352 443.314 14.92 443.522 14.344H444.802C444.61 15.144 444.242 15.784 443.682 16.296C442.994 16.904 442.114 17.224 441.042 17.224C439.858 17.224 438.898 16.824 438.194 16.056C437.458 15.256 437.106 14.2 437.106 12.856C437.106 11.64 437.442 10.616 438.146 9.8C438.85 8.936 439.794 8.504 440.994 8.504ZM441.026 9.576C440.29 9.576 439.698 9.816 439.25 10.296C438.802 10.776 438.546 11.416 438.466 12.232H443.634C443.474 10.456 442.594 9.576 441.026 9.576ZM4.944 30.504C6.128 30.504 7.072 30.936 7.76 31.832C8.384 32.632 8.704 33.64 8.704 34.888C8.704 36.104 8.384 37.112 7.776 37.912C7.104 38.776 6.192 39.224 5.008 39.224C3.824 39.224 2.912 38.648 2.272 37.496V42.168H0.992V30.728H2.192V32.088C2.784 31.032 3.696 30.504 4.944 30.504ZM4.784 31.56C3.952 31.56 3.296 31.88 2.848 32.536C2.432 33.112 2.224 33.88 2.224 34.808V34.968C2.224 35.928 2.448 36.696 2.928 37.288C3.376 37.864 3.968 38.168 4.736 38.168C5.632 38.168 6.304 37.848 6.768 37.24C7.184 36.664 7.392 35.88 7.392 34.888C7.392 33.912 7.184 33.128 6.8 32.552C6.336 31.88 5.664 31.56 4.784 31.56ZM13.999 30.504C14.447 30.504 14.831 30.568 15.135 30.696V31.976C14.719 31.848 14.303 31.8 13.903 31.8C13.263 31.8 12.719 32.072 12.287 32.648C11.839 33.192 11.631 33.848 11.631 34.616V39H10.367V30.728H11.631V32.168C11.855 31.688 12.143 31.304 12.495 31.032C12.927 30.68 13.423 30.504 13.999 30.504ZM19.9068 30.504C21.1388 30.504 22.1308 30.92 22.8668 31.784C23.5708 32.6 23.9228 33.624 23.9228 34.872C23.9228 36.104 23.5708 37.128 22.8828 37.928C22.1308 38.792 21.1388 39.224 19.9068 39.224C18.6588 39.224 17.6828 38.792 16.9468 37.928C16.2428 37.128 15.8908 36.104 15.8908 34.872C15.8908 33.624 16.2428 32.6 16.9468 31.784C17.6828 30.92 18.6588 30.504 19.9068 30.504ZM19.9068 31.576C19.0268 31.576 18.3388 31.912 17.8588 32.584C17.4108 33.192 17.2028 33.944 17.2028 34.872C17.2028 35.784 17.4108 36.536 17.8588 37.144C18.3388 37.816 19.0268 38.152 19.9068 38.152C20.7708 38.152 21.4588 37.816 21.9708 37.144C22.4028 36.536 22.6268 35.768 22.6268 34.872C22.6268 33.944 22.4028 33.192 21.9708 32.584C21.4588 31.912 20.7708 31.576 19.9068 31.576ZM31.6978 27.352H32.9778V39H31.7778V37.64C31.2018 38.696 30.2738 39.224 29.0258 39.224C27.8098 39.224 26.8658 38.776 26.1938 37.912C25.5698 37.112 25.2658 36.088 25.2658 34.84C25.2658 33.624 25.5698 32.632 26.1938 31.832C26.8658 30.936 27.7778 30.504 28.9618 30.504C30.1458 30.504 31.0578 31.08 31.6978 32.248V27.352ZM29.2338 31.56C28.3218 31.56 27.6338 31.88 27.1858 32.52C26.7698 33.08 26.5778 33.848 26.5778 34.84C26.5778 35.832 26.7698 36.616 27.1698 37.192C27.6178 37.832 28.2898 38.168 29.1858 38.168C30.0178 38.168 30.6578 37.848 31.1218 37.208C31.5218 36.632 31.7298 35.88 31.7298 34.952V34.792C31.7298 33.832 31.4898 33.048 31.0418 32.456C30.5778 31.848 29.9698 31.56 29.2338 31.56ZM34.9608 30.728H36.2408V35.784C36.2408 36.568 36.4008 37.16 36.7368 37.544C37.0728 37.928 37.6168 38.136 38.3688 38.136C38.9128 38.136 39.4088 37.912 39.8408 37.496C40.2888 37.048 40.5608 36.472 40.6568 35.768V30.728H41.9368V39H40.6568V37.72C39.9848 38.712 39.0888 39.224 37.9688 39.224C35.9528 39.224 34.9608 38.088 34.9608 35.848V30.728ZM47.4819 30.504C48.5059 30.504 49.3219 30.744 49.9459 31.224C50.5859 31.72 50.9699 32.472 51.1139 33.48H49.8499C49.7379 32.84 49.4819 32.36 49.0819 32.04C48.6659 31.72 48.1379 31.576 47.4819 31.576C46.6819 31.576 46.0419 31.88 45.5779 32.488C45.1299 33.08 44.9059 33.88 44.9059 34.888C44.9059 35.896 45.1139 36.696 45.5619 37.272C45.9939 37.848 46.6339 38.152 47.4659 38.152C48.8739 38.152 49.6899 37.432 49.8819 36.008H51.1619C50.9699 37.064 50.5699 37.88 49.9299 38.424C49.3059 38.952 48.4899 39.224 47.4659 39.224C46.2179 39.224 45.2579 38.808 44.5699 37.976C43.9139 37.192 43.5939 36.168 43.5939 34.904C43.5939 33.64 43.9139 32.616 44.5699 31.816C45.2739 30.936 46.2499 30.504 47.4819 30.504ZM54.8719 28.056V30.728H56.9199V31.8H54.8719V37.064C54.8719 37.368 54.9199 37.592 55.0479 37.72C55.1599 37.848 55.3679 37.928 55.6559 37.928H56.7119V39H55.4639C54.7919 39 54.2959 38.824 54.0079 38.472C53.7359 38.152 53.6079 37.688 53.6079 37.064V31.8H51.9439V30.728H53.6079V28.584L54.8719 28.056ZM66.6075 30.504C68.6555 30.504 69.7755 31.352 69.9995 33.08H68.7515C68.6395 32.568 68.4315 32.184 68.1115 31.96C67.7595 31.704 67.2475 31.576 66.5915 31.576C66.0155 31.576 65.5675 31.672 65.2475 31.896C64.8955 32.104 64.7195 32.392 64.7195 32.76C64.7195 33.112 64.9435 33.416 65.4235 33.656C65.7275 33.8 66.3035 33.976 67.1355 34.2C68.1275 34.44 68.8315 34.696 69.2635 34.968C69.9195 35.384 70.2555 35.944 70.2555 36.664C70.2555 38.36 69.0875 39.224 66.7515 39.224C64.5755 39.224 63.3915 38.264 63.1995 36.36H64.4475C64.5435 37.016 64.7835 37.48 65.1355 37.768C65.4875 38.024 66.0155 38.152 66.7195 38.152C68.1915 38.152 68.9435 37.672 68.9435 36.744C68.9435 36.28 68.6715 35.928 68.1595 35.672C67.8875 35.544 67.2955 35.368 66.3995 35.144C65.4235 34.904 64.7355 34.664 64.3515 34.408C63.7115 34.024 63.4075 33.496 63.4075 32.792C63.4075 32.088 63.7115 31.544 64.3355 31.128C64.9115 30.712 65.6795 30.504 66.6075 30.504ZM75.4536 30.504C76.6856 30.504 77.6776 30.92 78.4136 31.784C79.1176 32.6 79.4696 33.624 79.4696 34.872C79.4696 36.104 79.1176 37.128 78.4296 37.928C77.6776 38.792 76.6856 39.224 75.4536 39.224C74.2056 39.224 73.2296 38.792 72.4936 37.928C71.7896 37.128 71.4376 36.104 71.4376 34.872C71.4376 33.624 71.7896 32.6 72.4936 31.784C73.2296 30.92 74.2056 30.504 75.4536 30.504ZM75.4536 31.576C74.5736 31.576 73.8856 31.912 73.4056 32.584C72.9576 33.192 72.7496 33.944 72.7496 34.872C72.7496 35.784 72.9576 36.536 73.4056 37.144C73.8856 37.816 74.5736 38.152 75.4536 38.152C76.3176 38.152 77.0056 37.816 77.5176 37.144C77.9496 36.536 78.1736 35.768 78.1736 34.872C78.1736 33.944 77.9496 33.192 77.5176 32.584C77.0056 31.912 76.3176 31.576 75.4536 31.576ZM81.3886 27.352H82.6526V39H81.3886V27.352ZM84.8983 30.728H86.1783V35.784C86.1783 36.568 86.3383 37.16 86.6743 37.544C87.0103 37.928 87.5543 38.136 88.3063 38.136C88.8503 38.136 89.3463 37.912 89.7783 37.496C90.2263 37.048 90.4983 36.472 90.5943 35.768V30.728H91.8743V39H90.5943V37.72C89.9223 38.712 89.0263 39.224 87.9062 39.224C85.8903 39.224 84.8983 38.088 84.8983 35.848V30.728ZM96.0594 28.056V30.728H98.1074V31.8H96.0594V37.064C96.0594 37.368 96.1074 37.592 96.2354 37.72C96.3474 37.848 96.5554 37.928 96.8434 37.928H97.8994V39H96.6514C95.9794 39 95.4834 38.824 95.1954 38.472C94.9234 38.152 94.7954 37.688 94.7954 37.064V31.8H93.1314V30.728H94.7954V28.584L96.0594 28.056ZM100.595 27.608C100.867 27.608 101.091 27.688 101.283 27.88C101.475 28.04 101.571 28.264 101.571 28.552C101.571 28.824 101.475 29.048 101.283 29.24C101.091 29.416 100.867 29.512 100.595 29.512C100.323 29.512 100.099 29.416 99.9069 29.24C99.7149 29.048 99.6349 28.824 99.6349 28.552C99.6349 28.264 99.7149 28.04 99.9069 27.88C100.099 27.688 100.323 27.608 100.595 27.608ZM99.9549 30.728H101.235V39H99.9549V30.728ZM107.329 30.504C108.561 30.504 109.553 30.92 110.289 31.784C110.993 32.6 111.345 33.624 111.345 34.872C111.345 36.104 110.993 37.128 110.305 37.928C109.553 38.792 108.561 39.224 107.329 39.224C106.081 39.224 105.105 38.792 104.369 37.928C103.665 37.128 103.313 36.104 103.313 34.872C103.313 33.624 103.665 32.6 104.369 31.784C105.105 30.92 106.081 30.504 107.329 30.504ZM107.329 31.576C106.449 31.576 105.761 31.912 105.281 32.584C104.833 33.192 104.625 33.944 104.625 34.872C104.625 35.784 104.833 36.536 105.281 37.144C105.761 37.816 106.449 38.152 107.329 38.152C108.193 38.152 108.881 37.816 109.393 37.144C109.825 36.536 110.049 35.768 110.049 34.872C110.049 33.944 109.825 33.192 109.393 32.584C108.881 31.912 108.193 31.576 107.329 31.576ZM116.88 30.504C118.928 30.504 119.968 31.64 119.968 33.912V39H118.688V34.008C118.688 32.392 117.952 31.592 116.512 31.592C115.936 31.592 115.44 31.8 115.024 32.216C114.576 32.664 114.336 33.256 114.288 34.008V39H113.008V30.728H114.288V31.944C114.576 31.48 114.944 31.128 115.392 30.888C115.84 30.632 116.336 30.504 116.88 30.504ZM124.873 30.504C126.921 30.504 128.041 31.352 128.265 33.08H127.017C126.905 32.568 126.697 32.184 126.377 31.96C126.025 31.704 125.513 31.576 124.857 31.576C124.281 31.576 123.833 31.672 123.513 31.896C123.161 32.104 122.985 32.392 122.985 32.76C122.985 33.112 123.209 33.416 123.689 33.656C123.993 33.8 124.569 33.976 125.401 34.2C126.393 34.44 127.097 34.696 127.529 34.968C128.185 35.384 128.521 35.944 128.521 36.664C128.521 38.36 127.353 39.224 125.017 39.224C122.841 39.224 121.657 38.264 121.465 36.36H122.713C122.809 37.016 123.049 37.48 123.401 37.768C123.753 38.024 124.281 38.152 124.985 38.152C126.457 38.152 127.209 37.672 127.209 36.744C127.209 36.28 126.937 35.928 126.425 35.672C126.153 35.544 125.561 35.368 124.665 35.144C123.689 34.904 123.001 34.664 122.617 34.408C121.977 34.024 121.673 33.496 121.673 32.792C121.673 32.088 121.977 31.544 122.601 31.128C123.177 30.712 123.945 30.504 124.873 30.504Z" fill="white" fill-opacity="0.5"/>
</svg>
