<svg width="405" height="41" viewBox="0 0 405 41" fill="none" xmlns="http://www.w3.org/2000/svg">
<path d="M5.304 15.32C5.064 15.112 4.768 14.88 4.416 14.624C4.08 14.352 3.728 14.088 3.36 13.832C3.008 13.56 2.656 13.304 2.304 13.064C1.968 12.824 1.68 12.632 1.44 12.488L3.456 9.584C3.712 9.712 4.008 9.88 4.344 10.088C4.68 10.28 5.016 10.488 5.352 10.712C5.704 10.936 6.04 11.168 6.36 11.408C6.696 11.632 7 11.848 7.272 12.056V10.112H22.08V15.392H18.672V13.616H10.656V15.392H7.272V12.224L5.304 15.32ZM16.296 14.48C16.728 14.656 17.232 14.872 17.808 15.128C18.4 15.384 18.984 15.648 19.56 15.92C20.152 16.176 20.688 16.424 21.168 16.664C21.664 16.904 22.032 17.088 22.272 17.216L21.024 20C20.608 19.776 20.144 19.536 19.632 19.28C19.12 19.008 18.584 18.744 18.024 18.488C17.48 18.216 16.936 17.952 16.392 17.696C15.848 17.44 15.344 17.208 14.88 17L16.296 14.48ZM7.176 17.192C7.608 17.032 8.08 16.856 8.592 16.664C9.12 16.456 9.64 16.24 10.152 16.016C10.68 15.776 11.192 15.536 11.688 15.296C12.184 15.056 12.64 14.808 13.056 14.552L14.616 17.048C13.704 17.576 12.736 18.104 11.712 18.632C10.704 19.144 9.688 19.6 8.664 20L7.176 17.192ZM4.896 21.632C4.624 21.376 4.312 21.104 3.96 20.816C3.624 20.512 3.28 20.216 2.928 19.928C2.576 19.64 2.232 19.368 1.896 19.112C1.56 18.856 1.264 18.632 1.008 18.44L3.192 15.632C3.528 15.824 3.872 16.04 4.224 16.28C4.592 16.52 4.944 16.768 5.28 17.024C5.632 17.264 5.96 17.512 6.264 17.768C6.568 18.008 6.832 18.224 7.056 18.416L4.896 21.632ZM17.832 23.984C18.536 24.64 19.376 25.272 20.352 25.88C21.328 26.472 22.328 26.984 23.352 27.416L21.096 30.896C20.2 30.336 19.36 29.744 18.576 29.12C17.808 28.512 17.12 27.856 16.512 27.152V31.904H12.912V27.128C12.304 27.896 11.6 28.608 10.8 29.264C10.016 29.92 9.12 30.552 8.112 31.16L5.688 27.848C7.016 27.208 8.136 26.584 9.048 25.976C9.96 25.368 10.728 24.704 11.352 23.984H7.272V20.528H12.912V18.848H16.512V20.528H22.248V23.984H17.832ZM6.72 23.24C6.592 23.816 6.44 24.48 6.264 25.232C6.088 25.968 5.904 26.728 5.712 27.512C5.52 28.296 5.328 29.056 5.136 29.792C4.96 30.544 4.8 31.192 4.656 31.736L1.152 30.656C1.328 30.112 1.52 29.48 1.728 28.76C1.936 28.024 2.136 27.272 2.328 26.504C2.52 25.736 2.696 24.976 2.856 24.224C3.032 23.472 3.184 22.792 3.312 22.184L6.72 23.24ZM24.6296 23.48C25.5576 22.984 26.3976 22.504 27.1496 22.04C27.9016 21.56 28.5816 21.072 29.1896 20.576C29.0136 20.576 28.8536 20.584 28.7096 20.6C28.5656 20.6 28.4296 20.608 28.3016 20.624L26.3816 20.912L25.4216 17.6C25.8056 17.472 26.1256 17.328 26.3816 17.168C26.6376 16.992 26.8776 16.744 27.1016 16.424C27.2136 16.248 27.3176 16.064 27.4136 15.872C27.5256 15.68 27.6296 15.488 27.7256 15.296H25.0616V11.768H29.5016C29.4056 11.432 29.2936 11.064 29.1656 10.664C29.0536 10.264 28.9656 9.976 28.9016 9.8H32.9336C33.0456 10.104 33.1496 10.44 33.2456 10.808C33.3416 11.176 33.4216 11.496 33.4856 11.768H36.8216V15.296H33.8696L36.0536 16.808C35.5736 17.672 35.0056 18.544 34.3496 19.424C33.7096 20.288 32.9896 21.128 32.1896 21.944C31.4056 22.76 30.5576 23.536 29.6456 24.272C28.7336 25.008 27.7816 25.672 26.7896 26.264L24.6296 23.48ZM45.8696 9.944V28.472C45.8696 29.048 45.8136 29.528 45.7016 29.912C45.6056 30.312 45.4296 30.632 45.1736 30.872C44.9336 31.128 44.5976 31.32 44.1656 31.448C43.7336 31.592 43.1816 31.696 42.5096 31.76L40.7816 31.928L39.6296 27.968L41.2376 27.824C41.6696 27.792 41.9976 27.68 42.2216 27.488C42.4456 27.296 42.5576 26.968 42.5576 26.504V9.848L45.8696 9.944ZM40.9016 26.336H37.7576V11.048L40.9016 11.144V26.336ZM31.6376 15.296C31.2536 15.904 30.7416 16.608 30.1016 17.408C30.3576 17.408 30.6776 17.408 31.0616 17.408C31.4456 17.392 31.8136 17.376 32.1656 17.36C32.6296 16.704 33.0456 16.016 33.4136 15.296H31.6376ZM37.1576 22.4C36.3416 23.744 35.3736 25 34.2536 26.168C34.8776 26.6 35.4776 27.032 36.0536 27.464C36.6456 27.88 37.1176 28.224 37.4696 28.496L35.2856 31.808C34.7896 31.36 34.1816 30.856 33.4616 30.296C32.7576 29.736 32.0696 29.2 31.3976 28.688C30.6776 29.248 29.9176 29.792 29.1176 30.32C28.3176 30.848 27.4536 31.376 26.5256 31.904L24.2456 28.808C26.4696 27.736 28.4696 26.552 30.2456 25.256C32.0376 23.944 33.6136 22.368 34.9736 20.528L37.1576 22.4ZM70.4273 27.8V31.208H55.2353V29.552C54.7713 29.632 54.2193 29.72 53.5793 29.816C52.9553 29.912 52.3153 30.008 51.6593 30.104C51.0033 30.2 50.3793 30.288 49.7873 30.368C49.1953 30.464 48.6993 30.536 48.2993 30.584L48.0833 26.672L50.5553 26.336V21.92H48.8993V18.248H50.5553V14.192H48.7073V10.496H55.7393V14.192H54.0833V18.248H55.5953V21.92H54.0833V25.88C54.3873 25.848 54.6673 25.816 54.9233 25.784C55.1953 25.736 55.4353 25.696 55.6433 25.664V27.8H61.1393V26.48H56.5553V23.288H61.1393V21.992H56.6033V10.088H69.1073V21.992H64.5233V23.288H69.3473V26.48H64.5233V27.8H70.4273ZM59.9153 13.64V15.008H61.3553V13.64H59.9153ZM65.7713 13.64H64.3553V15.008H65.7713V13.64ZM59.9153 18.824H61.3553V17.456H59.9153V18.824ZM65.7713 18.824V17.456H64.3553V18.824H65.7713ZM83.0809 17.24V29.312C83.0809 29.824 83.0409 30.224 82.9609 30.512C82.8809 30.816 82.7529 31.048 82.5769 31.208C82.4009 31.384 82.1689 31.504 81.8809 31.568C81.5929 31.648 81.2329 31.72 80.8009 31.784L79.4329 31.976L78.8569 30.2H77.0569V26.96H75.9049C75.7769 28.048 75.6009 28.984 75.3769 29.768C75.1529 30.552 74.9289 31.256 74.7049 31.88L71.6089 30.752C71.8649 30.064 72.0969 29.416 72.3049 28.808C72.5129 28.2 72.6809 27.544 72.8089 26.84C72.9529 26.136 73.0649 25.328 73.1449 24.416C73.2249 23.504 73.2649 22.408 73.2649 21.128V16.472L72.1129 15.584C72.8809 14.576 73.5209 13.568 74.0329 12.56C74.5609 11.536 74.9689 10.472 75.2569 9.368L78.8569 9.488L78.4249 10.784H82.4569V13.592L81.6169 15.248H83.0809V16.496C83.4169 16.208 83.7049 15.936 83.9449 15.68C84.2009 15.408 84.4089 15.144 84.5689 14.888C84.7449 14.632 84.8809 14.36 84.9769 14.072C85.0889 13.784 85.1769 13.472 85.2409 13.136H83.5609V10.04H93.5689L93.3289 15.104C93.2969 15.68 93.2329 16.144 93.1369 16.496C93.0409 16.848 92.8809 17.128 92.6569 17.336C92.4329 17.528 92.1369 17.664 91.7689 17.744C91.4009 17.824 90.9449 17.888 90.4009 17.936L88.8169 18.056L87.9769 15.656C87.4649 16.824 86.6569 17.912 85.5529 18.92L83.0809 17.24ZM88.6729 13.136C88.6089 13.472 88.5369 13.8 88.4569 14.12C88.3929 14.44 88.3049 14.752 88.1929 15.056L88.7689 15.032C89.2329 15 89.5529 14.92 89.7289 14.792C89.9049 14.664 90.0089 14.368 90.0409 13.904L90.0649 13.136H88.6729ZM77.1289 13.736C77.0009 14.008 76.8649 14.272 76.7209 14.528C76.5929 14.768 76.4489 15.008 76.2889 15.248H78.3049L79.0729 13.736H77.1289ZM76.1449 19.616H77.0569V18.032H76.1449V19.616ZM80.3209 18.032H79.4569V19.616H80.3209V18.032ZM94.0489 28.568H90.9529V31.76H87.5449V28.568H83.6569V25.04H87.5449V23.456H85.9849L85.6969 24.704L83.2249 24.152C83.3209 23.816 83.4169 23.424 83.5129 22.976C83.6249 22.528 83.7289 22.072 83.8249 21.608C83.9209 21.128 84.0009 20.664 84.0649 20.216C84.1449 19.752 84.2009 19.352 84.2329 19.016L86.6809 19.28C86.6649 19.392 86.6489 19.504 86.6329 19.616C86.6329 19.728 86.6169 19.848 86.5849 19.976H87.5449V18.44L90.9529 18.536V19.976H93.3529V23.456H90.9529V25.04H94.0489V28.568ZM77.0569 24.032V22.424H76.1449V22.952C76.1449 23.144 76.1449 23.328 76.1449 23.504C76.1449 23.68 76.1369 23.856 76.1209 24.032H77.0569ZM79.4569 22.424V24.032H80.3209V22.424H79.4569ZM79.5769 28.76C79.8969 28.728 80.0969 28.664 80.1769 28.568C80.2729 28.472 80.3209 28.272 80.3209 27.968V26.96H79.4569V28.784L79.5769 28.76ZM117.623 15.896H106.727V12.152H109.943C109.863 11.704 109.791 11.272 109.727 10.856C109.663 10.424 109.599 10.064 109.535 9.776L113.423 9.488C113.503 9.856 113.575 10.28 113.639 10.76C113.703 11.224 113.767 11.688 113.831 12.152H117.623V15.896ZM118.535 26.288C118.503 26.592 118.479 26.864 118.463 27.104C118.447 27.328 118.431 27.552 118.415 27.776C118.399 27.984 118.375 28.2 118.343 28.424C118.327 28.648 118.303 28.896 118.271 29.168C118.159 30 117.943 30.6 117.623 30.968C117.303 31.336 116.791 31.536 116.087 31.568C115.863 31.584 115.607 31.592 115.319 31.592C115.047 31.592 114.799 31.584 114.575 31.568C113.951 31.536 113.447 31.312 113.063 30.896C112.679 30.496 112.487 29.816 112.487 28.856V21.296H110.543V22.232C110.543 23.528 110.511 24.632 110.447 25.544C110.383 26.456 110.271 27.272 110.111 27.992C109.951 28.712 109.727 29.376 109.439 29.984C109.167 30.608 108.815 31.28 108.383 32L105.743 30.056C105.615 30.632 105.335 31.024 104.903 31.232C104.487 31.456 103.839 31.624 102.959 31.736L102.047 31.856L100.895 28.4L101.927 28.304C102.311 28.272 102.583 28.176 102.743 28.016C102.919 27.84 103.007 27.608 103.007 27.32V26.552L101.351 27.344C101.319 27.184 101.263 26.984 101.183 26.744C101.119 26.504 101.039 26.256 100.943 26C100.863 25.728 100.775 25.456 100.679 25.184C100.583 24.912 100.495 24.664 100.415 24.44C100.351 25.448 100.263 26.336 100.151 27.104C100.055 27.856 99.9345 28.528 99.7905 29.12C99.6625 29.728 99.5105 30.264 99.3345 30.728C99.1745 31.208 99.0145 31.664 98.8545 32.096L95.6865 30.464C95.8945 29.952 96.0865 29.456 96.2625 28.976C96.4385 28.496 96.5985 27.968 96.7425 27.392C96.8865 26.816 97.0065 26.176 97.1025 25.472C97.1985 24.752 97.2705 23.896 97.3185 22.904H96.2865V19.448H97.3425V11.288H99.5265C99.6225 11 99.7185 10.704 99.8145 10.4C99.9105 10.096 99.9825 9.832 100.031 9.608L103.847 9.656C103.799 9.816 103.711 10.048 103.583 10.352C103.455 10.656 103.327 10.968 103.199 11.288H105.863V28.808V29.216C106.215 28.688 106.495 28.192 106.703 27.728C106.927 27.248 107.095 26.704 107.207 26.096C107.335 25.472 107.415 24.736 107.447 23.888C107.495 23.04 107.519 21.976 107.519 20.696V17.552H115.607V27.32C115.607 27.784 115.719 28.024 115.943 28.04C116.039 28.056 116.127 28.072 116.207 28.088C116.303 28.088 116.391 28.072 116.471 28.04C116.567 28.008 116.639 27.944 116.687 27.848C116.751 27.736 116.799 27.544 116.831 27.272C116.847 27.096 116.855 26.944 116.855 26.816C116.871 26.688 116.879 26.568 116.879 26.456C116.895 26.328 116.903 26.2 116.903 26.072C116.919 25.944 116.927 25.792 116.927 25.616L118.535 26.288ZM100.511 15.464L102.215 14.96C102.343 15.232 102.471 15.568 102.599 15.968C102.743 16.352 102.879 16.736 103.007 17.12V14.456H100.511V15.464ZM100.511 19.448H103.007V18.344L101.423 19.016C101.391 18.84 101.335 18.608 101.255 18.32C101.191 18.032 101.111 17.736 101.015 17.432C100.935 17.112 100.847 16.8 100.751 16.496C100.671 16.192 100.591 15.92 100.511 15.68V19.448ZM102.143 23.12C102.239 23.344 102.367 23.648 102.527 24.032C102.703 24.4 102.863 24.784 103.007 25.184V22.904H100.487C100.471 23.032 100.463 23.16 100.463 23.288C100.463 23.416 100.463 23.544 100.463 23.672L102.143 23.12ZM124.324 16.16C124.1 15.904 123.804 15.576 123.436 15.176C123.084 14.76 122.708 14.352 122.308 13.952C121.908 13.536 121.516 13.152 121.132 12.8C120.764 12.432 120.468 12.16 120.244 11.984L122.812 9.248C123.052 9.424 123.34 9.672 123.676 9.992C124.028 10.312 124.388 10.656 124.756 11.024C125.14 11.376 125.508 11.736 125.86 12.104C126.228 12.456 126.532 12.768 126.772 13.04L124.324 16.16ZM140.404 13.376H127.612V10.088H140.404V13.376ZM134.02 18.92C133.748 19.544 133.468 20.176 133.18 20.816C132.892 21.456 132.612 22.032 132.34 22.544L135.844 22.232C135.7 21.912 135.556 21.616 135.412 21.344C135.284 21.056 135.164 20.808 135.052 20.6L138.196 19.184C138.388 19.504 138.62 19.928 138.892 20.456C139.164 20.984 139.444 21.552 139.732 22.16C140.036 22.768 140.324 23.384 140.596 24.008C140.868 24.616 141.092 25.16 141.268 25.64L137.884 27.488C137.788 27.216 137.684 26.92 137.572 26.6C137.46 26.28 137.34 25.944 137.212 25.592C136.044 25.72 134.988 25.832 134.044 25.928C133.1 26.008 132.196 26.096 131.332 26.192C130.58 26.272 129.956 26.352 129.46 26.432C128.964 26.496 128.508 26.576 128.092 26.672L126.82 23.096C127.14 22.968 127.412 22.848 127.636 22.736C127.86 22.624 128.052 22.496 128.212 22.352C128.388 22.208 128.54 22.04 128.668 21.848C128.796 21.656 128.932 21.416 129.076 21.128C129.204 20.84 129.34 20.504 129.484 20.12C129.644 19.736 129.796 19.336 129.94 18.92H126.676V15.488H141.268V18.92H134.02ZM130.54 27.656C132.38 27.736 134.244 27.752 136.132 27.704C138.036 27.656 139.956 27.576 141.892 27.464L141.052 31.136C139.212 31.216 137.332 31.272 135.412 31.304C133.508 31.336 131.636 31.312 129.796 31.232C129.108 31.216 128.5 31.152 127.972 31.04C127.444 30.944 126.956 30.792 126.508 30.584C126.06 30.392 125.628 30.136 125.212 29.816C124.812 29.512 124.388 29.136 123.94 28.688C123.7 28.96 123.444 29.248 123.172 29.552C122.916 29.856 122.66 30.152 122.404 30.44C122.148 30.728 121.9 30.992 121.66 31.232C121.42 31.472 121.22 31.672 121.06 31.832L119.116 28.04C119.596 27.592 120.06 27.152 120.508 26.72C120.972 26.288 121.468 25.784 121.996 25.208V20.576H119.884V16.904H125.524V25.088C126.084 25.952 126.764 26.584 127.564 26.984C128.38 27.384 129.372 27.608 130.54 27.656ZM164.938 16.784C164.922 17.2 164.906 17.72 164.89 18.344C164.89 18.952 164.882 19.616 164.866 20.336C164.85 21.04 164.834 21.76 164.818 22.496C164.802 23.232 164.786 23.936 164.77 24.608C164.754 25.28 164.738 25.888 164.722 26.432C164.706 26.976 164.69 27.4 164.674 27.704C164.642 28.44 164.562 29.032 164.434 29.48C164.306 29.944 164.106 30.304 163.834 30.56C163.562 30.832 163.202 31.024 162.754 31.136C162.322 31.264 161.786 31.36 161.146 31.424L159.154 31.616L157.93 27.968C157.546 28.672 157.114 29.344 156.634 29.984C156.154 30.624 155.61 31.272 155.002 31.928L151.642 29.792C152.394 29.12 153.05 28.464 153.61 27.824C154.17 27.168 154.658 26.472 155.074 25.736C155.506 24.984 155.882 24.16 156.202 23.264C156.522 22.368 156.818 21.336 157.09 20.168H155.962C155.578 21.688 155.082 23.056 154.474 24.272C153.866 25.488 153.122 26.552 152.242 27.464L150.85 26.432L150.946 29.216C150.53 29.312 149.994 29.416 149.338 29.528C148.698 29.656 148.026 29.776 147.322 29.888C146.634 30.016 145.97 30.136 145.33 30.248C144.706 30.36 144.202 30.44 143.818 30.488L143.338 26.264L145.57 25.952V19.184H144.058V15.056H145.57V9.464L149.17 9.56V15.056H150.73V19.184H149.17V25.352C149.362 25.32 149.522 25.288 149.65 25.256C150.562 24.472 151.25 23.672 151.714 22.856C152.194 22.024 152.554 21.128 152.794 20.168H150.946V17.312L157.474 13.784H151.882V10.16H163.69V13.928L157.786 16.784H164.938ZM161.17 25.928C161.186 25.688 161.202 25.328 161.218 24.848C161.234 24.352 161.25 23.824 161.266 23.264C161.282 22.704 161.298 22.144 161.314 21.584C161.33 21.024 161.346 20.552 161.362 20.168H160.258C160.05 21.736 159.762 23.144 159.394 24.392C159.042 25.624 158.578 26.784 158.002 27.872L159.322 27.752C159.914 27.704 160.354 27.568 160.642 27.344C160.946 27.104 161.122 26.632 161.17 25.928ZM187.215 17.192H169.215V9.968H187.215V17.192ZM173.079 12.032V12.68H183.303V12.032H173.079ZM183.303 15.248V14.552H173.079V15.248H183.303ZM188.775 21.008H167.679V18.152H176.055C176.007 18.024 175.959 17.896 175.911 17.768C175.863 17.64 175.815 17.528 175.767 17.432L180.255 17.408C180.255 17.44 180.271 17.528 180.303 17.672C180.351 17.816 180.407 17.976 180.471 18.152H188.775V21.008ZM183.087 26.432C183.503 26.56 183.967 26.72 184.479 26.912C185.007 27.088 185.535 27.272 186.063 27.464C186.591 27.656 187.095 27.848 187.575 28.04C188.055 28.232 188.471 28.4 188.823 28.544L187.455 31.664C187.023 31.472 186.535 31.248 185.991 30.992C185.447 30.752 184.887 30.504 184.311 30.248C183.735 30.008 183.167 29.768 182.607 29.528C182.063 29.304 181.583 29.112 181.167 28.952L182.631 26.432H180.615V28.928C180.615 29.472 180.559 29.912 180.447 30.248C180.335 30.6 180.135 30.88 179.847 31.088C179.575 31.296 179.191 31.448 178.695 31.544C178.215 31.64 177.591 31.712 176.823 31.76L175.215 31.88L174.231 29.096C173.879 29.304 173.487 29.528 173.055 29.768C172.639 30.008 172.207 30.24 171.759 30.464C171.327 30.704 170.895 30.928 170.463 31.136C170.031 31.36 169.631 31.552 169.263 31.712L167.511 28.664C168.231 28.392 169.007 28.056 169.839 27.656C170.687 27.256 171.463 26.848 172.167 26.432H169.671V21.68H186.783V26.432H183.087ZM173.583 24.44H182.871V23.576H173.583V24.44ZM176.679 26.432H173.439L175.023 28.4L175.239 28.376C175.847 28.312 176.239 28.2 176.415 28.04C176.591 27.864 176.679 27.544 176.679 27.08V26.432ZM192.765 32.264C193.005 31.8 193.245 31.232 193.485 30.56C193.741 29.904 193.965 29.224 194.157 28.52C194.365 27.816 194.533 27.12 194.661 26.432C194.789 25.728 194.853 25.104 194.853 24.56H199.221C199.221 25.056 199.133 25.656 198.957 26.36C198.797 27.048 198.581 27.76 198.309 28.496C198.037 29.232 197.733 29.936 197.397 30.608C197.077 31.28 196.757 31.832 196.437 32.264H192.765ZM236.235 16.784C236.219 17.2 236.203 17.72 236.187 18.344C236.187 18.952 236.179 19.616 236.163 20.336C236.147 21.04 236.131 21.76 236.115 22.496C236.099 23.232 236.083 23.936 236.067 24.608C236.051 25.28 236.035 25.888 236.019 26.432C236.003 26.976 235.987 27.4 235.971 27.704C235.939 28.44 235.859 29.032 235.731 29.48C235.603 29.944 235.403 30.304 235.131 30.56C234.859 30.832 234.499 31.024 234.051 31.136C233.619 31.264 233.083 31.36 232.443 31.424L230.451 31.616L229.227 27.968C228.843 28.672 228.411 29.344 227.931 29.984C227.451 30.624 226.907 31.272 226.299 31.928L222.939 29.792C223.691 29.12 224.347 28.464 224.907 27.824C225.467 27.168 225.955 26.472 226.371 25.736C226.803 24.984 227.179 24.16 227.499 23.264C227.819 22.368 228.115 21.336 228.387 20.168H227.259C226.875 21.688 226.379 23.056 225.771 24.272C225.163 25.488 224.419 26.552 223.539 27.464L222.147 26.432L222.243 29.216C221.827 29.312 221.291 29.416 220.635 29.528C219.995 29.656 219.323 29.776 218.619 29.888C217.931 30.016 217.267 30.136 216.627 30.248C216.003 30.36 215.499 30.44 215.115 30.488L214.635 26.264L216.867 25.952V19.184H215.355V15.056H216.867V9.464L220.467 9.56V15.056H222.027V19.184H220.467V25.352C220.659 25.32 220.819 25.288 220.947 25.256C221.859 24.472 222.547 23.672 223.011 22.856C223.491 22.024 223.851 21.128 224.091 20.168H222.243V17.312L228.771 13.784H223.179V10.16H234.987V13.928L229.083 16.784H236.235ZM232.467 25.928C232.483 25.688 232.499 25.328 232.515 24.848C232.531 24.352 232.547 23.824 232.563 23.264C232.579 22.704 232.595 22.144 232.611 21.584C232.627 21.024 232.643 20.552 232.659 20.168H231.555C231.347 21.736 231.059 23.144 230.691 24.392C230.339 25.624 229.875 26.784 229.299 27.872L230.619 27.752C231.211 27.704 231.651 27.568 231.939 27.344C232.243 27.104 232.419 26.632 232.467 25.928ZM258.512 17.192H240.512V9.968H258.512V17.192ZM244.376 12.032V12.68H254.6V12.032H244.376ZM254.6 15.248V14.552H244.376V15.248H254.6ZM260.072 21.008H238.976V18.152H247.352C247.304 18.024 247.256 17.896 247.208 17.768C247.16 17.64 247.112 17.528 247.064 17.432L251.552 17.408C251.552 17.44 251.568 17.528 251.6 17.672C251.648 17.816 251.704 17.976 251.768 18.152H260.072V21.008ZM254.384 26.432C254.8 26.56 255.264 26.72 255.776 26.912C256.304 27.088 256.832 27.272 257.36 27.464C257.888 27.656 258.392 27.848 258.872 28.04C259.352 28.232 259.768 28.4 260.12 28.544L258.752 31.664C258.32 31.472 257.832 31.248 257.288 30.992C256.744 30.752 256.184 30.504 255.608 30.248C255.032 30.008 254.464 29.768 253.904 29.528C253.36 29.304 252.88 29.112 252.464 28.952L253.928 26.432H251.912V28.928C251.912 29.472 251.856 29.912 251.744 30.248C251.632 30.6 251.432 30.88 251.144 31.088C250.872 31.296 250.488 31.448 249.992 31.544C249.512 31.64 248.888 31.712 248.12 31.76L246.512 31.88L245.528 29.096C245.176 29.304 244.784 29.528 244.352 29.768C243.936 30.008 243.504 30.24 243.056 30.464C242.624 30.704 242.192 30.928 241.76 31.136C241.328 31.36 240.928 31.552 240.56 31.712L238.808 28.664C239.528 28.392 240.304 28.056 241.136 27.656C241.984 27.256 242.76 26.848 243.464 26.432H240.968V21.68H258.08V26.432H254.384ZM244.88 24.44H254.168V23.576H244.88V24.44ZM247.976 26.432H244.736L246.32 28.4L246.536 28.376C247.144 28.312 247.536 28.2 247.712 28.04C247.888 27.864 247.976 27.544 247.976 27.08V26.432ZM275.966 27.56C277.39 27.592 278.806 27.608 280.214 27.608C281.622 27.592 283.038 27.568 284.462 27.536L283.55 31.304C280.542 31.384 277.542 31.384 274.55 31.304C273.27 31.272 272.054 31.016 270.902 30.536C269.75 30.072 268.758 29.312 267.926 28.256C267.622 28.912 267.278 29.528 266.894 30.104C266.51 30.696 266.07 31.288 265.574 31.88L262.19 29.576C262.734 28.92 263.198 28.296 263.582 27.704C263.982 27.112 264.318 26.504 264.59 25.88C264.862 25.24 265.078 24.544 265.238 23.792C265.414 23.04 265.558 22.184 265.67 21.224L269.558 21.584C269.494 22.128 269.422 22.648 269.342 23.144C269.278 23.624 269.198 24.096 269.102 24.56C269.502 25.2 269.95 25.72 270.446 26.12C270.942 26.52 271.494 26.832 272.102 27.056V19.904H264.278V17H263.27V10.928H271.478C271.382 10.624 271.286 10.328 271.19 10.04C271.11 9.752 271.046 9.544 270.998 9.416H275.534C275.614 9.64 275.686 9.888 275.75 10.16C275.83 10.432 275.902 10.688 275.966 10.928H283.67V17H282.638V19.904H275.966V22.136H282.35V25.472H275.966V27.56ZM266.87 14.624V16.52H279.854V14.624H266.87ZM296.516 16.616C296.324 16.136 296.108 15.632 295.868 15.104C295.644 14.576 295.404 14.056 295.148 13.544C294.908 13.032 294.668 12.552 294.428 12.104C294.204 11.656 294.004 11.272 293.828 10.952L297.452 9.368C297.66 9.736 297.892 10.152 298.148 10.616C298.42 11.064 298.684 11.528 298.94 12.008C299.196 12.488 299.428 12.952 299.636 13.4C299.86 13.832 300.044 14.208 300.188 14.528L296.516 16.616ZM305.492 31.784C303.876 30.984 302.38 30.152 301.004 29.288C299.644 28.44 298.388 27.52 297.236 26.528C296.132 27.408 294.9 28.272 293.54 29.12C292.18 29.968 290.612 30.88 288.836 31.856L285.86 27.992C287.572 27.24 289.1 26.512 290.444 25.808C291.804 25.088 293.028 24.32 294.116 23.504C292.852 22.08 291.716 20.536 290.708 18.872C289.716 17.208 288.812 15.376 287.996 13.376L291.788 11.744C292.556 13.632 293.364 15.304 294.212 16.76C295.076 18.216 296.052 19.544 297.14 20.744C298.212 19.528 299.156 18.144 299.972 16.592C300.788 15.024 301.548 13.184 302.252 11.072L306.284 12.584C305.804 13.816 305.332 14.96 304.868 16.016C304.42 17.056 303.956 18.024 303.476 18.92C302.996 19.816 302.492 20.648 301.964 21.416C301.452 22.184 300.9 22.912 300.308 23.6C301.396 24.416 302.588 25.176 303.884 25.88C305.196 26.584 306.66 27.272 308.276 27.944L305.492 31.784ZM328.273 14.816C328.145 15.28 328.001 15.792 327.841 16.352C327.697 16.912 327.553 17.456 327.409 17.984H330.937V21.728H315.817V22.208C315.817 23.344 315.761 24.36 315.649 25.256C315.537 26.136 315.369 26.952 315.145 27.704C314.921 28.456 314.641 29.168 314.305 29.84C313.969 30.528 313.585 31.232 313.153 31.952L309.289 29.912C309.801 29.144 310.225 28.464 310.561 27.872C310.897 27.28 311.161 26.68 311.353 26.072C311.545 25.448 311.681 24.76 311.761 24.008C311.841 23.256 311.881 22.336 311.881 21.248V17.984H315.361C315.265 17.504 315.153 17 315.025 16.472C314.913 15.928 314.777 15.376 314.617 14.816H310.681V11.168H319.033C318.969 10.816 318.897 10.488 318.817 10.184C318.753 9.88 318.697 9.64 318.649 9.464L323.329 9.392C323.393 9.664 323.449 9.952 323.497 10.256C323.561 10.56 323.625 10.864 323.689 11.168H331.681V14.816H328.273ZM323.353 17.984C323.481 17.52 323.593 17.032 323.689 16.52C323.801 15.992 323.921 15.424 324.049 14.816H318.841C318.969 15.408 319.089 15.976 319.201 16.52C319.313 17.064 319.409 17.552 319.489 17.984H323.353ZM336.199 19.352V10.256H352.903V19.352H336.199ZM339.943 13.76V15.848H349.159V13.76H339.943ZM343.927 20.552V31.4H334.663V20.552H343.927ZM354.535 31.4H345.127V20.552H354.535V31.4ZM338.023 27.68H340.567V24.056H338.023V27.68ZM351.103 24.056H348.511V27.68H351.103V24.056ZM366.636 15.68C366.636 16 366.628 16.312 366.612 16.616C366.612 16.92 366.612 17.192 366.612 17.432C366.612 17.512 366.612 17.592 366.612 17.672C366.612 17.752 366.604 17.832 366.588 17.912H376.74L376.284 27.368C376.236 28.104 376.116 28.696 375.924 29.144C375.748 29.608 375.492 29.976 375.156 30.248C374.82 30.52 374.396 30.72 373.884 30.848C373.372 30.976 372.756 31.072 372.036 31.136L368.94 31.448L367.74 27.248L370.38 27.008C370.748 26.976 371.044 26.928 371.268 26.864C371.508 26.8 371.692 26.712 371.82 26.6C371.964 26.488 372.06 26.336 372.108 26.144C372.172 25.952 372.22 25.704 372.252 25.4L372.42 21.992H366.18C365.988 22.984 365.732 23.904 365.412 24.752C365.108 25.584 364.724 26.4 364.26 27.2C363.796 27.984 363.252 28.76 362.628 29.528C362.004 30.296 361.284 31.088 360.468 31.904L356.964 29.048C357.988 28.072 358.844 27.176 359.532 26.36C360.22 25.528 360.772 24.664 361.188 23.768C361.62 22.856 361.932 21.848 362.124 20.744C362.316 19.64 362.428 18.328 362.46 16.808L362.484 15.68H357.876V11.792H366.396C366.316 11.376 366.236 10.944 366.156 10.496C366.076 10.048 366.004 9.688 365.94 9.416H370.452C370.516 9.784 370.58 10.184 370.644 10.616C370.724 11.032 370.796 11.424 370.86 11.792H378.996V15.68H366.636ZM385.842 14.288H382.194V10.544H390.138C390.058 10.336 389.978 10.136 389.898 9.944C389.818 9.736 389.738 9.568 389.658 9.44L394.242 9.416C394.258 9.448 394.298 9.584 394.362 9.824C394.442 10.064 394.522 10.304 394.602 10.544H402.066V14.288H398.274V13.448H385.842V14.288ZM401.73 31.592C400.402 31.192 399.066 30.728 397.722 30.2C396.394 29.688 395.162 29.096 394.026 28.424V31.736H390.282V28.448C389.178 29.072 387.962 29.648 386.634 30.176C385.306 30.704 383.962 31.176 382.602 31.592L380.73 28.208C384.282 27.584 387.042 26.824 389.01 25.928H381.786V23.024H390.282V22.088L394.026 22.184V23.024H400.026C398.89 22.672 397.73 22.328 396.546 21.992C395.378 21.656 394.194 21.328 392.994 21.008C391.842 21.344 390.49 21.664 388.938 21.968C387.402 22.256 385.586 22.536 383.49 22.808L382.05 19.952C383.106 19.872 384.066 19.792 384.93 19.712C385.794 19.616 386.586 19.528 387.306 19.448C386.842 19.32 386.394 19.2 385.962 19.088C385.53 18.976 385.106 18.864 384.69 18.752C384.866 18.576 385.034 18.408 385.194 18.248C385.354 18.088 385.514 17.92 385.674 17.744H381.282V14.816H388.17C388.298 14.672 388.41 14.528 388.506 14.384C388.618 14.224 388.722 14.072 388.818 13.928H393.21L392.49 14.816H402.954V17.744H398.85C398.626 17.984 398.378 18.224 398.106 18.464C397.85 18.688 397.562 18.912 397.242 19.136C397.978 19.28 398.682 19.432 399.354 19.592C400.042 19.752 400.722 19.912 401.394 20.072L400.29 23.024H402.522V25.928H395.154C396.258 26.408 397.538 26.84 398.994 27.224C400.45 27.592 401.938 27.912 403.458 28.184L401.73 31.592ZM389.658 17.888C390.09 17.952 390.546 18.032 391.026 18.128C391.522 18.208 392.01 18.296 392.49 18.392C392.97 18.216 393.378 18.016 393.714 17.792C394.05 17.568 394.354 17.32 394.626 17.048H390.522C390.378 17.192 390.234 17.336 390.09 17.48C389.946 17.624 389.802 17.76 389.658 17.888Z" fill="white"/>
</svg>
