<svg width="480" height="71" viewBox="0 0 480 71" fill="none" xmlns="http://www.w3.org/2000/svg">
<path d="M20.736 26.48V31.832H16.92V26.888L10.632 27.584L10.44 25.016L8.976 26.528C8.832 26.304 8.632 26.024 8.376 25.688C8.136 25.352 7.88 25.008 7.608 24.656V31.712H3.864V25.136C3.432 25.92 2.976 26.664 2.496 27.368C2.016 28.056 1.64 28.584 1.368 28.952L0.48 24.128C1.136 23.312 1.744 22.52 2.304 21.752C2.864 20.984 3.312 20.24 3.648 19.52H1.2V15.848H3.864V13.832C3.48 13.864 3.112 13.888 2.76 13.904C2.408 13.92 2.08 13.936 1.776 13.952L1.416 10.4C1.96 10.384 2.584 10.352 3.288 10.304C4.008 10.256 4.736 10.208 5.472 10.16C6.224 10.112 6.952 10.064 7.656 10.016C8.376 9.952 9.016 9.888 9.576 9.824L10.104 13.328C9.784 13.36 9.408 13.4 8.976 13.448C8.544 13.496 8.088 13.536 7.608 13.568V15.848H9.888V19.52H7.608V21.632L8.52 20.864C8.632 20.976 8.784 21.136 8.976 21.344C9.184 21.536 9.408 21.76 9.648 22.016C9.888 22.256 10.128 22.512 10.368 22.784C10.624 23.056 10.856 23.312 11.064 23.552L16.92 22.88V13.88L14.64 16.736C14.368 16.448 14.064 16.136 13.728 15.8C13.408 15.464 13.08 15.144 12.744 14.84C12.424 14.52 12.112 14.224 11.808 13.952C11.504 13.664 11.248 13.432 11.04 13.256L13.368 10.592C13.912 11.008 14.504 11.512 15.144 12.104C15.8 12.696 16.392 13.272 16.92 13.832V9.416L20.736 9.512V22.472L22.584 22.256L22.872 26.24L20.736 26.48ZM13.584 22.712C13.344 22.424 13.064 22.112 12.744 21.776C12.424 21.44 12.096 21.112 11.76 20.792C11.424 20.472 11.096 20.176 10.776 19.904C10.472 19.616 10.208 19.384 9.984 19.208L12.288 16.496C12.848 16.896 13.456 17.4 14.112 18.008C14.784 18.6 15.392 19.176 15.936 19.736L13.584 22.712ZM30.9176 23.624V28.76C30.9176 29.336 30.8696 29.8 30.7736 30.152C30.6936 30.52 30.5496 30.808 30.3416 31.016C30.1336 31.24 29.8536 31.4 29.5016 31.496C29.1496 31.592 28.7176 31.664 28.2056 31.712L26.3336 31.88L25.3256 28.04L26.5976 27.92C26.8856 27.888 27.0776 27.8 27.1736 27.656C27.2856 27.512 27.3416 27.224 27.3416 26.792V24.128C26.8456 24.208 26.3736 24.28 25.9256 24.344C25.4936 24.408 25.1176 24.472 24.7976 24.536L24.4376 20.552C24.8536 20.504 25.3096 20.456 25.8056 20.408C26.3016 20.344 26.8136 20.272 27.3416 20.192V16.808H25.1816V13.04H27.3416V9.416L30.9176 9.512V13.04H32.7416V16.808H30.9176V19.688C31.2056 19.656 31.4856 19.616 31.7576 19.568C32.0296 19.52 32.2936 19.48 32.5496 19.448L32.5736 23.36L30.9176 23.624ZM45.0536 31.736C43.9496 31.288 42.9416 30.824 42.0296 30.344C41.1336 29.864 40.2856 29.344 39.4856 28.784C38.7176 29.312 37.8376 29.824 36.8456 30.32C35.8536 30.816 34.7096 31.336 33.4136 31.88L31.4456 28.136C32.4376 27.816 33.3416 27.488 34.1576 27.152C34.9736 26.8 35.7176 26.432 36.3896 26.048C35.9256 25.52 35.4696 24.96 35.0216 24.368C34.5896 23.76 34.1576 23.104 33.7256 22.4L36.0536 21.128H33.2936V17.384H37.3736V15.536H33.1496V11.6H37.3736V9.416L41.3096 9.512V11.6H46.2296V15.536H41.3096V17.384H45.3176V21.416C44.9016 22.36 44.4696 23.208 44.0216 23.96C43.5896 24.712 43.1096 25.416 42.5816 26.072C43.8456 26.68 45.3256 27.208 47.0216 27.656L45.0536 31.736ZM37.2776 21.128C37.8216 22.136 38.5096 23.048 39.3416 23.864C40.1736 23.048 40.8456 22.136 41.3576 21.128H37.2776ZM59.3393 22.52C59.3393 23.256 59.2433 23.848 59.0513 24.296C58.8753 24.728 58.5793 25.056 58.1633 25.28L61.1153 26.48C61.0353 27.008 60.9633 27.424 60.8993 27.728C60.8513 28.016 60.7953 28.288 60.7313 28.544C60.6033 29.072 60.4433 29.504 60.2513 29.84C60.0753 30.176 59.8273 30.44 59.5073 30.632C59.2033 30.84 58.8193 30.984 58.3553 31.064C57.9073 31.16 57.3473 31.216 56.6753 31.232C55.4753 31.28 54.2833 31.28 53.0993 31.232C52.5713 31.216 52.1073 31.144 51.7073 31.016C51.3073 30.888 50.9713 30.68 50.6992 30.392C50.4273 30.12 50.2193 29.76 50.0753 29.312C49.9313 28.864 49.8593 28.312 49.8593 27.656V18.896L49.5473 19.136L47.8673 15.704C48.3793 15.272 48.8993 14.808 49.4273 14.312C49.9713 13.8 50.4913 13.28 50.9873 12.752C51.4993 12.208 51.9713 11.656 52.4033 11.096C52.8353 10.536 53.2113 9.976 53.5312 9.416L57.3713 10.136C57.2113 10.44 57.0513 10.736 56.8913 11.024C57.3073 11.328 57.8833 11.784 58.6193 12.392C59.3553 12.984 60.1473 13.64 60.9953 14.36V11.36L64.3313 11.456V26.192H60.9953V16.328L59.6512 18.128L59.3393 17.84V22.52ZM69.5153 9.632V28.304C69.5153 28.88 69.4593 29.368 69.3473 29.768C69.2513 30.168 69.0593 30.488 68.7713 30.728C68.4993 30.984 68.1233 31.176 67.6433 31.304C67.1633 31.448 66.5553 31.552 65.8193 31.616L63.9473 31.784L62.8433 27.968L64.4753 27.824C64.7953 27.808 65.0593 27.776 65.2673 27.728C65.4753 27.68 65.6353 27.6 65.7473 27.488C65.8753 27.376 65.9633 27.232 66.0113 27.056C66.0593 26.864 66.0833 26.616 66.0833 26.312V9.536L69.5153 9.632ZM58.0193 16.616C57.4113 16.056 56.8273 15.528 56.2673 15.032C55.7073 14.536 55.2513 14.152 54.8993 13.88C54.5313 14.344 54.1313 14.808 53.6992 15.272C53.2833 15.72 52.8513 16.168 52.4033 16.616H58.0193ZM57.6353 25.52C57.4593 25.568 57.2593 25.616 57.0353 25.664C56.8273 25.696 56.5953 25.728 56.3393 25.76L54.9713 25.904L54.0593 22.688L55.0913 22.592C55.5553 22.544 55.8593 22.456 56.0033 22.328C56.1473 22.184 56.2193 21.88 56.2193 21.416V20.072H53.1473V26.24C53.1473 26.784 53.2433 27.152 53.4353 27.344C53.6273 27.52 53.9633 27.632 54.4433 27.68C54.9713 27.728 55.4993 27.728 56.0273 27.68C56.4913 27.632 56.8113 27.528 56.9873 27.368C57.1793 27.192 57.3393 26.848 57.4673 26.336L57.6353 25.52ZM94.2409 19.976H92.6329V31.616H89.2249V19.976H88.0729V20.648C88.0729 21.976 88.0409 23.152 87.9769 24.176C87.9129 25.184 87.8009 26.12 87.6409 26.984C87.4969 27.848 87.2889 28.672 87.0169 29.456C86.7449 30.256 86.4009 31.096 85.9849 31.976L82.4809 30.32C82.9289 29.536 83.2969 28.776 83.5849 28.04L81.9769 29.096C81.7529 28.76 81.4809 28.352 81.1609 27.872C80.8569 27.376 80.5689 26.936 80.2969 26.552V29.168C80.2969 29.648 80.2569 30.04 80.1769 30.344C80.0969 30.664 79.9449 30.912 79.7209 31.088C79.5129 31.28 79.2249 31.424 78.8569 31.52C78.4889 31.616 78.0089 31.688 77.4169 31.736L76.2169 31.832L75.2329 28.712C75.1049 29.08 74.9689 29.424 74.8249 29.744C74.6969 30.08 74.5769 30.376 74.4649 30.632L71.8729 29.48C72.0329 29.176 72.2089 28.816 72.4009 28.4C72.5929 27.984 72.7769 27.552 72.9529 27.104C73.1289 26.64 73.2889 26.176 73.4329 25.712C73.5929 25.248 73.7289 24.816 73.8409 24.416L76.4569 25.232C76.3289 25.632 76.1769 26.096 76.0009 26.624C75.8249 27.152 75.6329 27.68 75.4249 28.208L75.7369 28.16C75.9769 28.128 76.1689 28.088 76.3129 28.04C76.4729 27.992 76.6009 27.928 76.6969 27.848C76.7929 27.752 76.8569 27.632 76.8889 27.488C76.9369 27.328 76.9609 27.128 76.9609 26.888V24.008H72.7369V20.864H76.9609V19.496H72.1849V16.376H74.5129C74.3849 15.992 74.2489 15.592 74.1049 15.176C73.9769 14.76 73.8569 14.392 73.7449 14.072H72.9769V10.928H76.6009C76.5529 10.64 76.4969 10.368 76.4329 10.112C76.3849 9.84 76.3449 9.616 76.3129 9.44H80.0569L80.3209 10.928H83.8009V14.072H82.9609C82.8649 14.376 82.7369 14.744 82.5769 15.176C82.4329 15.608 82.2889 16.008 82.1449 16.376H83.9689V19.496H80.2969V20.864H83.8009V24.008H80.2969V25.832L82.2889 24.56C82.5609 24.928 82.8409 25.328 83.1289 25.76C83.4329 26.192 83.7129 26.592 83.9689 26.96C84.1129 26.496 84.2329 26.008 84.3289 25.496C84.4249 24.984 84.5049 24.44 84.5689 23.864C84.6329 23.272 84.6809 22.632 84.7129 21.944C84.7449 21.256 84.7609 20.496 84.7609 19.664V10.736C85.4009 10.72 86.0809 10.68 86.8009 10.616C87.5369 10.536 88.2649 10.44 88.9849 10.328C89.7049 10.216 90.3849 10.096 91.0249 9.968C91.6649 9.824 92.2249 9.672 92.7049 9.512L93.8569 13.208C93.5849 13.304 93.2249 13.408 92.7769 13.52C92.3289 13.632 91.8409 13.736 91.3129 13.832C90.7849 13.928 90.2329 14.016 89.6569 14.096C89.0969 14.16 88.5689 14.208 88.0729 14.24V16.184H94.2409V19.976ZM77.1529 14.072C77.2649 14.392 77.3849 14.76 77.5129 15.176C77.6409 15.576 77.7689 15.976 77.8969 16.376H78.8569C78.9849 16.008 79.1049 15.616 79.2169 15.2C79.3449 14.784 79.4569 14.408 79.5529 14.072H77.1529ZM117.815 27.656V31.352H105.887V10.16H117.335V13.832H109.343V15.728L111.575 14.696L113.159 17.408C113.367 16.944 113.567 16.48 113.759 16.016C113.951 15.552 114.143 15.08 114.335 14.6L117.167 15.704C116.847 16.568 116.511 17.416 116.159 18.248C115.823 19.08 115.447 19.92 115.031 20.768C115.495 21.616 115.935 22.44 116.351 23.24C116.767 24.024 117.127 24.72 117.431 25.328L114.503 26.936C114.087 26.072 113.639 25.152 113.159 24.176C112.887 24.608 112.599 25.056 112.295 25.52C111.991 25.968 111.679 26.424 111.359 26.888L109.343 25.424V27.656H117.815ZM104.015 19.568H104.783L104.471 28.64C104.439 29.248 104.359 29.736 104.231 30.104C104.103 30.472 103.903 30.768 103.631 30.992C103.359 31.216 103.007 31.376 102.575 31.472C102.143 31.584 101.615 31.672 100.991 31.736L99.3105 31.904L98.3505 28.928L99.8385 28.832C100.127 28.816 100.367 28.792 100.559 28.76C100.767 28.712 100.935 28.64 101.062 28.544C101.207 28.432 101.311 28.288 101.375 28.112C101.439 27.936 101.479 27.688 101.495 27.368L101.519 26.96C101.183 26.992 100.775 27.032 100.295 27.08C99.8305 27.128 99.3345 27.184 98.8065 27.248C98.2945 27.296 97.7905 27.344 97.2945 27.392C96.7985 27.44 96.3665 27.48 95.9985 27.512L95.6865 24.2C96.0225 24.184 96.4465 24.16 96.9585 24.128C97.4865 24.08 98.0305 24.04 98.5905 24.008C99.1665 23.96 99.7185 23.92 100.247 23.888C100.791 23.84 101.247 23.8 101.615 23.768L101.663 22.592H96.6705L97.0305 14.36L100.031 14.456L99.8625 19.568H101.015L101.303 13.4H96.3585V10.184H104.447L104.015 19.568ZM111.407 20.792C111.039 20.088 110.679 19.408 110.327 18.752C109.991 18.096 109.663 17.48 109.343 16.904V24.032C109.727 23.472 110.087 22.928 110.423 22.4C110.759 21.856 111.087 21.32 111.407 20.792ZM140.932 13.4C140.916 14.136 140.9 14.952 140.884 15.848C140.868 16.728 140.852 17.64 140.836 18.584C140.82 19.528 140.796 20.472 140.764 21.416C140.748 22.36 140.732 23.256 140.716 24.104C140.7 24.936 140.684 25.704 140.668 26.408C140.652 27.096 140.644 27.656 140.644 28.088C140.628 28.744 140.564 29.272 140.452 29.672C140.34 30.072 140.156 30.392 139.9 30.632C139.644 30.872 139.3 31.048 138.868 31.16C138.452 31.272 137.932 31.368 137.308 31.448L135.748 31.64L134.452 27.584L135.436 27.44C135.756 27.392 136.02 27.352 136.228 27.32C136.452 27.272 136.62 27.192 136.732 27.08C136.86 26.968 136.948 26.808 136.996 26.6C137.06 26.376 137.1 26.064 137.116 25.664C137.132 25.264 137.148 24.712 137.164 24.008C137.18 23.304 137.196 22.552 137.212 21.752C137.244 20.952 137.268 20.168 137.284 19.4C137.3 18.616 137.308 17.96 137.308 17.432H135.748C135.7 18.712 135.636 19.856 135.556 20.864C135.492 21.872 135.396 22.8 135.268 23.648C135.156 24.48 135.012 25.248 134.836 25.952C134.676 26.64 134.468 27.312 134.212 27.968C133.972 28.624 133.684 29.28 133.348 29.936C133.028 30.608 132.66 31.312 132.244 32.048L130.252 30.752L128.404 31.328L128.068 29.984C127.796 30.016 127.492 30.048 127.156 30.08C126.836 30.128 126.5 30.176 126.148 30.224C125.812 30.272 125.476 30.32 125.14 30.368C124.804 30.416 124.492 30.456 124.204 30.488C123.548 30.584 122.948 30.68 122.404 30.776C121.876 30.888 121.444 30.992 121.108 31.088L119.74 27.2C119.996 27.056 120.204 26.912 120.364 26.768C120.54 26.624 120.684 26.472 120.796 26.312C120.924 26.136 121.028 25.936 121.108 25.712C121.204 25.488 121.308 25.216 121.42 24.896C121.548 24.48 121.708 23.848 121.9 23C122.092 22.152 122.284 21.248 122.476 20.288H119.596V16.424H130.3V13.4H132.316L132.34 9.44L135.892 9.536C135.892 9.728 135.892 9.936 135.892 10.16C135.892 10.368 135.892 10.624 135.892 10.928C135.892 11.216 135.884 11.568 135.868 11.984C135.868 12.384 135.86 12.856 135.844 13.4H140.932ZM129.916 14.12H120.916V10.328H129.916V14.12ZM130.612 26.504C130.868 25.928 131.084 25.344 131.26 24.752C131.452 24.144 131.612 23.488 131.74 22.784C131.868 22.064 131.964 21.272 132.028 20.408C132.108 19.528 132.172 18.536 132.22 17.432H130.54V20.288H126.316C126.204 20.784 126.068 21.328 125.908 21.92C125.764 22.496 125.612 23.072 125.452 23.648C125.292 24.224 125.132 24.768 124.972 25.28C124.828 25.776 124.692 26.192 124.564 26.528L127.108 26.312C126.9 25.592 126.7 24.888 126.508 24.2C126.316 23.512 126.132 22.888 125.956 22.328L129.028 21.44C129.252 22.064 129.5 22.824 129.772 23.72C130.06 24.616 130.34 25.544 130.612 26.504ZM161.914 14.816C161.786 15.28 161.642 15.792 161.482 16.352C161.338 16.912 161.194 17.456 161.05 17.984H164.578V21.728H149.458V22.208C149.458 23.344 149.402 24.36 149.29 25.256C149.178 26.136 149.01 26.952 148.786 27.704C148.562 28.456 148.282 29.168 147.946 29.84C147.61 30.528 147.226 31.232 146.794 31.952L142.93 29.912C143.442 29.144 143.866 28.464 144.202 27.872C144.538 27.28 144.802 26.68 144.994 26.072C145.186 25.448 145.322 24.76 145.402 24.008C145.482 23.256 145.522 22.336 145.522 21.248V17.984H149.002C148.906 17.504 148.794 17 148.666 16.472C148.554 15.928 148.418 15.376 148.258 14.816H144.322V11.168H152.674C152.61 10.816 152.538 10.488 152.458 10.184C152.394 9.88 152.338 9.64 152.29 9.464L156.97 9.392C157.034 9.664 157.09 9.952 157.138 10.256C157.202 10.56 157.266 10.864 157.33 11.168H165.322V14.816H161.914ZM156.994 17.984C157.122 17.52 157.234 17.032 157.33 16.52C157.442 15.992 157.562 15.424 157.69 14.816H152.482C152.61 15.408 152.73 15.976 152.842 16.52C152.954 17.064 153.05 17.552 153.13 17.984H156.994ZM169.839 19.352V10.256H186.543V19.352H169.839ZM173.583 13.76V15.848H182.799V13.76H173.583ZM177.567 20.552V31.4H168.303V20.552H177.567ZM188.175 31.4H178.767V20.552H188.175V31.4ZM171.663 27.68H174.207V24.056H171.663V27.68ZM184.743 24.056H182.151V27.68H184.743V24.056ZM213.357 27.368L212.517 31.04C210.677 31.12 208.757 31.168 206.757 31.184C204.773 31.216 202.861 31.2 201.021 31.136C200.333 31.12 199.733 31.056 199.221 30.944C198.725 30.848 198.269 30.696 197.853 30.488C197.437 30.296 197.037 30.04 196.653 29.72C196.269 29.416 195.853 29.04 195.405 28.592C195.165 28.864 194.909 29.152 194.637 29.456C194.381 29.76 194.125 30.056 193.869 30.344C193.613 30.632 193.365 30.896 193.125 31.136C192.885 31.376 192.685 31.576 192.525 31.736L190.581 27.944C191.061 27.496 191.525 27.056 191.973 26.624C192.437 26.192 192.933 25.688 193.461 25.112V20.48H191.349V16.808H196.989V24.992C197.421 25.664 197.893 26.192 198.405 26.576C198.933 26.96 199.573 27.232 200.325 27.392L198.021 24.536C199.333 23.896 200.381 23.288 201.165 22.712C201.965 22.136 202.573 21.472 202.989 20.72H198.261V17.288H203.853C203.869 17.016 203.877 16.728 203.877 16.424C203.893 16.12 203.901 15.8 203.901 15.464V15.368H201.741C201.677 15.64 201.613 15.896 201.549 16.136C201.485 16.36 201.413 16.576 201.333 16.784L198.165 15.992C198.901 14.296 199.397 12.264 199.653 9.896L202.725 10.184C202.693 10.456 202.653 10.744 202.605 11.048C202.573 11.352 202.525 11.672 202.461 12.008H203.901V9.2L207.477 9.296V12.008H211.677V15.368H207.477C207.477 15.72 207.469 16.056 207.453 16.376C207.453 16.68 207.445 16.984 207.429 17.288H212.229V20.72H206.997C206.965 20.816 206.949 20.872 206.949 20.888C207.381 21.16 207.837 21.456 208.317 21.776C208.797 22.096 209.261 22.416 209.709 22.736C210.173 23.04 210.597 23.344 210.981 23.648C211.381 23.936 211.717 24.184 211.989 24.392L210.453 27.512L213.357 27.368ZM195.525 16.016C195.333 15.728 195.061 15.384 194.709 14.984C194.357 14.584 193.989 14.176 193.605 13.76C193.221 13.344 192.845 12.952 192.477 12.584C192.125 12.216 191.845 11.928 191.637 11.72L194.421 9.224C194.629 9.416 194.893 9.672 195.213 9.992C195.533 10.312 195.861 10.656 196.197 11.024C196.533 11.376 196.861 11.736 197.181 12.104C197.501 12.472 197.773 12.8 197.997 13.088L195.525 16.016ZM201.765 27.56C203.061 27.608 204.381 27.632 205.725 27.632C207.085 27.616 208.461 27.584 209.853 27.536C209.565 27.296 209.237 27.032 208.869 26.744C208.517 26.456 208.141 26.16 207.741 25.856C207.341 25.552 206.933 25.256 206.517 24.968C206.101 24.664 205.701 24.376 205.317 24.104C204.821 24.696 204.221 25.264 203.517 25.808C202.813 26.336 201.965 26.896 200.973 27.488C201.229 27.536 201.493 27.56 201.765 27.56ZM236.571 26.216C236.459 26.664 236.339 27.088 236.211 27.488C236.083 27.872 235.907 28.368 235.683 28.976C235.283 30.016 234.787 30.736 234.195 31.136C233.603 31.552 232.875 31.76 232.011 31.76C231.595 31.76 231.179 31.688 230.763 31.544C230.347 31.416 229.947 31.192 229.563 30.872C229.179 30.568 228.811 30.152 228.459 29.624C228.107 29.112 227.779 28.472 227.475 27.704C227.299 27.272 227.131 26.824 226.971 26.36C226.811 25.88 226.659 25.352 226.515 24.776C226.371 24.2 226.235 23.56 226.107 22.856C225.995 22.136 225.891 21.328 225.795 20.432L222.219 20.792L221.883 17.024L225.483 16.664C225.451 16.296 225.427 15.928 225.411 15.56C225.395 15.176 225.379 14.776 225.363 14.36L225.147 9.44L229.083 9.536C229.115 10.208 229.139 10.952 229.155 11.768C229.187 12.568 229.227 13.52 229.275 14.624L229.347 16.256L236.019 15.584L236.379 19.4L229.659 20.048C229.819 21.328 230.011 22.408 230.235 23.288C230.459 24.152 230.723 24.944 231.027 25.664C231.283 26.24 231.515 26.608 231.723 26.768C231.931 26.928 232.131 27.008 232.323 27.008C232.499 27.008 232.651 26.944 232.779 26.816C232.907 26.688 233.035 26.408 233.163 25.976C233.307 25.48 233.411 25.08 233.475 24.776C233.555 24.456 233.611 24.184 233.643 23.96L236.571 26.216ZM223.131 10.496C222.587 12.128 221.963 13.696 221.259 15.2V31.664H217.539V21.488C217.219 21.952 216.883 22.408 216.531 22.856C216.179 23.288 215.819 23.736 215.451 24.2L214.467 19.064C214.947 18.392 215.427 17.688 215.907 16.952C216.387 16.2 216.835 15.416 217.251 14.6C217.683 13.784 218.075 12.952 218.427 12.104C218.779 11.24 219.075 10.368 219.315 9.488L223.131 10.496ZM233.187 15.8C233.011 15.592 232.763 15.328 232.443 15.008C232.139 14.688 231.819 14.368 231.483 14.048C231.147 13.712 230.811 13.392 230.475 13.088C230.139 12.784 229.859 12.536 229.635 12.344L231.867 9.968C232.075 10.128 232.331 10.344 232.635 10.616C232.955 10.872 233.283 11.144 233.619 11.432C233.955 11.72 234.291 12.016 234.627 12.32C234.963 12.608 235.251 12.864 235.491 13.088L233.187 15.8ZM244.28 31.928C243.72 31.928 243.184 31.84 242.672 31.664C242.176 31.504 241.736 31.256 241.352 30.92C240.968 30.6 240.664 30.192 240.44 29.696C240.216 29.216 240.104 28.648 240.104 27.992C240.104 27.336 240.216 26.768 240.44 26.288C240.664 25.792 240.968 25.384 241.352 25.064C241.736 24.728 242.176 24.48 242.672 24.32C243.184 24.144 243.72 24.056 244.28 24.056C244.84 24.056 245.368 24.144 245.864 24.32C246.376 24.48 246.824 24.728 247.208 25.064C247.592 25.384 247.896 25.792 248.12 26.288C248.344 26.768 248.456 27.336 248.456 27.992C248.456 28.648 248.336 29.216 248.096 29.696C247.872 30.192 247.568 30.6 247.184 30.92C246.8 31.256 246.352 31.504 245.84 31.664C245.344 31.84 244.824 31.928 244.28 31.928ZM244.28 29.528C244.728 29.528 245.104 29.4 245.408 29.144C245.712 28.888 245.864 28.504 245.864 27.992C245.864 27.48 245.712 27.096 245.408 26.84C245.104 26.584 244.728 26.456 244.28 26.456C243.832 26.456 243.456 26.584 243.152 26.84C242.848 27.096 242.696 27.48 242.696 27.992C242.696 28.504 242.848 28.888 243.152 29.144C243.456 29.4 243.832 29.528 244.28 29.528Z" fill="white"/>
<path d="M0.272 54.576H9.632V55.712H5.6V66H4.304V55.712H0.272V54.576ZM14.3063 57.504C15.6343 57.504 16.6423 57.952 17.3143 58.848C17.9223 59.648 18.2423 60.784 18.2743 62.224H11.7463C11.8103 63.152 12.0503 63.872 12.4983 64.384C12.9463 64.896 13.5703 65.152 14.3543 65.152C15.0263 65.152 15.5863 64.976 16.0023 64.64C16.3543 64.352 16.6263 63.92 16.8343 63.344H18.1143C17.9223 64.144 17.5543 64.784 16.9943 65.296C16.3063 65.904 15.4263 66.224 14.3543 66.224C13.1703 66.224 12.2103 65.824 11.5063 65.056C10.7703 64.256 10.4183 63.2 10.4183 61.856C10.4183 60.64 10.7543 59.616 11.4583 58.8C12.1623 57.936 13.1063 57.504 14.3063 57.504ZM14.3383 58.576C13.6023 58.576 13.0103 58.816 12.5623 59.296C12.1143 59.776 11.8583 60.416 11.7783 61.232H16.9463C16.7863 59.456 15.9063 58.576 14.3383 58.576ZM23.3413 57.504C24.3653 57.504 25.1813 57.744 25.8053 58.224C26.4453 58.72 26.8293 59.472 26.9733 60.48H25.7093C25.5973 59.84 25.3413 59.36 24.9413 59.04C24.5253 58.72 23.9973 58.576 23.3413 58.576C22.5413 58.576 21.9013 58.88 21.4373 59.488C20.9893 60.08 20.7653 60.88 20.7653 61.888C20.7653 62.896 20.9733 63.696 21.4213 64.272C21.8533 64.848 22.4933 65.152 23.3253 65.152C24.7333 65.152 25.5493 64.432 25.7413 63.008H27.0213C26.8293 64.064 26.4293 64.88 25.7893 65.424C25.1653 65.952 24.3493 66.224 23.3253 66.224C22.0773 66.224 21.1173 65.808 20.4293 64.976C19.7733 64.192 19.4533 63.168 19.4533 61.904C19.4533 60.64 19.7733 59.616 20.4293 58.816C21.1332 57.936 22.1093 57.504 23.3413 57.504ZM28.5233 54.352H29.8033V59.088C30.0913 58.56 30.4753 58.16 30.9553 57.888C31.4033 57.632 31.8993 57.504 32.4593 57.504C33.4193 57.504 34.1713 57.776 34.6833 58.352C35.1953 58.912 35.4513 59.728 35.4513 60.784V66H34.1713V60.976C34.1713 60.208 33.9793 59.616 33.6273 59.2C33.2433 58.784 32.7153 58.576 32.0273 58.576C31.3873 58.576 30.8593 58.832 30.4433 59.344C30.0113 59.856 29.8033 60.512 29.8033 61.28V66H28.5233V54.352ZM41.2859 57.504C43.3339 57.504 44.3739 58.64 44.3739 60.912V66H43.0939V61.008C43.0939 59.392 42.3579 58.592 40.9179 58.592C40.3419 58.592 39.8459 58.8 39.4299 59.216C38.9819 59.664 38.7419 60.256 38.6939 61.008V66H37.4139V57.728H38.6939V58.944C38.9819 58.48 39.3499 58.128 39.7979 57.888C40.2459 57.632 40.7419 57.504 41.2859 57.504ZM50.0474 57.504C51.2794 57.504 52.2714 57.92 53.0074 58.784C53.7114 59.6 54.0634 60.624 54.0634 61.872C54.0634 63.104 53.7114 64.128 53.0234 64.928C52.2714 65.792 51.2794 66.224 50.0474 66.224C48.7994 66.224 47.8234 65.792 47.0874 64.928C46.3834 64.128 46.0314 63.104 46.0314 61.872C46.0314 60.624 46.3834 59.6 47.0874 58.784C47.8234 57.92 48.7994 57.504 50.0474 57.504ZM50.0474 58.576C49.1674 58.576 48.4794 58.912 47.9994 59.584C47.5514 60.192 47.3434 60.944 47.3434 61.872C47.3434 62.784 47.5514 63.536 47.9994 64.144C48.4794 64.816 49.1674 65.152 50.0474 65.152C50.9114 65.152 51.5994 64.816 52.1114 64.144C52.5434 63.536 52.7674 62.768 52.7674 61.872C52.7674 60.944 52.5434 60.192 52.1114 59.584C51.5994 58.912 50.9114 58.576 50.0474 58.576ZM55.9824 54.352H57.2464V66H55.9824V54.352ZM63.188 57.504C64.42 57.504 65.412 57.92 66.148 58.784C66.852 59.6 67.204 60.624 67.204 61.872C67.204 63.104 66.852 64.128 66.164 64.928C65.412 65.792 64.42 66.224 63.188 66.224C61.94 66.224 60.964 65.792 60.228 64.928C59.524 64.128 59.172 63.104 59.172 61.872C59.172 60.624 59.524 59.6 60.228 58.784C60.964 57.92 61.94 57.504 63.188 57.504ZM63.188 58.576C62.308 58.576 61.62 58.912 61.14 59.584C60.692 60.192 60.484 60.944 60.484 61.872C60.484 62.784 60.692 63.536 61.14 64.144C61.62 64.816 62.308 65.152 63.188 65.152C64.052 65.152 64.74 64.816 65.252 64.144C65.684 63.536 65.908 62.768 65.908 61.872C65.908 60.944 65.684 60.192 65.252 59.584C64.74 58.912 64.052 58.576 63.188 58.576ZM72.275 57.504C73.523 57.504 74.451 58.048 75.059 59.152V57.728H76.339V65.424C76.339 68.064 75.075 69.392 72.563 69.392C71.443 69.392 70.579 69.168 70.003 68.72C69.411 68.272 69.043 67.6 68.899 66.704H70.179C70.275 67.264 70.515 67.68 70.883 67.936C71.251 68.208 71.811 68.352 72.563 68.352C74.227 68.352 75.059 67.424 75.059 65.6V64.144C74.451 65.248 73.523 65.808 72.275 65.808C71.123 65.808 70.211 65.408 69.539 64.624C68.867 63.856 68.547 62.88 68.547 61.68C68.547 60.464 68.867 59.488 69.539 58.72C70.211 57.904 71.123 57.504 72.275 57.504ZM72.467 58.56C71.635 58.56 70.995 58.848 70.531 59.456C70.083 60 69.859 60.752 69.859 61.68C69.859 62.544 70.051 63.264 70.451 63.808C70.899 64.416 71.555 64.736 72.451 64.736C73.283 64.736 73.923 64.448 74.403 63.872C74.851 63.312 75.075 62.576 75.075 61.68C75.075 60.752 74.851 60 74.403 59.456C73.923 58.848 73.283 58.56 72.467 58.56ZM79.3761 54.608C79.6481 54.608 79.8721 54.688 80.0641 54.88C80.2561 55.04 80.3521 55.264 80.3521 55.552C80.3521 55.824 80.2561 56.048 80.0641 56.24C79.8721 56.416 79.6481 56.512 79.3761 56.512C79.1041 56.512 78.8801 56.416 78.6881 56.24C78.4961 56.048 78.4161 55.824 78.4161 55.552C78.4161 55.264 78.4961 55.04 78.6881 54.88C78.8801 54.688 79.1041 54.608 79.3761 54.608ZM78.7361 57.728H80.0161V66H78.7361V57.728ZM85.9819 57.504C87.0059 57.504 87.8219 57.744 88.4459 58.224C89.0859 58.72 89.4699 59.472 89.6139 60.48H88.3499C88.2379 59.84 87.9819 59.36 87.5819 59.04C87.1659 58.72 86.6379 58.576 85.9819 58.576C85.1819 58.576 84.5419 58.88 84.0779 59.488C83.6299 60.08 83.4059 60.88 83.4059 61.888C83.4059 62.896 83.6139 63.696 84.0619 64.272C84.4939 64.848 85.1339 65.152 85.9659 65.152C87.3739 65.152 88.1899 64.432 88.3819 63.008H89.6619C89.4699 64.064 89.0699 64.88 88.4299 65.424C87.8059 65.952 86.9899 66.224 85.9659 66.224C84.7179 66.224 83.7579 65.808 83.0699 64.976C82.4139 64.192 82.0939 63.168 82.0939 61.904C82.0939 60.64 82.4139 59.616 83.0699 58.816C83.7739 57.936 84.7499 57.504 85.9819 57.504ZM94.7639 57.504C95.9479 57.504 96.8119 57.808 97.3879 58.432C97.8679 58.976 98.1239 59.728 98.1239 60.688V66H96.9239V64.608C96.6039 65.056 96.1719 65.424 95.6599 65.712C95.0519 66.048 94.3639 66.224 93.5959 66.224C92.7639 66.224 92.1079 66.016 91.6119 65.6C91.0999 65.168 90.8439 64.608 90.8439 63.936C90.8439 62.992 91.2119 62.288 91.9799 61.808C92.6519 61.36 93.6119 61.12 94.8599 61.104L96.8439 61.072V60.64C96.8439 59.248 96.1239 58.56 94.6839 58.56C94.0759 58.56 93.5799 58.672 93.1959 58.928C92.7639 59.184 92.4919 59.584 92.3639 60.112L91.0999 60.016C91.2759 59.152 91.7079 58.496 92.3799 58.08C92.9879 57.696 93.7719 57.504 94.7639 57.504ZM96.8439 62.032L94.9399 62.064C93.0839 62.096 92.1559 62.704 92.1559 63.904C92.1559 64.288 92.2999 64.592 92.6199 64.848C92.9399 65.088 93.3559 65.216 93.8679 65.216C94.6519 65.216 95.3399 64.96 95.9479 64.448C96.5399 63.952 96.8439 63.376 96.8439 62.736V62.032ZM100.357 54.352H101.621V66H100.357V54.352ZM110.251 54.608C110.523 54.608 110.747 54.688 110.939 54.88C111.131 55.04 111.227 55.264 111.227 55.552C111.227 55.824 111.131 56.048 110.939 56.24C110.747 56.416 110.523 56.512 110.251 56.512C109.979 56.512 109.755 56.416 109.563 56.24C109.371 56.048 109.291 55.824 109.291 55.552C109.291 55.264 109.371 55.04 109.563 54.88C109.755 54.688 109.979 54.608 110.251 54.608ZM109.611 57.728H110.891V66H109.611V57.728ZM117.161 57.504C119.209 57.504 120.249 58.64 120.249 60.912V66H118.969V61.008C118.969 59.392 118.233 58.592 116.793 58.592C116.217 58.592 115.721 58.8 115.305 59.216C114.857 59.664 114.617 60.256 114.569 61.008V66H113.289V57.728H114.569V58.944C114.857 58.48 115.225 58.128 115.673 57.888C116.121 57.632 116.617 57.504 117.161 57.504ZM126.098 57.504C128.146 57.504 129.186 58.64 129.186 60.912V66H127.906V61.008C127.906 59.392 127.17 58.592 125.73 58.592C125.154 58.592 124.658 58.8 124.242 59.216C123.794 59.664 123.554 60.256 123.506 61.008V66H122.226V57.728H123.506V58.944C123.794 58.48 124.162 58.128 124.61 57.888C125.058 57.632 125.554 57.504 126.098 57.504ZM134.86 57.504C136.092 57.504 137.084 57.92 137.82 58.784C138.524 59.6 138.876 60.624 138.876 61.872C138.876 63.104 138.524 64.128 137.836 64.928C137.084 65.792 136.092 66.224 134.86 66.224C133.612 66.224 132.636 65.792 131.9 64.928C131.196 64.128 130.844 63.104 130.844 61.872C130.844 60.624 131.196 59.6 131.9 58.784C132.636 57.92 133.612 57.504 134.86 57.504ZM134.86 58.576C133.98 58.576 133.292 58.912 132.812 59.584C132.364 60.192 132.156 60.944 132.156 61.872C132.156 62.784 132.364 63.536 132.812 64.144C133.292 64.816 133.98 65.152 134.86 65.152C135.724 65.152 136.412 64.816 136.924 64.144C137.356 63.536 137.58 62.768 137.58 61.872C137.58 60.944 137.356 60.192 136.924 59.584C136.412 58.912 135.724 58.576 134.86 58.576ZM139.627 57.728H141.035L143.403 64.4L145.771 57.728H147.179L144.043 66H142.747L139.627 57.728ZM151.858 57.504C153.042 57.504 153.906 57.808 154.482 58.432C154.962 58.976 155.218 59.728 155.218 60.688V66H154.018V64.608C153.698 65.056 153.266 65.424 152.754 65.712C152.146 66.048 151.458 66.224 150.69 66.224C149.858 66.224 149.202 66.016 148.706 65.6C148.194 65.168 147.938 64.608 147.938 63.936C147.938 62.992 148.306 62.288 149.074 61.808C149.746 61.36 150.706 61.12 151.954 61.104L153.938 61.072V60.64C153.938 59.248 153.218 58.56 151.778 58.56C151.17 58.56 150.674 58.672 150.29 58.928C149.858 59.184 149.586 59.584 149.458 60.112L148.194 60.016C148.37 59.152 148.802 58.496 149.474 58.08C150.082 57.696 150.866 57.504 151.858 57.504ZM153.938 62.032L152.034 62.064C150.178 62.096 149.25 62.704 149.25 63.904C149.25 64.288 149.394 64.592 149.714 64.848C150.034 65.088 150.45 65.216 150.962 65.216C151.746 65.216 152.434 64.96 153.042 64.448C153.634 63.952 153.938 63.376 153.938 62.736V62.032ZM159.403 55.056V57.728H161.451V58.8H159.403V64.064C159.403 64.368 159.451 64.592 159.579 64.72C159.691 64.848 159.899 64.928 160.187 64.928H161.243V66H159.995C159.323 66 158.827 65.824 158.539 65.472C158.267 65.152 158.139 64.688 158.139 64.064V58.8H156.475V57.728H158.139V55.584L159.403 55.056ZM163.939 54.608C164.211 54.608 164.435 54.688 164.627 54.88C164.819 55.04 164.915 55.264 164.915 55.552C164.915 55.824 164.819 56.048 164.627 56.24C164.435 56.416 164.211 56.512 163.939 56.512C163.667 56.512 163.443 56.416 163.251 56.24C163.059 56.048 162.979 55.824 162.979 55.552C162.979 55.264 163.059 55.04 163.251 54.88C163.443 54.688 163.667 54.608 163.939 54.608ZM163.299 57.728H164.579V66H163.299V57.728ZM170.672 57.504C171.904 57.504 172.896 57.92 173.632 58.784C174.336 59.6 174.688 60.624 174.688 61.872C174.688 63.104 174.336 64.128 173.648 64.928C172.896 65.792 171.904 66.224 170.672 66.224C169.424 66.224 168.448 65.792 167.712 64.928C167.008 64.128 166.656 63.104 166.656 61.872C166.656 60.624 167.008 59.6 167.712 58.784C168.448 57.92 169.424 57.504 170.672 57.504ZM170.672 58.576C169.792 58.576 169.104 58.912 168.624 59.584C168.176 60.192 167.968 60.944 167.968 61.872C167.968 62.784 168.176 63.536 168.624 64.144C169.104 64.816 169.792 65.152 170.672 65.152C171.536 65.152 172.224 64.816 172.736 64.144C173.168 63.536 173.392 62.768 173.392 61.872C173.392 60.944 173.168 60.192 172.736 59.584C172.224 58.912 171.536 58.576 170.672 58.576ZM180.223 57.504C182.271 57.504 183.311 58.64 183.311 60.912V66H182.031V61.008C182.031 59.392 181.295 58.592 179.855 58.592C179.279 58.592 178.783 58.8 178.367 59.216C177.919 59.664 177.679 60.256 177.631 61.008V66H176.351V57.728H177.631V58.944C177.919 58.48 178.287 58.128 178.735 57.888C179.183 57.632 179.679 57.504 180.223 57.504ZM196.729 54.352H198.009V66H196.809V64.64C196.233 65.696 195.305 66.224 194.057 66.224C192.841 66.224 191.897 65.776 191.225 64.912C190.601 64.112 190.297 63.088 190.297 61.84C190.297 60.624 190.601 59.632 191.225 58.832C191.897 57.936 192.809 57.504 193.993 57.504C195.177 57.504 196.089 58.08 196.729 59.248V54.352ZM194.265 58.56C193.353 58.56 192.665 58.88 192.217 59.52C191.801 60.08 191.609 60.848 191.609 61.84C191.609 62.832 191.801 63.616 192.201 64.192C192.649 64.832 193.321 65.168 194.217 65.168C195.049 65.168 195.689 64.848 196.153 64.208C196.553 63.632 196.761 62.88 196.761 61.952V61.792C196.761 60.832 196.521 60.048 196.073 59.456C195.609 58.848 195.001 58.56 194.265 58.56ZM203.624 57.504C204.072 57.504 204.456 57.568 204.76 57.696V58.976C204.344 58.848 203.928 58.8 203.528 58.8C202.888 58.8 202.344 59.072 201.912 59.648C201.464 60.192 201.256 60.848 201.256 61.616V66H199.992V57.728H201.256V59.168C201.48 58.688 201.768 58.304 202.12 58.032C202.552 57.68 203.048 57.504 203.624 57.504ZM206.892 54.608C207.164 54.608 207.388 54.688 207.58 54.88C207.772 55.04 207.868 55.264 207.868 55.552C207.868 55.824 207.772 56.048 207.58 56.24C207.388 56.416 207.164 56.512 206.892 56.512C206.62 56.512 206.396 56.416 206.204 56.24C206.012 56.048 205.932 55.824 205.932 55.552C205.932 55.264 206.012 55.04 206.204 54.88C206.396 54.688 206.62 54.608 206.892 54.608ZM206.252 57.728H207.532V66H206.252V57.728ZM209.018 57.728H210.426L212.794 64.4L215.162 57.728H216.57L213.434 66H212.138L209.018 57.728ZM221.056 57.504C222.384 57.504 223.392 57.952 224.064 58.848C224.672 59.648 224.992 60.784 225.024 62.224H218.496C218.56 63.152 218.8 63.872 219.248 64.384C219.696 64.896 220.32 65.152 221.104 65.152C221.776 65.152 222.336 64.976 222.752 64.64C223.104 64.352 223.376 63.92 223.584 63.344H224.864C224.672 64.144 224.304 64.784 223.744 65.296C223.056 65.904 222.176 66.224 221.104 66.224C219.92 66.224 218.96 65.824 218.256 65.056C217.52 64.256 217.168 63.2 217.168 61.856C217.168 60.64 217.504 59.616 218.208 58.8C218.912 57.936 219.856 57.504 221.056 57.504ZM221.088 58.576C220.352 58.576 219.76 58.816 219.312 59.296C218.864 59.776 218.608 60.416 218.528 61.232H223.696C223.536 59.456 222.656 58.576 221.088 58.576ZM229.451 57.504C231.499 57.504 232.619 58.352 232.843 60.08H231.595C231.483 59.568 231.275 59.184 230.955 58.96C230.603 58.704 230.091 58.576 229.435 58.576C228.859 58.576 228.411 58.672 228.091 58.896C227.739 59.104 227.563 59.392 227.563 59.76C227.563 60.112 227.787 60.416 228.267 60.656C228.571 60.8 229.147 60.976 229.979 61.2C230.971 61.44 231.675 61.696 232.107 61.968C232.763 62.384 233.099 62.944 233.099 63.664C233.099 65.36 231.931 66.224 229.595 66.224C227.419 66.224 226.235 65.264 226.043 63.36H227.291C227.387 64.016 227.627 64.48 227.979 64.768C228.331 65.024 228.859 65.152 229.563 65.152C231.035 65.152 231.787 64.672 231.787 63.744C231.787 63.28 231.515 62.928 231.003 62.672C230.731 62.544 230.139 62.368 229.243 62.144C228.267 61.904 227.579 61.664 227.195 61.408C226.555 61.024 226.251 60.496 226.251 59.792C226.251 59.088 226.555 58.544 227.179 58.128C227.755 57.712 228.523 57.504 229.451 57.504ZM243.882 57.504C245.066 57.504 246.01 57.936 246.698 58.832C247.322 59.632 247.642 60.64 247.642 61.888C247.642 63.104 247.322 64.112 246.714 64.912C246.042 65.776 245.13 66.224 243.946 66.224C242.762 66.224 241.85 65.648 241.21 64.496V69.168H239.93V57.728H241.13V59.088C241.722 58.032 242.634 57.504 243.882 57.504ZM243.722 58.56C242.89 58.56 242.234 58.88 241.786 59.536C241.37 60.112 241.162 60.88 241.162 61.808V61.968C241.162 62.928 241.386 63.696 241.866 64.288C242.314 64.864 242.906 65.168 243.674 65.168C244.57 65.168 245.242 64.848 245.706 64.24C246.122 63.664 246.33 62.88 246.33 61.888C246.33 60.912 246.122 60.128 245.738 59.552C245.274 58.88 244.602 58.56 243.722 58.56ZM252.937 57.504C253.385 57.504 253.769 57.568 254.073 57.696V58.976C253.657 58.848 253.241 58.8 252.841 58.8C252.201 58.8 251.657 59.072 251.225 59.648C250.777 60.192 250.569 60.848 250.569 61.616V66H249.305V57.728H250.569V59.168C250.793 58.688 251.081 58.304 251.433 58.032C251.865 57.68 252.361 57.504 252.937 57.504ZM258.844 57.504C260.076 57.504 261.068 57.92 261.804 58.784C262.508 59.6 262.86 60.624 262.86 61.872C262.86 63.104 262.508 64.128 261.82 64.928C261.068 65.792 260.076 66.224 258.844 66.224C257.596 66.224 256.62 65.792 255.884 64.928C255.18 64.128 254.828 63.104 254.828 61.872C254.828 60.624 255.18 59.6 255.884 58.784C256.62 57.92 257.596 57.504 258.844 57.504ZM258.844 58.576C257.964 58.576 257.276 58.912 256.796 59.584C256.348 60.192 256.14 60.944 256.14 61.872C256.14 62.784 256.348 63.536 256.796 64.144C257.276 64.816 257.964 65.152 258.844 65.152C259.708 65.152 260.396 64.816 260.908 64.144C261.34 63.536 261.564 62.768 261.564 61.872C261.564 60.944 261.34 60.192 260.908 59.584C260.396 58.912 259.708 58.576 258.844 58.576ZM270.635 54.352H271.915V66H270.715V64.64C270.139 65.696 269.211 66.224 267.963 66.224C266.747 66.224 265.803 65.776 265.131 64.912C264.507 64.112 264.203 63.088 264.203 61.84C264.203 60.624 264.507 59.632 265.131 58.832C265.803 57.936 266.715 57.504 267.899 57.504C269.083 57.504 269.995 58.08 270.635 59.248V54.352ZM268.171 58.56C267.259 58.56 266.571 58.88 266.123 59.52C265.707 60.08 265.515 60.848 265.515 61.84C265.515 62.832 265.707 63.616 266.107 64.192C266.555 64.832 267.227 65.168 268.123 65.168C268.955 65.168 269.595 64.848 270.059 64.208C270.459 63.632 270.667 62.88 270.667 61.952V61.792C270.667 60.832 270.427 60.048 269.979 59.456C269.515 58.848 268.907 58.56 268.171 58.56ZM273.898 57.728H275.178V62.784C275.178 63.568 275.338 64.16 275.674 64.544C276.01 64.928 276.554 65.136 277.306 65.136C277.85 65.136 278.346 64.912 278.778 64.496C279.226 64.048 279.498 63.472 279.594 62.768V57.728H280.874V66H279.594V64.72C278.922 65.712 278.026 66.224 276.906 66.224C274.89 66.224 273.898 65.088 273.898 62.848V57.728ZM286.419 57.504C287.443 57.504 288.259 57.744 288.883 58.224C289.523 58.72 289.907 59.472 290.051 60.48H288.787C288.675 59.84 288.419 59.36 288.019 59.04C287.603 58.72 287.075 58.576 286.419 58.576C285.619 58.576 284.979 58.88 284.515 59.488C284.067 60.08 283.843 60.88 283.843 61.888C283.843 62.896 284.051 63.696 284.499 64.272C284.931 64.848 285.571 65.152 286.403 65.152C287.811 65.152 288.627 64.432 288.819 63.008H290.099C289.907 64.064 289.507 64.88 288.867 65.424C288.243 65.952 287.427 66.224 286.403 66.224C285.155 66.224 284.195 65.808 283.507 64.976C282.851 64.192 282.531 63.168 282.531 61.904C282.531 60.64 282.851 59.616 283.507 58.816C284.211 57.936 285.187 57.504 286.419 57.504ZM293.809 55.056V57.728H295.857V58.8H293.809V64.064C293.809 64.368 293.857 64.592 293.985 64.72C294.097 64.848 294.305 64.928 294.593 64.928H295.649V66H294.401C293.729 66 293.233 65.824 292.945 65.472C292.673 65.152 292.545 64.688 292.545 64.064V58.8H290.881V57.728H292.545V55.584L293.809 55.056ZM303.673 54.608C303.945 54.608 304.169 54.688 304.361 54.88C304.553 55.04 304.649 55.264 304.649 55.552C304.649 55.824 304.553 56.048 304.361 56.24C304.169 56.416 303.945 56.512 303.673 56.512C303.401 56.512 303.177 56.416 302.985 56.24C302.793 56.048 302.713 55.824 302.713 55.552C302.713 55.264 302.793 55.04 302.985 54.88C303.177 54.688 303.401 54.608 303.673 54.608ZM303.033 57.728H304.313V66H303.033V57.728ZM308.919 55.056V57.728H310.967V58.8H308.919V64.064C308.919 64.368 308.967 64.592 309.095 64.72C309.207 64.848 309.415 64.928 309.703 64.928H310.759V66H309.511C308.839 66 308.343 65.824 308.055 65.472C307.783 65.152 307.655 64.688 307.655 64.064V58.8H305.991V57.728H307.655V55.584L308.919 55.056ZM315.806 57.504C317.134 57.504 318.142 57.952 318.814 58.848C319.422 59.648 319.742 60.784 319.774 62.224H313.246C313.31 63.152 313.55 63.872 313.998 64.384C314.446 64.896 315.07 65.152 315.854 65.152C316.526 65.152 317.086 64.976 317.502 64.64C317.854 64.352 318.126 63.92 318.334 63.344H319.614C319.422 64.144 319.054 64.784 318.494 65.296C317.806 65.904 316.926 66.224 315.854 66.224C314.67 66.224 313.71 65.824 313.006 65.056C312.27 64.256 311.918 63.2 311.918 61.856C311.918 60.64 312.254 59.616 312.958 58.8C313.662 57.936 314.606 57.504 315.806 57.504ZM315.838 58.576C315.102 58.576 314.51 58.816 314.062 59.296C313.614 59.776 313.358 60.416 313.278 61.232H318.446C318.286 59.456 317.406 58.576 315.838 58.576ZM324.905 57.504C325.353 57.504 325.737 57.568 326.041 57.696V58.976C325.625 58.848 325.209 58.8 324.809 58.8C324.169 58.8 323.625 59.072 323.193 59.648C322.745 60.192 322.537 60.848 322.537 61.616V66H321.273V57.728H322.537V59.168C322.761 58.688 323.049 58.304 323.401 58.032C323.833 57.68 324.329 57.504 324.905 57.504ZM330.717 57.504C331.901 57.504 332.765 57.808 333.341 58.432C333.821 58.976 334.077 59.728 334.077 60.688V66H332.877V64.608C332.557 65.056 332.125 65.424 331.613 65.712C331.005 66.048 330.317 66.224 329.549 66.224C328.717 66.224 328.061 66.016 327.565 65.6C327.053 65.168 326.797 64.608 326.797 63.936C326.797 62.992 327.165 62.288 327.933 61.808C328.605 61.36 329.565 61.12 330.813 61.104L332.797 61.072V60.64C332.797 59.248 332.077 58.56 330.637 58.56C330.029 58.56 329.533 58.672 329.149 58.928C328.717 59.184 328.445 59.584 328.317 60.112L327.053 60.016C327.229 59.152 327.661 58.496 328.333 58.08C328.941 57.696 329.725 57.504 330.717 57.504ZM332.797 62.032L330.893 62.064C329.037 62.096 328.109 62.704 328.109 63.904C328.109 64.288 328.253 64.592 328.573 64.848C328.893 65.088 329.309 65.216 329.821 65.216C330.605 65.216 331.293 64.96 331.901 64.448C332.493 63.952 332.797 63.376 332.797 62.736V62.032ZM338.263 55.056V57.728H340.311V58.8H338.263V64.064C338.263 64.368 338.311 64.592 338.439 64.72C338.551 64.848 338.759 64.928 339.047 64.928H340.103V66H338.855C338.183 66 337.687 65.824 337.399 65.472C337.127 65.152 336.999 64.688 336.999 64.064V58.8H335.335V57.728H336.999V55.584L338.263 55.056ZM342.798 54.608C343.07 54.608 343.294 54.688 343.486 54.88C343.678 55.04 343.774 55.264 343.774 55.552C343.774 55.824 343.678 56.048 343.486 56.24C343.294 56.416 343.07 56.512 342.798 56.512C342.526 56.512 342.302 56.416 342.11 56.24C341.918 56.048 341.838 55.824 341.838 55.552C341.838 55.264 341.918 55.04 342.11 54.88C342.302 54.688 342.526 54.608 342.798 54.608ZM342.158 57.728H343.438V66H342.158V57.728ZM349.532 57.504C350.764 57.504 351.756 57.92 352.492 58.784C353.196 59.6 353.548 60.624 353.548 61.872C353.548 63.104 353.196 64.128 352.508 64.928C351.756 65.792 350.764 66.224 349.532 66.224C348.284 66.224 347.308 65.792 346.572 64.928C345.868 64.128 345.516 63.104 345.516 61.872C345.516 60.624 345.868 59.6 346.572 58.784C347.308 57.92 348.284 57.504 349.532 57.504ZM349.532 58.576C348.652 58.576 347.964 58.912 347.484 59.584C347.036 60.192 346.828 60.944 346.828 61.872C346.828 62.784 347.036 63.536 347.484 64.144C347.964 64.816 348.652 65.152 349.532 65.152C350.396 65.152 351.084 64.816 351.596 64.144C352.028 63.536 352.252 62.768 352.252 61.872C352.252 60.944 352.028 60.192 351.596 59.584C351.084 58.912 350.396 58.576 349.532 58.576ZM359.083 57.504C361.131 57.504 362.171 58.64 362.171 60.912V66H360.891V61.008C360.891 59.392 360.155 58.592 358.715 58.592C358.139 58.592 357.643 58.8 357.227 59.216C356.779 59.664 356.539 60.256 356.491 61.008V66H355.211V57.728H356.491V58.944C356.779 58.48 357.147 58.128 357.595 57.888C358.043 57.632 358.539 57.504 359.083 57.504ZM365.268 64.096C365.524 64.096 365.764 64.192 365.956 64.384C366.148 64.576 366.244 64.8 366.244 65.088C366.244 65.36 366.148 65.584 365.956 65.776C365.764 65.968 365.524 66.064 365.268 66.064C364.98 66.064 364.756 65.968 364.58 65.776C364.388 65.584 364.292 65.36 364.292 65.088C364.292 64.8 364.388 64.576 364.58 64.384C364.756 64.192 364.98 64.096 365.268 64.096Z" fill="white" fill-opacity="0.5"/>
</svg>
