<svg width="471" height="72" viewBox="0 0 471 72" fill="none" xmlns="http://www.w3.org/2000/svg">
<path d="M13.944 13.688L13.464 15.032H21.6V31.4H2.16V15.032H9.072C9.136 14.856 9.192 14.656 9.24 14.432C9.304 14.208 9.376 13.96 9.456 13.688H1.128V10.04H22.608V13.688H13.944ZM5.736 28.256H7.08V18.104H5.736V28.256ZM13.464 18.104H10.344V19.64H13.464V18.104ZM18.048 18.104H16.68V28.256H18.048V18.104ZM13.464 22.376H10.344V23.96H13.464V22.376ZM10.344 28.256H13.464V26.696H10.344V28.256ZM45.5336 11.768V28.736C45.5336 29.312 45.4776 29.776 45.3656 30.128C45.2536 30.496 45.0536 30.776 44.7656 30.968C44.4936 31.176 44.1256 31.328 43.6616 31.424C43.2136 31.536 42.6536 31.632 41.9816 31.712L40.3496 31.904L38.9816 28.04H30.9656V17.192H40.2776V27.8L40.6136 27.776C41.0296 27.744 41.3176 27.648 41.4776 27.488C41.6376 27.328 41.7176 27.056 41.7176 26.672V15.488H29.5016V31.736H25.7096V11.768H32.5736C32.7176 11.4 32.8616 11.008 33.0056 10.592C33.1496 10.176 33.2856 9.792 33.4136 9.44H38.1896C38.1096 9.632 37.9816 9.96 37.8056 10.424C37.6296 10.872 37.4536 11.32 37.2776 11.768H45.5336ZM36.7496 20.864H34.5176V24.416H36.7496V20.864ZM63.1073 21.824C64.1153 22.816 65.2833 23.72 66.6113 24.536C67.9393 25.352 69.2833 26.064 70.6433 26.672L67.9793 30.488C66.6833 29.672 65.4833 28.84 64.3793 27.992C63.2753 27.128 62.2913 26.24 61.4273 25.328V31.784H57.4433V25.4C57.0273 25.864 56.5953 26.304 56.1473 26.72C55.6993 27.12 55.2033 27.52 54.6593 27.92C54.1313 28.32 53.5473 28.728 52.9073 29.144C52.2833 29.56 51.5873 30.016 50.8193 30.512L48.2273 26.696C49.8273 25.976 51.2833 25.224 52.5953 24.44C53.9073 23.656 55.0193 22.784 55.9313 21.824H49.1633V17.96H57.4433V15.8H50.1953V12.056H57.4433V9.464L61.4273 9.56V12.056H68.6753V15.8H61.4273V17.96H69.7313V21.824H63.1073ZM92.5129 30.944C91.1049 30.352 89.7689 29.688 88.5049 28.952C87.2569 28.2 86.1209 27.392 85.0969 26.528V31.712H81.1849V26.48C80.1609 27.344 79.0169 28.16 77.7529 28.928C76.4889 29.68 75.1369 30.36 73.6969 30.968L71.8489 27.224C73.4009 26.712 74.8569 26.112 76.2169 25.424C77.5769 24.736 78.7849 23.976 79.8409 23.144H72.6169V19.568H77.0089C76.8329 19.328 76.6329 19.072 76.4089 18.8C76.2009 18.528 75.9769 18.256 75.7369 17.984C75.5129 17.712 75.2889 17.456 75.0649 17.216C74.8569 16.976 74.6569 16.768 74.4649 16.592L76.3609 14.936H73.2889V11.36H81.1849V9.416L85.0969 9.512V11.36H92.9689V14.936H89.9209L91.7689 16.616C91.6249 16.792 91.4409 17 91.2169 17.24C90.9929 17.48 90.7529 17.744 90.4969 18.032C90.2569 18.304 90.0089 18.576 89.7529 18.848C89.5129 19.12 89.2969 19.36 89.1049 19.568H93.6889V23.144H86.3929C87.4489 23.992 88.6489 24.76 89.9929 25.448C91.3529 26.12 92.8089 26.712 94.3609 27.224L92.5129 30.944ZM77.6089 14.936C78.0729 15.384 78.5289 15.864 78.9769 16.376C79.4409 16.872 79.8089 17.288 80.0809 17.624L77.9209 19.568H81.1849V14.936H77.6089ZM85.0969 14.936V19.568H88.3369L86.2249 17.6C86.3529 17.472 86.5129 17.304 86.7049 17.096C86.9129 16.888 87.1289 16.664 87.3529 16.424C87.5769 16.184 87.8009 15.936 88.0249 15.68C88.2649 15.408 88.4809 15.16 88.6729 14.936H85.0969ZM117.143 12.44C117.127 14.024 117.103 15.608 117.071 17.192C117.055 18.76 117.031 20.24 116.999 21.632C116.983 23.024 116.959 24.28 116.927 25.4C116.911 26.52 116.887 27.424 116.855 28.112C116.823 28.72 116.727 29.216 116.567 29.6C116.407 30 116.175 30.32 115.871 30.56C115.583 30.8 115.223 30.976 114.791 31.088C114.359 31.2 113.863 31.28 113.303 31.328L110.471 31.568L109.319 27.584L111.455 27.416C111.807 27.384 112.087 27.352 112.295 27.32C112.503 27.272 112.663 27.192 112.775 27.08C112.903 26.952 112.983 26.776 113.015 26.552C113.063 26.328 113.087 26.024 113.087 25.64L113.135 23.048L110.207 25.352C110.047 25.016 109.839 24.624 109.583 24.176C109.343 23.712 109.087 23.248 108.815 22.784C108.543 22.32 108.263 21.872 107.975 21.44C107.687 20.992 107.423 20.624 107.182 20.336L109.943 18.392C110.503 19.064 111.055 19.816 111.599 20.648C112.159 21.48 112.671 22.256 113.135 22.976L113.255 16.424H110.375C110.167 16.84 109.951 17.248 109.727 17.648C109.503 18.032 109.279 18.408 109.055 18.776L106.439 17.192V30.944H96.9345V12.608H99.5025C99.5985 12.128 99.6945 11.608 99.7905 11.048C99.9025 10.488 99.9825 10.024 100.031 9.656L104.087 9.896C104.039 10.168 103.959 10.568 103.847 11.096C103.735 11.624 103.623 12.128 103.511 12.608H106.439V15.656C107.111 14.584 107.671 13.536 108.119 12.512C108.583 11.472 108.927 10.448 109.151 9.44L112.823 10.112C112.615 10.864 112.375 11.64 112.103 12.44H117.143ZM100.679 16.592V19.688H102.983V16.592H100.679ZM102.983 26.936V23.624H100.679V26.936H102.983ZM130.66 21.128H139.324V31.4H122.092V22.208C121.932 22.272 121.772 22.336 121.612 22.4C121.452 22.464 121.284 22.528 121.108 22.592L119.548 19.304C120.732 18.984 121.668 18.664 122.356 18.344C123.06 18.024 123.596 17.648 123.964 17.216H120.124V14.36H122.644L119.956 13.16C120.42 12.552 120.812 11.936 121.132 11.312C121.468 10.672 121.756 10.048 121.996 9.44L125.476 9.488C125.412 9.648 125.348 9.808 125.284 9.968C125.236 10.112 125.172 10.272 125.092 10.448H131.164V13.184H128.524V14.36H131.428V17.216H128.284C128.252 17.28 128.236 17.328 128.236 17.36C128.908 17.584 129.564 17.832 130.204 18.104C130.86 18.376 131.388 18.624 131.788 18.848L130.66 21.128ZM140.884 10.256V20.312H132.364V10.256H140.884ZM123.724 13.184C123.596 13.376 123.468 13.576 123.34 13.784C123.228 13.976 123.108 14.168 122.98 14.36H125.092V13.184H123.724ZM137.644 13.28H135.604V17.312H137.644V13.28ZM126.892 19.592C126.316 20.12 125.532 20.632 124.54 21.128H130.036C129.46 20.808 128.916 20.528 128.404 20.288C127.892 20.048 127.388 19.816 126.892 19.592ZM135.34 23.552H126.076V24.896H135.34V23.552ZM135.34 28.544V27.2H126.076V28.544H135.34ZM153.49 17.264H154.258V29.024C154.258 29.536 154.218 29.944 154.138 30.248C154.058 30.568 153.914 30.824 153.706 31.016C153.498 31.208 153.21 31.352 152.842 31.448C152.474 31.544 152.01 31.624 151.45 31.688L150.13 31.832L149.17 28.304L150.082 28.208C150.354 28.176 150.538 28.112 150.634 28.016C150.73 27.904 150.778 27.688 150.778 27.368V27.056H148.378V31.712H144.706V17.264H153.418C153.322 17.104 153.218 16.936 153.106 16.76C152.994 16.568 152.874 16.368 152.746 16.16C151.882 16.192 150.954 16.232 149.962 16.28C148.97 16.328 148.002 16.376 147.058 16.424C146.146 16.472 145.314 16.584 144.562 16.76L143.65 13.256C143.938 13.16 144.194 13.032 144.418 12.872C144.658 12.712 144.89 12.52 145.114 12.296C145.53 11.832 145.914 11.36 146.266 10.88C146.634 10.384 146.97 9.88 147.274 9.368L151.09 9.848C150.962 10.024 150.794 10.24 150.586 10.496C150.394 10.752 150.17 11.032 149.914 11.336C149.658 11.624 149.386 11.92 149.098 12.224C148.81 12.528 148.522 12.808 148.234 13.064C149.098 13.064 149.914 13.04 150.682 12.992C150.57 12.832 150.458 12.688 150.346 12.56C150.25 12.416 150.162 12.288 150.082 12.176L152.674 10.472C153.074 10.936 153.53 11.496 154.042 12.152C154.554 12.792 155.026 13.416 155.458 14.024V9.536L159.106 9.632V12.032C159.458 11.888 159.834 11.736 160.234 11.576C160.634 11.416 161.026 11.256 161.41 11.096C161.794 10.936 162.154 10.776 162.49 10.616C162.826 10.456 163.122 10.312 163.378 10.184L164.986 13.592C164.666 13.72 164.25 13.88 163.738 14.072C163.242 14.248 162.714 14.432 162.154 14.624C161.61 14.816 161.066 15.008 160.522 15.2C159.978 15.376 159.506 15.528 159.106 15.656V15.872C159.106 16.288 159.162 16.576 159.274 16.736C159.386 16.896 159.586 16.976 159.874 16.976H160.618C160.81 16.976 160.962 16.968 161.074 16.952C161.202 16.92 161.306 16.864 161.386 16.784C161.466 16.704 161.53 16.592 161.578 16.448C161.642 16.288 161.706 16.088 161.77 15.848C161.802 15.72 161.826 15.584 161.842 15.44C161.874 15.28 161.898 15.136 161.914 15.008L165.274 16.352C165.242 16.704 165.202 16.992 165.154 17.216C165.106 17.44 165.058 17.656 165.01 17.864C164.898 18.344 164.762 18.736 164.602 19.04C164.442 19.328 164.242 19.56 164.002 19.736C163.762 19.896 163.474 20.008 163.138 20.072C162.818 20.136 162.426 20.184 161.962 20.216C160.506 20.312 159.05 20.312 157.594 20.216C156.874 20.168 156.338 19.952 155.986 19.568C155.634 19.184 155.458 18.496 155.458 17.504V15.656L153.49 17.264ZM148.378 20.24V21.248H150.778V20.24H148.378ZM165.634 26.96C165.602 27.184 165.57 27.384 165.538 27.56C165.522 27.72 165.498 27.88 165.466 28.04C165.45 28.184 165.426 28.336 165.394 28.496C165.362 28.64 165.322 28.808 165.274 29C165.178 29.432 165.058 29.792 164.914 30.08C164.77 30.368 164.586 30.592 164.362 30.752C164.138 30.928 163.858 31.056 163.522 31.136C163.202 31.216 162.81 31.28 162.346 31.328C160.762 31.472 159.178 31.472 157.594 31.328C156.906 31.264 156.378 31.04 156.01 30.656C155.642 30.272 155.458 29.616 155.458 28.688V20.768L159.106 20.864V22.808C159.49 22.632 159.882 22.448 160.282 22.256C160.698 22.064 161.098 21.872 161.482 21.68C161.866 21.488 162.218 21.304 162.538 21.128C162.858 20.952 163.13 20.8 163.354 20.672L165.082 24.032C164.762 24.176 164.346 24.368 163.834 24.608C163.338 24.832 162.81 25.064 162.25 25.304C161.69 25.544 161.13 25.784 160.57 26.024C160.01 26.248 159.522 26.44 159.106 26.6V27.056C159.106 27.472 159.178 27.76 159.322 27.92C159.482 28.064 159.706 28.136 159.994 28.136H160.906C161.274 28.136 161.53 28.064 161.674 27.92C161.818 27.776 161.946 27.464 162.058 26.984C162.154 26.552 162.218 26.12 162.25 25.688L165.634 26.96ZM150.778 24.656V23.648H148.378V24.656H150.778ZM189.207 25.208C189.207 25.768 189.183 26.304 189.135 26.816C189.087 27.312 189.031 27.792 188.967 28.256C188.839 29.296 188.479 30.032 187.887 30.464C187.311 30.912 186.399 31.16 185.151 31.208C183.727 31.256 182.311 31.256 180.903 31.208C179.799 31.176 178.943 30.888 178.335 30.344C177.743 29.816 177.447 28.912 177.447 27.632V24.8C176.663 26.048 175.655 27.232 174.423 28.352C173.191 29.472 171.671 30.64 169.863 31.856L166.839 28.232C167.943 27.592 168.911 26.976 169.743 26.384C170.591 25.792 171.335 25.2 171.975 24.608C172.615 24 173.151 23.384 173.583 22.76C174.015 22.12 174.375 21.44 174.663 20.72H167.991V16.856H175.479C175.511 16.44 175.535 16.008 175.551 15.56C175.583 15.112 175.599 14.64 175.599 14.144H168.975V10.328H187.431V14.144H179.895V14.168C179.895 14.648 179.887 15.112 179.871 15.56C179.855 16.008 179.831 16.44 179.799 16.856H188.391V20.72H179.199C179.135 20.928 179.071 21.136 179.007 21.344C178.959 21.536 178.895 21.728 178.815 21.92L181.455 21.992V26.24C181.455 26.608 181.551 26.888 181.743 27.08C181.935 27.256 182.199 27.36 182.535 27.392C183.015 27.44 183.503 27.44 183.999 27.392C184.351 27.36 184.623 27.272 184.815 27.128C185.023 26.968 185.159 26.656 185.223 26.192C185.271 25.84 185.303 25.504 185.319 25.184C185.351 24.848 185.375 24.488 185.391 24.104L189.207 25.208ZM203.781 12.968C203.925 14.76 204.229 16.376 204.693 17.816C205.173 19.256 205.797 20.576 206.565 21.776C207.333 22.96 208.245 24.056 209.301 25.064C210.357 26.056 211.557 27.008 212.901 27.92L209.565 31.376C207.725 29.728 206.181 28.112 204.933 26.528C203.701 24.944 202.717 23.28 201.981 21.536C201.213 23.344 200.189 25.064 198.909 26.696C197.629 28.328 196.029 29.92 194.109 31.472L191.085 28.04C192.637 26.856 193.941 25.712 194.997 24.608C196.053 23.504 196.909 22.336 197.565 21.104C198.237 19.856 198.733 18.488 199.053 17C199.389 15.496 199.613 13.76 199.725 11.792C199.757 11.28 199.773 10.808 199.773 10.376C199.789 9.944 199.805 9.624 199.821 9.416L203.901 9.512C203.901 9.784 203.885 10.248 203.853 10.904C203.837 11.56 203.813 12.248 203.781 12.968ZM236.451 15.896H225.555V12.152H228.771C228.691 11.704 228.619 11.272 228.555 10.856C228.491 10.424 228.427 10.064 228.363 9.776L232.251 9.488C232.331 9.856 232.403 10.28 232.467 10.76C232.531 11.224 232.595 11.688 232.659 12.152H236.451V15.896ZM237.363 26.288C237.331 26.592 237.307 26.864 237.291 27.104C237.275 27.328 237.259 27.552 237.243 27.776C237.227 27.984 237.203 28.2 237.171 28.424C237.155 28.648 237.131 28.896 237.099 29.168C236.987 30 236.771 30.6 236.451 30.968C236.131 31.336 235.619 31.536 234.915 31.568C234.691 31.584 234.435 31.592 234.147 31.592C233.875 31.592 233.627 31.584 233.403 31.568C232.779 31.536 232.275 31.312 231.891 30.896C231.507 30.496 231.315 29.816 231.315 28.856V21.296H229.371V22.232C229.371 23.528 229.339 24.632 229.275 25.544C229.211 26.456 229.099 27.272 228.939 27.992C228.779 28.712 228.555 29.376 228.267 29.984C227.995 30.608 227.643 31.28 227.211 32L224.571 30.056C224.443 30.632 224.163 31.024 223.731 31.232C223.315 31.456 222.667 31.624 221.787 31.736L220.875 31.856L219.723 28.4L220.755 28.304C221.139 28.272 221.411 28.176 221.571 28.016C221.747 27.84 221.835 27.608 221.835 27.32V26.552L220.179 27.344C220.147 27.184 220.091 26.984 220.011 26.744C219.947 26.504 219.867 26.256 219.771 26C219.691 25.728 219.603 25.456 219.507 25.184C219.411 24.912 219.323 24.664 219.243 24.44C219.179 25.448 219.091 26.336 218.979 27.104C218.883 27.856 218.763 28.528 218.619 29.12C218.491 29.728 218.339 30.264 218.163 30.728C218.003 31.208 217.843 31.664 217.683 32.096L214.515 30.464C214.723 29.952 214.915 29.456 215.091 28.976C215.267 28.496 215.427 27.968 215.571 27.392C215.715 26.816 215.835 26.176 215.931 25.472C216.027 24.752 216.099 23.896 216.147 22.904H215.115V19.448H216.171V11.288H218.355C218.451 11 218.547 10.704 218.643 10.4C218.739 10.096 218.811 9.832 218.859 9.608L222.675 9.656C222.627 9.816 222.539 10.048 222.411 10.352C222.283 10.656 222.155 10.968 222.027 11.288H224.691V28.808V29.216C225.043 28.688 225.323 28.192 225.531 27.728C225.755 27.248 225.923 26.704 226.035 26.096C226.163 25.472 226.243 24.736 226.275 23.888C226.323 23.04 226.347 21.976 226.347 20.696V17.552H234.435V27.32C234.435 27.784 234.547 28.024 234.771 28.04C234.867 28.056 234.955 28.072 235.035 28.088C235.131 28.088 235.219 28.072 235.299 28.04C235.395 28.008 235.467 27.944 235.515 27.848C235.579 27.736 235.627 27.544 235.659 27.272C235.675 27.096 235.683 26.944 235.683 26.816C235.699 26.688 235.707 26.568 235.707 26.456C235.723 26.328 235.731 26.2 235.731 26.072C235.747 25.944 235.755 25.792 235.755 25.616L237.363 26.288ZM219.339 15.464L221.043 14.96C221.171 15.232 221.299 15.568 221.427 15.968C221.571 16.352 221.707 16.736 221.835 17.12V14.456H219.339V15.464ZM219.339 19.448H221.835V18.344L220.251 19.016C220.219 18.84 220.163 18.608 220.083 18.32C220.019 18.032 219.939 17.736 219.843 17.432C219.763 17.112 219.675 16.8 219.579 16.496C219.499 16.192 219.419 15.92 219.339 15.68V19.448ZM220.971 23.12C221.067 23.344 221.195 23.648 221.355 24.032C221.531 24.4 221.691 24.784 221.835 25.184V22.904H219.315C219.299 23.032 219.291 23.16 219.291 23.288C219.291 23.416 219.291 23.544 219.291 23.672L220.971 23.12ZM238.688 14.12C239.088 13.816 239.528 13.464 240.008 13.064C240.504 12.648 241 12.224 241.496 11.792C241.992 11.344 242.472 10.896 242.936 10.448C243.4 10 243.8 9.592 244.136 9.224L246.872 11.96C246.488 12.392 246.04 12.864 245.528 13.376C245.016 13.888 244.48 14.4 243.92 14.912C243.36 15.424 242.792 15.928 242.216 16.424C241.64 16.92 241.088 17.376 240.56 17.792L238.688 14.12ZM259.448 14.24H248.168V10.4H259.448V14.24ZM246.872 18.464C246.632 18.784 246.352 19.128 246.032 19.496C245.712 19.848 245.368 20.216 245 20.6V31.64H241.352V24.056L239.6 25.544L238.232 21.56C238.728 21.144 239.24 20.704 239.768 20.24C240.312 19.76 240.84 19.28 241.352 18.8C241.88 18.304 242.376 17.808 242.84 17.312C243.32 16.8 243.744 16.312 244.112 15.848L246.872 18.464ZM260.456 21.224H257.36V27.776C257.36 28.48 257.28 29.064 257.12 29.528C256.96 30.008 256.704 30.392 256.352 30.68C256 30.984 255.552 31.208 255.008 31.352C254.464 31.496 253.808 31.592 253.04 31.64L250.76 31.784L249.608 27.656L251.72 27.584C252.312 27.552 252.712 27.44 252.92 27.248C253.144 27.04 253.256 26.68 253.256 26.168V21.224H247.256V17.264H260.456V21.224ZM268.574 23.624V28.76C268.574 29.336 268.526 29.8 268.43 30.152C268.35 30.52 268.206 30.808 267.998 31.016C267.79 31.24 267.51 31.4 267.158 31.496C266.806 31.592 266.374 31.664 265.862 31.712L263.99 31.88L262.982 28.04L264.254 27.92C264.542 27.888 264.734 27.8 264.83 27.656C264.942 27.512 264.998 27.224 264.998 26.792V24.128C264.502 24.208 264.03 24.28 263.582 24.344C263.15 24.408 262.774 24.472 262.454 24.536L262.094 20.552C262.51 20.504 262.966 20.456 263.462 20.408C263.958 20.344 264.47 20.272 264.998 20.192V16.808H262.838V13.04H264.998V9.416L268.574 9.512V13.04H270.398V16.808H268.574V19.688C268.862 19.656 269.142 19.616 269.414 19.568C269.686 19.52 269.95 19.48 270.206 19.448L270.23 23.36L268.574 23.624ZM282.71 31.736C281.606 31.288 280.598 30.824 279.686 30.344C278.79 29.864 277.942 29.344 277.142 28.784C276.374 29.312 275.494 29.824 274.502 30.32C273.51 30.816 272.366 31.336 271.07 31.88L269.102 28.136C270.094 27.816 270.998 27.488 271.814 27.152C272.63 26.8 273.374 26.432 274.046 26.048C273.582 25.52 273.126 24.96 272.678 24.368C272.246 23.76 271.814 23.104 271.382 22.4L273.71 21.128H270.95V17.384H275.03V15.536H270.806V11.6H275.03V9.416L278.966 9.512V11.6H283.886V15.536H278.966V17.384H282.974V21.416C282.558 22.36 282.126 23.208 281.678 23.96C281.246 24.712 280.766 25.416 280.238 26.072C281.502 26.68 282.982 27.208 284.678 27.656L282.71 31.736ZM274.934 21.128C275.478 22.136 276.166 23.048 276.998 23.864C277.83 23.048 278.502 22.136 279.014 21.128H274.934ZM299.852 17.912C300.252 18.52 300.748 19.152 301.34 19.808C301.932 20.464 302.588 21.128 303.308 21.8C304.044 22.456 304.844 23.112 305.708 23.768C306.572 24.424 307.484 25.056 308.444 25.664L306.092 29.744C304.748 28.752 303.46 27.68 302.228 26.528C301.012 25.36 299.94 24.152 299.012 22.904V31.712H295.004V22.952C294.108 24.216 293.084 25.416 291.932 26.552C290.796 27.672 289.548 28.736 288.188 29.744L285.524 25.88C287.411 24.664 289.092 23.368 290.564 21.992C292.052 20.616 293.212 19.256 294.044 17.912H286.964V13.88H295.004V9.416L299.012 9.512V13.88H302.228C301.908 13.464 301.572 13.04 301.22 12.608C300.884 12.176 300.572 11.8 300.284 11.48L302.804 9.488C303.012 9.68 303.244 9.92 303.5 10.208C303.772 10.48 304.036 10.768 304.292 11.072C304.564 11.36 304.82 11.656 305.06 11.96C305.3 12.248 305.5 12.512 305.66 12.752L304.364 13.88H307.34V17.912H299.852ZM315.577 31.928C315.017 31.928 314.481 31.84 313.969 31.664C313.473 31.504 313.033 31.256 312.649 30.92C312.265 30.6 311.961 30.192 311.737 29.696C311.513 29.216 311.401 28.648 311.401 27.992C311.401 27.336 311.513 26.768 311.737 26.288C311.961 25.792 312.265 25.384 312.649 25.064C313.033 24.728 313.473 24.48 313.969 24.32C314.481 24.144 315.017 24.056 315.577 24.056C316.137 24.056 316.665 24.144 317.161 24.32C317.673 24.48 318.121 24.728 318.505 25.064C318.889 25.384 319.193 25.792 319.417 26.288C319.641 26.768 319.753 27.336 319.753 27.992C319.753 28.648 319.633 29.216 319.393 29.696C319.169 30.192 318.865 30.6 318.481 30.92C318.097 31.256 317.649 31.504 317.137 31.664C316.641 31.84 316.121 31.928 315.577 31.928ZM315.577 29.528C316.025 29.528 316.401 29.4 316.705 29.144C317.009 28.888 317.161 28.504 317.161 27.992C317.161 27.48 317.009 27.096 316.705 26.84C316.401 26.584 316.025 26.456 315.577 26.456C315.129 26.456 314.753 26.584 314.449 26.84C314.145 27.096 313.993 27.48 313.993 27.992C313.993 28.504 314.145 28.888 314.449 29.144C314.753 29.4 315.129 29.528 315.577 29.528Z" fill="white"/>
<path d="M4.496 52.576H6.016L10.512 64H9.088L7.872 60.8H2.624L1.408 64H0L4.496 52.576ZM3.04 59.696H7.456L5.296 53.984H5.232L3.04 59.696ZM15.0756 55.504C16.0996 55.504 16.9156 55.744 17.5396 56.224C18.1796 56.72 18.5636 57.472 18.7076 58.48H17.4436C17.3316 57.84 17.0756 57.36 16.6756 57.04C16.2596 56.72 15.7316 56.576 15.0756 56.576C14.2756 56.576 13.6356 56.88 13.1716 57.488C12.7236 58.08 12.4996 58.88 12.4996 59.888C12.4996 60.896 12.7076 61.696 13.1556 62.272C13.5876 62.848 14.2276 63.152 15.0596 63.152C16.4676 63.152 17.2836 62.432 17.4756 61.008H18.7556C18.5636 62.064 18.1636 62.88 17.5236 63.424C16.8996 63.952 16.0836 64.224 15.0596 64.224C13.8116 64.224 12.8516 63.808 12.1636 62.976C11.5076 62.192 11.1876 61.168 11.1876 59.904C11.1876 58.64 11.5076 57.616 12.1636 56.816C12.8676 55.936 13.8436 55.504 15.0756 55.504ZM20.2576 52.352H21.5376V57.088C21.8256 56.56 22.2096 56.16 22.6896 55.888C23.1376 55.632 23.6336 55.504 24.1936 55.504C25.1536 55.504 25.9056 55.776 26.4176 56.352C26.9296 56.912 27.1856 57.728 27.1856 58.784V64H25.9056V58.976C25.9056 58.208 25.7136 57.616 25.3616 57.2C24.9776 56.784 24.4496 56.576 23.7616 56.576C23.1216 56.576 22.5936 56.832 22.1776 57.344C21.7456 57.856 21.5376 58.512 21.5376 59.28V64H20.2576V52.352ZM30.2043 52.608C30.4763 52.608 30.7003 52.688 30.8923 52.88C31.0843 53.04 31.1803 53.264 31.1803 53.552C31.1803 53.824 31.0843 54.048 30.8923 54.24C30.7003 54.416 30.4763 54.512 30.2043 54.512C29.9323 54.512 29.7083 54.416 29.5163 54.24C29.3243 54.048 29.2443 53.824 29.2443 53.552C29.2443 53.264 29.3243 53.04 29.5163 52.88C29.7083 52.688 29.9323 52.608 30.2043 52.608ZM29.5643 55.728H30.8443V64H29.5643V55.728ZM36.65 55.504C37.978 55.504 38.986 55.952 39.658 56.848C40.266 57.648 40.586 58.784 40.618 60.224H34.09C34.154 61.152 34.394 61.872 34.842 62.384C35.29 62.896 35.914 63.152 36.698 63.152C37.37 63.152 37.93 62.976 38.346 62.64C38.698 62.352 38.97 61.92 39.178 61.344H40.458C40.266 62.144 39.898 62.784 39.338 63.296C38.65 63.904 37.77 64.224 36.698 64.224C35.514 64.224 34.554 63.824 33.85 63.056C33.114 62.256 32.762 61.2 32.762 59.856C32.762 58.64 33.098 57.616 33.802 56.8C34.506 55.936 35.45 55.504 36.65 55.504ZM36.682 56.576C35.946 56.576 35.354 56.816 34.906 57.296C34.458 57.776 34.202 58.416 34.122 59.232H39.29C39.13 57.456 38.25 56.576 36.682 56.576ZM41.205 55.728H42.613L44.981 62.4L47.349 55.728H48.757L45.621 64H44.325L41.205 55.728ZM53.2438 55.504C54.5718 55.504 55.5798 55.952 56.2518 56.848C56.8598 57.648 57.1798 58.784 57.2118 60.224H50.6838C50.7478 61.152 50.9878 61.872 51.4358 62.384C51.8838 62.896 52.5078 63.152 53.2918 63.152C53.9638 63.152 54.5238 62.976 54.9398 62.64C55.2918 62.352 55.5638 61.92 55.7718 61.344H57.0518C56.8598 62.144 56.4918 62.784 55.9318 63.296C55.2438 63.904 54.3638 64.224 53.2918 64.224C52.1078 64.224 51.1478 63.824 50.4438 63.056C49.7078 62.256 49.3558 61.2 49.3558 59.856C49.3558 58.64 49.6918 57.616 50.3958 56.8C51.0998 55.936 52.0438 55.504 53.2438 55.504ZM53.2758 56.576C52.5398 56.576 51.9478 56.816 51.4998 57.296C51.0518 57.776 50.7958 58.416 50.7158 59.232H55.8838C55.7238 57.456 54.8438 56.576 53.2758 56.576ZM67.6389 55.504C68.8229 55.504 69.6869 55.808 70.2629 56.432C70.7429 56.976 70.9989 57.728 70.9989 58.688V64H69.7989V62.608C69.4789 63.056 69.0469 63.424 68.5349 63.712C67.9269 64.048 67.2389 64.224 66.4709 64.224C65.6389 64.224 64.9829 64.016 64.4869 63.6C63.9749 63.168 63.7189 62.608 63.7189 61.936C63.7189 60.992 64.0869 60.288 64.8549 59.808C65.5269 59.36 66.4869 59.12 67.7349 59.104L69.7189 59.072V58.64C69.7189 57.248 68.9989 56.56 67.5589 56.56C66.9509 56.56 66.4549 56.672 66.0709 56.928C65.6389 57.184 65.3669 57.584 65.2389 58.112L63.9749 58.016C64.1509 57.152 64.5829 56.496 65.2549 56.08C65.8629 55.696 66.6469 55.504 67.6389 55.504ZM69.7189 60.032L67.8149 60.064C65.9589 60.096 65.0309 60.704 65.0309 61.904C65.0309 62.288 65.1749 62.592 65.4949 62.848C65.8149 63.088 66.2309 63.216 66.7429 63.216C67.5269 63.216 68.2149 62.96 68.8229 62.448C69.4149 61.952 69.7189 61.376 69.7189 60.736V60.032ZM72.9764 55.728H74.2564V60.784C74.2564 61.568 74.4164 62.16 74.7524 62.544C75.0884 62.928 75.6324 63.136 76.3844 63.136C76.9284 63.136 77.4244 62.912 77.8564 62.496C78.3044 62.048 78.5764 61.472 78.6724 60.768V55.728H79.9524V64H78.6724V62.72C78.0004 63.712 77.1044 64.224 75.9844 64.224C73.9684 64.224 72.9764 63.088 72.9764 60.848V55.728ZM84.1375 53.056V55.728H86.1855V56.8H84.1375V62.064C84.1375 62.368 84.1855 62.592 84.3135 62.72C84.4255 62.848 84.6335 62.928 84.9215 62.928H85.9775V64H84.7295C84.0575 64 83.5615 63.824 83.2735 63.472C83.0015 63.152 82.8735 62.688 82.8735 62.064V56.8H81.2095V55.728H82.8735V53.584L84.1375 53.056ZM91.313 55.504C92.545 55.504 93.537 55.92 94.273 56.784C94.977 57.6 95.329 58.624 95.329 59.872C95.329 61.104 94.977 62.128 94.289 62.928C93.537 63.792 92.545 64.224 91.313 64.224C90.065 64.224 89.089 63.792 88.353 62.928C87.649 62.128 87.297 61.104 87.297 59.872C87.297 58.624 87.649 57.6 88.353 56.784C89.089 55.92 90.065 55.504 91.313 55.504ZM91.313 56.576C90.433 56.576 89.745 56.912 89.265 57.584C88.817 58.192 88.609 58.944 88.609 59.872C88.609 60.784 88.817 61.536 89.265 62.144C89.745 62.816 90.433 63.152 91.313 63.152C92.177 63.152 92.865 62.816 93.377 62.144C93.809 61.536 94.033 60.768 94.033 59.872C94.033 58.944 93.809 58.192 93.377 57.584C92.865 56.912 92.177 56.576 91.313 56.576ZM100.864 55.504C102.912 55.504 103.952 56.64 103.952 58.912V64H102.672V59.008C102.672 57.392 101.936 56.592 100.496 56.592C99.92 56.592 99.424 56.8 99.008 57.216C98.56 57.664 98.32 58.256 98.272 59.008V64H96.992V55.728H98.272V56.944C98.56 56.48 98.928 56.128 99.376 55.888C99.824 55.632 100.32 55.504 100.864 55.504ZM109.626 55.504C110.858 55.504 111.85 55.92 112.586 56.784C113.29 57.6 113.642 58.624 113.642 59.872C113.642 61.104 113.29 62.128 112.602 62.928C111.85 63.792 110.858 64.224 109.626 64.224C108.378 64.224 107.402 63.792 106.666 62.928C105.962 62.128 105.61 61.104 105.61 59.872C105.61 58.624 105.962 57.6 106.666 56.784C107.402 55.92 108.378 55.504 109.626 55.504ZM109.626 56.576C108.746 56.576 108.058 56.912 107.578 57.584C107.13 58.192 106.922 58.944 106.922 59.872C106.922 60.784 107.13 61.536 107.578 62.144C108.058 62.816 108.746 63.152 109.626 63.152C110.49 63.152 111.178 62.816 111.69 62.144C112.122 61.536 112.346 60.768 112.346 59.872C112.346 58.944 112.122 58.192 111.69 57.584C111.178 56.912 110.49 56.576 109.626 56.576ZM118.921 55.504C120.185 55.504 121.049 56.016 121.513 57.072C121.833 56.528 122.217 56.128 122.665 55.888C123.065 55.632 123.545 55.504 124.121 55.504C124.985 55.504 125.673 55.776 126.217 56.32C126.729 56.88 127.001 57.632 127.001 58.576V64H125.721V58.784C125.721 58.048 125.561 57.504 125.257 57.152C124.937 56.768 124.425 56.592 123.72 56.592C123.177 56.592 122.713 56.784 122.361 57.2C121.977 57.616 121.801 58.144 121.801 58.816V64H120.521V58.784C120.521 57.312 119.881 56.592 118.617 56.592C118.025 56.592 117.545 56.816 117.161 57.296C116.777 57.744 116.585 58.304 116.585 58.96V64H115.305V55.728H116.585V56.832C117.209 55.936 117.993 55.504 118.921 55.504ZM132.688 55.504C133.92 55.504 134.912 55.92 135.648 56.784C136.352 57.6 136.704 58.624 136.704 59.872C136.704 61.104 136.352 62.128 135.664 62.928C134.912 63.792 133.92 64.224 132.688 64.224C131.44 64.224 130.464 63.792 129.728 62.928C129.024 62.128 128.672 61.104 128.672 59.872C128.672 58.624 129.024 57.6 129.728 56.784C130.464 55.92 131.44 55.504 132.688 55.504ZM132.688 56.576C131.808 56.576 131.12 56.912 130.64 57.584C130.192 58.192 129.984 58.944 129.984 59.872C129.984 60.784 130.192 61.536 130.64 62.144C131.12 62.816 131.808 63.152 132.688 63.152C133.552 63.152 134.24 62.816 134.752 62.144C135.184 61.536 135.408 60.768 135.408 59.872C135.408 58.944 135.184 58.192 134.752 57.584C134.24 56.912 133.552 56.576 132.688 56.576ZM138.367 55.728H139.647V60.784C139.647 61.568 139.807 62.16 140.143 62.544C140.479 62.928 141.023 63.136 141.775 63.136C142.319 63.136 142.815 62.912 143.247 62.496C143.695 62.048 143.967 61.472 144.063 60.768V55.728H145.343V64H144.063V62.72C143.391 63.712 142.495 64.224 141.375 64.224C139.359 64.224 138.367 63.088 138.367 60.848V55.728ZM150.248 55.504C152.296 55.504 153.416 56.352 153.64 58.08H152.392C152.28 57.568 152.072 57.184 151.752 56.96C151.4 56.704 150.888 56.576 150.232 56.576C149.656 56.576 149.208 56.672 148.888 56.896C148.536 57.104 148.36 57.392 148.36 57.76C148.36 58.112 148.584 58.416 149.064 58.656C149.368 58.8 149.944 58.976 150.776 59.2C151.768 59.44 152.472 59.696 152.904 59.968C153.56 60.384 153.896 60.944 153.896 61.664C153.896 63.36 152.728 64.224 150.392 64.224C148.216 64.224 147.032 63.264 146.84 61.36H148.088C148.184 62.016 148.424 62.48 148.776 62.768C149.128 63.024 149.656 63.152 150.36 63.152C151.832 63.152 152.584 62.672 152.584 61.744C152.584 61.28 152.312 60.928 151.8 60.672C151.528 60.544 150.936 60.368 150.04 60.144C149.064 59.904 148.376 59.664 147.992 59.408C147.352 59.024 147.048 58.496 147.048 57.792C147.048 57.088 147.352 56.544 147.976 56.128C148.552 55.712 149.32 55.504 150.248 55.504ZM163.654 55.504C165.702 55.504 166.822 56.352 167.046 58.08H165.798C165.686 57.568 165.478 57.184 165.158 56.96C164.806 56.704 164.294 56.576 163.638 56.576C163.062 56.576 162.614 56.672 162.294 56.896C161.942 57.104 161.766 57.392 161.766 57.76C161.766 58.112 161.99 58.416 162.47 58.656C162.774 58.8 163.35 58.976 164.182 59.2C165.174 59.44 165.878 59.696 166.31 59.968C166.966 60.384 167.302 60.944 167.302 61.664C167.302 63.36 166.134 64.224 163.798 64.224C161.622 64.224 160.438 63.264 160.246 61.36H161.494C161.59 62.016 161.83 62.48 162.182 62.768C162.534 63.024 163.062 63.152 163.766 63.152C165.238 63.152 165.99 62.672 165.99 61.744C165.99 61.28 165.718 60.928 165.206 60.672C164.934 60.544 164.342 60.368 163.446 60.144C162.47 59.904 161.782 59.664 161.398 59.408C160.758 59.024 160.454 58.496 160.454 57.792C160.454 57.088 160.758 56.544 161.382 56.128C161.958 55.712 162.726 55.504 163.654 55.504ZM168.805 52.352H170.085V57.088C170.373 56.56 170.757 56.16 171.237 55.888C171.685 55.632 172.181 55.504 172.741 55.504C173.701 55.504 174.453 55.776 174.965 56.352C175.477 56.912 175.733 57.728 175.733 58.784V64H174.453V58.976C174.453 58.208 174.261 57.616 173.909 57.2C173.525 56.784 172.997 56.576 172.309 56.576C171.669 56.576 171.141 56.832 170.725 57.344C170.293 57.856 170.085 58.512 170.085 59.28V64H168.805V52.352ZM178.751 52.608C179.023 52.608 179.247 52.688 179.439 52.88C179.631 53.04 179.727 53.264 179.727 53.552C179.727 53.824 179.631 54.048 179.439 54.24C179.247 54.416 179.023 54.512 178.751 54.512C178.479 54.512 178.255 54.416 178.063 54.24C177.871 54.048 177.791 53.824 177.791 53.552C177.791 53.264 177.871 53.04 178.063 52.88C178.255 52.688 178.479 52.608 178.751 52.608ZM178.111 55.728H179.391V64H178.111V55.728ZM185.741 55.504C186.925 55.504 187.869 55.936 188.557 56.832C189.181 57.632 189.501 58.64 189.501 59.888C189.501 61.104 189.181 62.112 188.573 62.912C187.901 63.776 186.989 64.224 185.805 64.224C184.621 64.224 183.709 63.648 183.069 62.496V67.168H181.789V55.728H182.989V57.088C183.581 56.032 184.493 55.504 185.741 55.504ZM185.581 56.56C184.749 56.56 184.093 56.88 183.645 57.536C183.229 58.112 183.021 58.88 183.021 59.808V59.968C183.021 60.928 183.245 61.696 183.725 62.288C184.173 62.864 184.765 63.168 185.533 63.168C186.429 63.168 187.101 62.848 187.565 62.24C187.981 61.664 188.189 60.88 188.189 59.888C188.189 58.912 187.981 58.128 187.597 57.552C187.133 56.88 186.461 56.56 185.581 56.56ZM195.116 55.504C196.3 55.504 197.244 55.936 197.932 56.832C198.556 57.632 198.876 58.64 198.876 59.888C198.876 61.104 198.556 62.112 197.948 62.912C197.276 63.776 196.364 64.224 195.18 64.224C193.996 64.224 193.084 63.648 192.444 62.496V67.168H191.164V55.728H192.364V57.088C192.956 56.032 193.868 55.504 195.116 55.504ZM194.956 56.56C194.124 56.56 193.468 56.88 193.02 57.536C192.604 58.112 192.396 58.88 192.396 59.808V59.968C192.396 60.928 192.62 61.696 193.1 62.288C193.548 62.864 194.14 63.168 194.908 63.168C195.804 63.168 196.476 62.848 196.94 62.24C197.356 61.664 197.564 60.88 197.564 59.888C197.564 58.912 197.356 58.128 196.972 57.552C196.508 56.88 195.836 56.56 194.956 56.56ZM201.595 52.608C201.867 52.608 202.091 52.688 202.283 52.88C202.475 53.04 202.571 53.264 202.571 53.552C202.571 53.824 202.475 54.048 202.283 54.24C202.091 54.416 201.867 54.512 201.595 54.512C201.323 54.512 201.099 54.416 200.907 54.24C200.715 54.048 200.635 53.824 200.635 53.552C200.635 53.264 200.715 53.04 200.907 52.88C201.099 52.688 201.323 52.608 201.595 52.608ZM200.955 55.728H202.235V64H200.955V55.728ZM208.505 55.504C210.553 55.504 211.593 56.64 211.593 58.912V64H210.313V59.008C210.313 57.392 209.577 56.592 208.137 56.592C207.561 56.592 207.065 56.8 206.649 57.216C206.201 57.664 205.961 58.256 205.913 59.008V64H204.633V55.728H205.913V56.944C206.201 56.48 206.569 56.128 207.017 55.888C207.465 55.632 207.961 55.504 208.505 55.504ZM216.978 55.504C218.226 55.504 219.154 56.048 219.762 57.152V55.728H221.042V63.424C221.042 66.064 219.778 67.392 217.266 67.392C216.146 67.392 215.282 67.168 214.706 66.72C214.114 66.272 213.746 65.6 213.602 64.704H214.882C214.978 65.264 215.218 65.68 215.586 65.936C215.954 66.208 216.514 66.352 217.266 66.352C218.93 66.352 219.762 65.424 219.762 63.6V62.144C219.154 63.248 218.226 63.808 216.978 63.808C215.826 63.808 214.914 63.408 214.242 62.624C213.57 61.856 213.25 60.88 213.25 59.68C213.25 58.464 213.57 57.488 214.242 56.72C214.914 55.904 215.826 55.504 216.978 55.504ZM217.17 56.56C216.338 56.56 215.698 56.848 215.234 57.456C214.786 58 214.562 58.752 214.562 59.68C214.562 60.544 214.754 61.264 215.154 61.808C215.602 62.416 216.258 62.736 217.154 62.736C217.986 62.736 218.626 62.448 219.106 61.872C219.554 61.312 219.778 60.576 219.778 59.68C219.778 58.752 219.554 58 219.106 57.456C218.626 56.848 217.986 56.56 217.17 56.56ZM231.663 52.576H233.247V53.68H231.823C231.471 53.68 231.199 53.76 231.039 53.952C230.879 54.128 230.799 54.416 230.799 54.816V55.728H233.135V56.8H230.799V64H229.519V56.8H227.439V55.728H229.519V54.784C229.519 54.08 229.695 53.552 230.047 53.168C230.415 52.768 230.959 52.576 231.663 52.576ZM238.016 55.504C239.248 55.504 240.24 55.92 240.976 56.784C241.68 57.6 242.032 58.624 242.032 59.872C242.032 61.104 241.68 62.128 240.992 62.928C240.24 63.792 239.248 64.224 238.016 64.224C236.768 64.224 235.792 63.792 235.056 62.928C234.352 62.128 234 61.104 234 59.872C234 58.624 234.352 57.6 235.056 56.784C235.792 55.92 236.768 55.504 238.016 55.504ZM238.016 56.576C237.136 56.576 236.448 56.912 235.968 57.584C235.52 58.192 235.312 58.944 235.312 59.872C235.312 60.784 235.52 61.536 235.968 62.144C236.448 62.816 237.136 63.152 238.016 63.152C238.88 63.152 239.568 62.816 240.08 62.144C240.512 61.536 240.736 60.768 240.736 59.872C240.736 58.944 240.512 58.192 240.08 57.584C239.568 56.912 238.88 56.576 238.016 56.576ZM247.327 55.504C247.775 55.504 248.159 55.568 248.463 55.696V56.976C248.047 56.848 247.631 56.8 247.231 56.8C246.591 56.8 246.047 57.072 245.615 57.648C245.167 58.192 244.959 58.848 244.959 59.616V64H243.695V55.728H244.959V57.168C245.183 56.688 245.471 56.304 245.823 56.032C246.255 55.68 246.751 55.504 247.327 55.504ZM257.075 53.056V55.728H259.123V56.8H257.075V62.064C257.075 62.368 257.123 62.592 257.251 62.72C257.363 62.848 257.571 62.928 257.859 62.928H258.915V64H257.667C256.995 64 256.499 63.824 256.211 63.472C255.939 63.152 255.811 62.688 255.811 62.064V56.8H254.147V55.728H255.811V53.584L257.075 53.056ZM260.555 52.352H261.835V57.088C262.123 56.56 262.507 56.16 262.987 55.888C263.435 55.632 263.931 55.504 264.491 55.504C265.451 55.504 266.203 55.776 266.715 56.352C267.227 56.912 267.483 57.728 267.483 58.784V64H266.203V58.976C266.203 58.208 266.011 57.616 265.659 57.2C265.275 56.784 264.747 56.576 264.059 56.576C263.419 56.576 262.891 56.832 262.475 57.344C262.043 57.856 261.835 58.512 261.835 59.28V64H260.555V52.352ZM272.853 55.504C274.181 55.504 275.189 55.952 275.861 56.848C276.469 57.648 276.789 58.784 276.821 60.224H270.293C270.357 61.152 270.597 61.872 271.045 62.384C271.493 62.896 272.117 63.152 272.901 63.152C273.573 63.152 274.133 62.976 274.549 62.64C274.901 62.352 275.173 61.92 275.381 61.344H276.661C276.469 62.144 276.101 62.784 275.541 63.296C274.853 63.904 273.973 64.224 272.901 64.224C271.717 64.224 270.757 63.824 270.053 63.056C269.317 62.256 268.965 61.2 268.965 59.856C268.965 58.64 269.301 57.616 270.005 56.8C270.709 55.936 271.653 55.504 272.853 55.504ZM272.885 56.576C272.149 56.576 271.557 56.816 271.109 57.296C270.661 57.776 270.405 58.416 270.325 59.232H275.493C275.333 57.456 274.453 56.576 272.885 56.576ZM286.96 52.576H288.544V53.68H287.12C286.768 53.68 286.496 53.76 286.336 53.952C286.176 54.128 286.096 54.416 286.096 54.816V55.728H288.432V56.8H286.096V64H284.816V56.8H282.736V55.728H284.816V54.784C284.816 54.08 284.992 53.552 285.344 53.168C285.712 52.768 286.256 52.576 286.96 52.576ZM289.617 55.728H290.897V60.784C290.897 61.568 291.057 62.16 291.393 62.544C291.729 62.928 292.273 63.136 293.025 63.136C293.569 63.136 294.065 62.912 294.497 62.496C294.945 62.048 295.217 61.472 295.313 60.768V55.728H296.593V64H295.313V62.72C294.641 63.712 293.745 64.224 292.625 64.224C290.609 64.224 289.617 63.088 289.617 60.848V55.728ZM300.778 53.056V55.728H302.826V56.8H300.778V62.064C300.778 62.368 300.826 62.592 300.954 62.72C301.066 62.848 301.274 62.928 301.562 62.928H302.618V64H301.37C300.698 64 300.202 63.824 299.914 63.472C299.642 63.152 299.514 62.688 299.514 62.064V56.8H297.85V55.728H299.514V53.584L300.778 53.056ZM304.258 55.728H305.538V60.784C305.538 61.568 305.698 62.16 306.034 62.544C306.37 62.928 306.914 63.136 307.666 63.136C308.21 63.136 308.706 62.912 309.138 62.496C309.586 62.048 309.858 61.472 309.954 60.768V55.728H311.234V64H309.954V62.72C309.282 63.712 308.386 64.224 307.266 64.224C305.25 64.224 304.258 63.088 304.258 60.848V55.728ZM316.843 55.504C317.291 55.504 317.675 55.568 317.979 55.696V56.976C317.563 56.848 317.147 56.8 316.747 56.8C316.107 56.8 315.563 57.072 315.131 57.648C314.683 58.192 314.475 58.848 314.475 59.616V64H313.211V55.728H314.475V57.168C314.699 56.688 314.987 56.304 315.339 56.032C315.771 55.68 316.267 55.504 316.843 55.504ZM322.463 55.504C323.791 55.504 324.799 55.952 325.471 56.848C326.079 57.648 326.399 58.784 326.431 60.224H319.903C319.967 61.152 320.207 61.872 320.655 62.384C321.103 62.896 321.727 63.152 322.511 63.152C323.183 63.152 323.743 62.976 324.159 62.64C324.511 62.352 324.783 61.92 324.991 61.344H326.271C326.079 62.144 325.711 62.784 325.151 63.296C324.463 63.904 323.583 64.224 322.511 64.224C321.327 64.224 320.367 63.824 319.663 63.056C318.927 62.256 318.575 61.2 318.575 59.856C318.575 58.64 318.911 57.616 319.615 56.8C320.319 55.936 321.263 55.504 322.463 55.504ZM322.495 56.576C321.759 56.576 321.167 56.816 320.719 57.296C320.271 57.776 320.015 58.416 319.935 59.232H325.103C324.943 57.456 324.063 56.576 322.495 56.576ZM329.049 62.096C329.306 62.096 329.546 62.192 329.738 62.384C329.93 62.576 330.026 62.8 330.026 63.088C330.026 63.36 329.93 63.584 329.738 63.776C329.546 63.968 329.306 64.064 329.049 64.064C328.762 64.064 328.538 63.968 328.362 63.776C328.17 63.584 328.074 63.36 328.074 63.088C328.074 62.8 328.17 62.576 328.362 62.384C328.538 62.192 328.762 62.096 329.049 62.096Z" fill="white" fill-opacity="0.5"/>
</svg>
