<svg width="240" height="119" viewBox="0 0 240 119" fill="none" xmlns="http://www.w3.org/2000/svg">
<path d="M10.2655 86.3334C12.3997 86.3334 14.2096 86.9008 15.6684 88.0354C17.1272 89.17 17.9917 90.7098 18.2618 92.6278H16.1277C15.8575 91.2231 15.1551 90.1425 14.0746 89.3861C13.021 88.6567 11.7513 88.3055 10.2385 88.3055C7.99629 88.3055 6.26736 89.0889 5.05171 90.6558C3.9171 92.1146 3.3498 94.0326 3.3498 96.4369C3.3498 98.8412 3.89009 100.759 5.0247 102.164C6.21333 103.65 7.91525 104.406 10.1845 104.406C11.7243 104.406 13.021 104.001 14.1016 103.19C15.2362 102.326 16.0196 101.056 16.3978 99.3814H18.5319C18.0997 101.624 17.1002 103.38 15.5063 104.622C14.0205 105.784 12.2376 106.378 10.1845 106.378C7.18586 106.378 4.88962 105.379 3.29577 103.407C1.83699 101.624 1.13461 99.3004 1.13461 96.4369C1.13461 93.5733 1.864 91.2231 3.3498 89.3861C4.97067 87.333 7.29391 86.3334 10.2655 86.3334ZM27.5693 91.6553C29.6495 91.6553 31.3244 92.3577 32.567 93.8165C33.7557 95.1942 34.35 96.9231 34.35 99.0303C34.35 101.11 33.7557 102.839 32.594 104.19C31.3244 105.649 29.6495 106.378 27.5693 106.378C25.4622 106.378 23.8143 105.649 22.5717 104.19C21.383 102.839 20.7887 101.11 20.7887 99.0303C20.7887 96.9231 21.383 95.1942 22.5717 93.8165C23.8143 92.3577 25.4622 91.6553 27.5693 91.6553ZM27.5693 93.4653C26.0836 93.4653 24.9219 94.0326 24.1115 95.1672C23.3551 96.1937 23.0039 97.4634 23.0039 99.0303C23.0039 100.57 23.3551 101.84 24.1115 102.866C24.9219 104.001 26.0836 104.568 27.5693 104.568C29.0281 104.568 30.1898 104.001 31.0542 102.866C31.7836 101.84 32.1618 100.543 32.1618 99.0303C32.1618 97.4634 31.7836 96.1937 31.0542 95.1672C30.1898 94.0326 29.0281 93.4653 27.5693 93.4653ZM43.2631 91.6553C45.3972 91.6553 46.856 92.5198 47.6394 94.3027C48.1797 93.3842 48.8281 92.7089 49.5845 92.3037C50.2598 91.8714 51.0703 91.6553 52.0428 91.6553C53.5016 91.6553 54.6632 92.1146 55.5817 93.033C56.4462 93.9785 56.9054 95.2482 56.9054 96.8421V106H54.7442V97.1933C54.7442 95.9506 54.4741 95.0321 53.9608 94.4378C53.4205 93.7894 52.5561 93.4923 51.3674 93.4923C50.4489 93.4923 49.6655 93.8165 49.0712 94.5188C48.4228 95.2212 48.1257 96.1127 48.1257 97.2473V106H45.9645V97.1933C45.9645 94.7079 44.884 93.4923 42.7498 93.4923C41.7503 93.4923 40.9398 93.8705 40.2915 94.6809C39.6431 95.4373 39.319 96.3828 39.319 97.4904V106H37.1578V92.0335H39.319V93.8975C40.3725 92.3847 41.6962 91.6553 43.2631 91.6553ZM66.9404 91.6553C68.9395 91.6553 70.5334 92.3847 71.695 93.8975C72.7486 95.2482 73.2888 96.9501 73.2888 99.0573C73.2888 101.11 72.7486 102.812 71.722 104.163C70.5874 105.622 69.0476 106.378 67.0485 106.378C65.0494 106.378 63.5096 105.406 62.429 103.461V111.349H60.2679V92.0335H62.2939V94.3297C63.2935 92.5468 64.8333 91.6553 66.9404 91.6553ZM66.6703 93.4383C65.2655 93.4383 64.1579 93.9785 63.4015 95.0861C62.6992 96.0587 62.348 97.3554 62.348 98.9222V99.1923C62.348 100.813 62.7262 102.11 63.5366 103.109C64.293 104.082 65.2926 104.595 66.5893 104.595C68.1021 104.595 69.2367 104.055 70.0201 103.028C70.7225 102.056 71.0737 100.732 71.0737 99.0573C71.0737 97.4094 70.7225 96.0857 70.0741 95.1132C69.2907 93.9785 68.1561 93.4383 66.6703 93.4383ZM82.1749 91.6553C84.174 91.6553 85.6328 92.1686 86.6053 93.2221C87.4157 94.1406 87.848 95.4103 87.848 97.0312V106H85.8219V103.65C85.2816 104.406 84.5522 105.027 83.6877 105.514C82.6612 106.081 81.4996 106.378 80.2029 106.378C78.7981 106.378 77.6905 106.027 76.8531 105.325C75.9886 104.595 75.5564 103.65 75.5564 102.515C75.5564 100.921 76.1777 99.7326 77.4744 98.9222C78.609 98.1658 80.2299 97.7606 82.337 97.7336L85.6868 97.6795V96.9501C85.6868 94.5999 84.4712 93.4383 82.0399 93.4383C81.0133 93.4383 80.1759 93.6274 79.5275 94.0596C78.7981 94.4918 78.3389 95.1672 78.1228 96.0587L75.9886 95.8966C76.2858 94.4378 77.0152 93.3302 78.1498 92.6278C79.1763 91.9795 80.5 91.6553 82.1749 91.6553ZM85.6868 99.3004L82.4721 99.3544C79.3384 99.4085 77.7716 100.435 77.7716 102.461C77.7716 103.109 78.0147 103.623 78.555 104.055C79.0953 104.46 79.7977 104.676 80.6621 104.676C81.9858 104.676 83.1475 104.244 84.174 103.38C85.1735 102.542 85.6868 101.57 85.6868 100.489V99.3004ZM97.7243 91.6553C101.182 91.6553 102.938 93.5733 102.938 97.4094V106H100.777V97.5715C100.777 94.843 99.5343 93.4923 97.103 93.4923C96.1304 93.4923 95.293 93.8435 94.5906 94.5459C93.8342 95.3023 93.429 96.3018 93.348 97.5715V106H91.1868V92.0335H93.348V94.0866C93.8342 93.3032 94.4555 92.7089 95.212 92.3037C95.9684 91.8714 96.8058 91.6553 97.7243 91.6553ZM104.737 92.0335H107.087L111.356 103.055L115.489 92.0335H117.866L110.221 111.349H107.871L110.275 105.676L104.737 92.0335ZM128.945 86.7117H136.833C141.263 86.7117 143.479 88.6027 143.479 92.3847C143.479 96.1937 141.236 98.1118 136.806 98.1118H131.16V106H128.945V86.7117ZM131.16 88.6297V96.1937H136.698C138.265 96.1937 139.399 95.8696 140.156 95.2482C140.885 94.6269 141.263 93.6814 141.263 92.3847C141.263 91.088 140.885 90.1425 140.129 89.5752C139.372 88.9268 138.238 88.6297 136.698 88.6297H131.16ZM152.14 91.6553C152.896 91.6553 153.544 91.7634 154.058 91.9795V94.1406C153.355 93.9245 152.653 93.8435 151.977 93.8435C150.897 93.8435 149.978 94.3027 149.249 95.2752C148.493 96.1937 148.141 97.3013 148.141 98.598V106H146.007V92.0335H148.141V94.4648C148.52 93.6544 149.006 93.006 149.6 92.5468C150.33 91.9525 151.167 91.6553 152.14 91.6553ZM162.114 91.6553C164.194 91.6553 165.869 92.3577 167.112 93.8165C168.301 95.1942 168.895 96.9231 168.895 99.0303C168.895 101.11 168.301 102.839 167.139 104.19C165.869 105.649 164.194 106.378 162.114 106.378C160.007 106.378 158.359 105.649 157.117 104.19C155.928 102.839 155.334 101.11 155.334 99.0303C155.334 96.9231 155.928 95.1942 157.117 93.8165C158.359 92.3577 160.007 91.6553 162.114 91.6553ZM162.114 93.4653C160.628 93.4653 159.467 94.0326 158.656 95.1672C157.9 96.1937 157.549 97.4634 157.549 99.0303C157.549 100.57 157.9 101.84 158.656 102.866C159.467 104.001 160.628 104.568 162.114 104.568C163.573 104.568 164.735 104.001 165.599 102.866C166.328 101.84 166.707 100.543 166.707 99.0303C166.707 97.4634 166.328 96.1937 165.599 95.1672C164.735 94.0326 163.573 93.4653 162.114 93.4653ZM177.295 86.7117H179.969V88.5757H177.565C176.97 88.5757 176.511 88.7107 176.241 89.0349C175.971 89.3321 175.836 89.8183 175.836 90.4937V92.0335H184.345V106H182.211V93.8435H175.836V106H173.675V93.8435H170.163V92.0335H173.675V90.4397C173.675 89.251 173.972 88.3595 174.566 87.7112C175.188 87.0358 176.106 86.7117 177.295 86.7117ZM188.57 86.3334H190.705V106H188.57V86.3334ZM200.25 91.6553C202.492 91.6553 204.194 92.4117 205.329 93.9245C206.355 95.2752 206.896 97.1933 206.95 99.6246H195.928C196.036 101.191 196.441 102.407 197.198 103.272C197.954 104.136 199.008 104.568 200.331 104.568C201.466 104.568 202.411 104.271 203.114 103.704C203.708 103.218 204.167 102.488 204.519 101.516H206.68C206.355 102.866 205.734 103.947 204.789 104.811C203.627 105.838 202.141 106.378 200.331 106.378C198.332 106.378 196.711 105.703 195.523 104.406C194.28 103.055 193.686 101.272 193.686 99.0032C193.686 96.9501 194.253 95.2212 195.442 93.8435C196.63 92.3847 198.224 91.6553 200.25 91.6553ZM200.304 93.4653C199.062 93.4653 198.062 93.8705 197.306 94.6809C196.549 95.4914 196.117 96.5719 195.982 97.9497H204.708C204.437 94.9511 202.952 93.4653 200.304 93.4653Z" fill="white" fill-opacity="0.6"/>
<path d="M4.872 59.984H11.48L24.136 32.992H32.592L19.936 59.984H40.04L36.568 51.528H44.856L51.296 67.152H4.872V59.984ZM1.512 44.416C4.79733 39.3387 7.448 34.56 9.464 30.08C11.48 25.5627 13.0853 20.896 14.28 16.08H22.064C20.9067 21.1947 19.4133 26.0293 17.584 30.584C15.792 35.1387 13.5333 39.7493 10.808 44.416H1.512ZM41.72 16.08C42.9147 20.896 44.52 25.5627 46.536 30.08C48.552 34.56 51.2027 39.3387 54.488 44.416H45.192C42.4667 39.7493 40.1893 35.1387 38.36 30.584C36.568 26.0293 35.0933 21.1947 33.936 16.08H41.72ZM93.8 39.096V62.504H61.88V39.096H93.8ZM58.24 28.68H97.44V35.568H58.24V28.68ZM61.376 17.928H108.024V67.6H95.368V60.432H100.856V25.096H61.376V17.928ZM86.632 55.448V46.152H69.048V55.448H86.632ZM162.736 67.6H155.624V38.144H134.008V31.424H162.792L162.736 67.6ZM114.8 24.256C118.347 22.688 120.923 20.4293 122.528 17.48H139.832V23.808C142.931 22.2773 145.208 20.168 146.664 17.48H165.2V24.2H157.92L160.048 29.632H152.488L150.416 24.312C148.997 26.0667 147.299 27.5787 145.32 28.848C143.379 30.08 141.251 30.92 138.936 31.368V24.256L139.048 24.2H133.728L135.856 29.632H128.296L126.224 24.368C124.805 26.1227 123.107 27.616 121.128 28.848C119.187 30.08 117.077 30.92 114.8 31.368V24.256ZM124.376 41.392V67.6H117.264L117.208 41.392H124.376ZM127.288 30.192L130.704 38.928H123.256L119.84 30.192H127.288ZM128.968 41.336L151.032 41.504V64.744H128.968V41.336ZM144.144 59.312V55.728H135.856V59.312H144.144ZM144.144 50.52V46.936H135.856V50.52H144.144ZM221.76 43.072C217.691 41.5787 213.939 39.3947 210.504 36.52V67.6H203.224V35.008H208.768C205.52 31.984 202.813 28.4 200.648 24.256H191.352C189.187 28.4 186.48 31.984 183.232 35.008H189.504V40.944C189.504 46.4693 188.981 51.2853 187.936 55.392C186.928 59.4987 185.173 63.568 182.672 67.6H173.376C176.661 63.5307 178.957 59.3493 180.264 55.056C181.571 50.7253 182.224 46.0213 182.224 40.944V35.904C178.565 39.0773 174.571 41.4667 170.24 43.072V35.288C178.192 30.8827 183.773 24.8533 186.984 17.2H205.016C208.227 24.8533 213.808 30.8827 221.76 35.288V43.072Z" fill="white"/>
</svg>
