<svg width="234" height="129" viewBox="0 0 234 129" fill="none" xmlns="http://www.w3.org/2000/svg">
<path d="M60.72 52.232C64.08 51.048 67.104 49.624 69.792 47.96C66.176 44.216 63.568 39.352 61.968 33.368H86.832C86.448 36.152 85.568 38.808 84.192 41.336C82.848 43.832 81.088 46.136 78.912 48.248C80.256 49.048 81.52 49.72 82.704 50.264C83.92 50.776 85.552 51.432 87.6 52.232V58.376C82.224 56.424 77.84 54.28 74.448 51.944C70.416 54.792 65.84 56.936 60.72 58.376V52.232ZM43.92 28.28H56.112V48.152L59.664 46.808V53.96L49.68 57.8V34.664H43.92V28.28ZM53.52 14.6L56.832 25.016H50.304L46.992 14.6H53.52ZM60.528 32.408C62 30.712 62.976 28.824 63.456 26.744C63.968 24.632 64.224 22.152 64.224 19.304V15.416H83.952V25.928H87.984V31.688H78.192V21.272H69.936C69.872 23.544 69.632 25.576 69.216 27.368C68.8 29.128 68.08 30.808 67.056 32.408H60.528ZM69.744 38.504C70.928 40.872 72.432 42.92 74.256 44.648C76.368 42.792 78.032 40.744 79.248 38.504H69.744ZM119.232 36.2H107.808V29.816H119.184V14.12H125.616V29.816H136.56V36.2H125.616V58.28H119.232V36.2ZM91.68 28.28H103.152V48.728L109.104 46.952V54.104L96.72 57.8V34.664H91.68V28.28ZM101.52 14.6L104.832 25.016H98.304L94.992 14.6H101.52ZM183.6 57.992C174.032 57.224 166.832 54.424 162 49.592C157.168 54.424 149.968 57.224 140.4 57.992V52.136C147.088 51.592 152.528 49.8 156.72 46.76H141.984V41.192H158.832V38.36H140.4V32.792H158.832V30.2H144.096V24.968H158.832V22.424H141.84V17H149.328L148.272 14.024H154.8L155.856 17H168.144L169.2 14.024H175.728L174.672 17H182.16V22.424H165.168V24.968H179.904V30.2H165.168V32.792H183.6V38.36H165.168V41.192H182.016V46.76H167.28C171.472 49.8 176.912 51.592 183.6 52.136V57.992ZM188.64 19.736H194.88L192.864 14.12H199.44L201.456 19.736H207.552L205.536 14.12H212.112L214.128 19.736H218.64L220.656 14.12H227.136L225.12 19.736H231.36V30.056H225.12V29.72C222.816 33.208 220.224 36.52 217.344 39.656H231.648V45.608H215.088V57.8H201.504V52.088H208.752V45.608H188.4V39.656H209.856C211.264 38.248 212.768 36.664 214.368 34.904H194.736V30.056H188.64V19.736ZM225.12 29.144V25.496H194.88V29.144H225.12Z" fill="white"/>
<path d="M35.3374 73.864H41.4814C44.1934 73.864 46.2334 74.632 47.6254 76.216C48.8974 77.656 49.5454 79.744 49.5454 82.432C49.5454 85.072 48.8494 87.16 47.4814 88.648C46.0414 90.208 43.9774 91 41.2894 91H35.3374V73.864ZM37.3054 75.568V89.296H40.9534C43.1854 89.296 44.8654 88.696 45.9934 87.52C47.0494 86.368 47.6014 84.664 47.6014 82.432C47.6014 80.128 47.0974 78.424 46.1134 77.32C45.0574 76.144 43.4254 75.568 41.1694 75.568H37.3054ZM57.1547 78.256C59.1467 78.256 60.6587 78.928 61.6667 80.272C62.5787 81.472 63.0587 83.176 63.1067 85.336H53.3147C53.4107 86.728 53.7707 87.808 54.4427 88.576C55.1147 89.344 56.0507 89.728 57.2267 89.728C58.2347 89.728 59.0747 89.464 59.6987 88.96C60.2267 88.528 60.6347 87.88 60.9467 87.016H62.8667C62.5787 88.216 62.0267 89.176 61.1867 89.944C60.1547 90.856 58.8347 91.336 57.2267 91.336C55.4507 91.336 54.0107 90.736 52.9547 89.584C51.8507 88.384 51.3227 86.8 51.3227 84.784C51.3227 82.96 51.8267 81.424 52.8827 80.2C53.9387 78.904 55.3547 78.256 57.1547 78.256ZM57.2027 79.864C56.0987 79.864 55.2107 80.224 54.5387 80.944C53.8667 81.664 53.4827 82.624 53.3627 83.848H61.1147C60.8747 81.184 59.5547 79.864 57.2027 79.864ZM69.7472 78.256C72.8192 78.256 74.4992 79.528 74.8352 82.12H72.9632C72.7952 81.352 72.4832 80.776 72.0032 80.44C71.4752 80.056 70.7072 79.864 69.7232 79.864C68.8592 79.864 68.1872 80.008 67.7072 80.344C67.1792 80.656 66.9152 81.088 66.9152 81.64C66.9152 82.168 67.2512 82.624 67.9712 82.984C68.4272 83.2 69.2912 83.464 70.5392 83.8C72.0272 84.16 73.0832 84.544 73.7312 84.952C74.7152 85.576 75.2192 86.416 75.2192 87.496C75.2192 90.04 73.4672 91.336 69.9632 91.336C66.6992 91.336 64.9232 89.896 64.6352 87.04H66.5072C66.6512 88.024 67.0112 88.72 67.5392 89.152C68.0672 89.536 68.8592 89.728 69.9152 89.728C72.1232 89.728 73.2512 89.008 73.2512 87.616C73.2512 86.92 72.8432 86.392 72.0752 86.008C71.6672 85.816 70.7792 85.552 69.4352 85.216C67.9712 84.856 66.9392 84.496 66.3632 84.112C65.4032 83.536 64.9472 82.744 64.9472 81.688C64.9472 80.632 65.4032 79.816 66.3392 79.192C67.2032 78.568 68.3552 78.256 69.7472 78.256ZM79.0564 73.912C79.4644 73.912 79.8004 74.032 80.0884 74.32C80.3764 74.56 80.5204 74.896 80.5204 75.328C80.5204 75.736 80.3764 76.072 80.0884 76.36C79.8004 76.624 79.4644 76.768 79.0564 76.768C78.6484 76.768 78.3124 76.624 78.0244 76.36C77.7364 76.072 77.6164 75.736 77.6164 75.328C77.6164 74.896 77.7364 74.56 78.0244 74.32C78.3124 74.032 78.6484 73.912 79.0564 73.912ZM78.0964 78.592H80.0164V91H78.0964V78.592ZM88.725 78.256C90.597 78.256 91.989 79.072 92.901 80.728V78.592H94.821V90.136C94.821 94.096 92.925 96.088 89.157 96.088C87.477 96.088 86.181 95.752 85.317 95.08C84.429 94.408 83.877 93.4 83.661 92.056H85.581C85.725 92.896 86.085 93.52 86.637 93.904C87.189 94.312 88.029 94.528 89.157 94.528C91.653 94.528 92.901 93.136 92.901 90.4V88.216C91.989 89.872 90.597 90.712 88.725 90.712C86.997 90.712 85.629 90.112 84.621 88.936C83.613 87.784 83.133 86.32 83.133 84.52C83.133 82.696 83.613 81.232 84.621 80.08C85.629 78.856 86.997 78.256 88.725 78.256ZM89.013 79.84C87.765 79.84 86.805 80.272 86.109 81.184C85.437 82 85.101 83.128 85.101 84.52C85.101 85.816 85.389 86.896 85.989 87.712C86.661 88.624 87.645 89.104 88.989 89.104C90.237 89.104 91.197 88.672 91.917 87.808C92.589 86.968 92.925 85.864 92.925 84.52C92.925 83.128 92.589 82 91.917 81.184C91.197 80.272 90.237 79.84 89.013 79.84ZM103.601 78.256C106.673 78.256 108.233 79.96 108.233 83.368V91H106.313V83.512C106.313 81.088 105.209 79.888 103.049 79.888C102.185 79.888 101.441 80.2 100.817 80.824C100.145 81.496 99.7847 82.384 99.7127 83.512V91H97.7927V78.592H99.7127V80.416C100.145 79.72 100.697 79.192 101.369 78.832C102.041 78.448 102.785 78.256 103.601 78.256ZM124.447 73.864H126.727L133.471 91H131.335L129.511 86.2H121.639L119.815 91H117.703L124.447 73.864ZM122.263 84.544H128.887L125.647 75.976H125.551L122.263 84.544ZM140.077 78.256C142.069 78.256 143.581 78.928 144.589 80.272C145.501 81.472 145.981 83.176 146.029 85.336H136.237C136.333 86.728 136.693 87.808 137.365 88.576C138.037 89.344 138.973 89.728 140.149 89.728C141.157 89.728 141.997 89.464 142.621 88.96C143.149 88.528 143.557 87.88 143.869 87.016H145.789C145.501 88.216 144.949 89.176 144.109 89.944C143.077 90.856 141.757 91.336 140.149 91.336C138.373 91.336 136.933 90.736 135.877 89.584C134.773 88.384 134.245 86.8 134.245 84.784C134.245 82.96 134.749 81.424 135.805 80.2C136.861 78.904 138.277 78.256 140.077 78.256ZM140.125 79.864C139.021 79.864 138.133 80.224 137.461 80.944C136.789 81.664 136.405 82.624 136.285 83.848H144.037C143.797 81.184 142.477 79.864 140.125 79.864ZM152.669 78.256C155.741 78.256 157.421 79.528 157.757 82.12H155.885C155.717 81.352 155.405 80.776 154.925 80.44C154.397 80.056 153.629 79.864 152.645 79.864C151.781 79.864 151.109 80.008 150.629 80.344C150.101 80.656 149.837 81.088 149.837 81.64C149.837 82.168 150.173 82.624 150.893 82.984C151.349 83.2 152.213 83.464 153.461 83.8C154.949 84.16 156.005 84.544 156.653 84.952C157.637 85.576 158.141 86.416 158.141 87.496C158.141 90.04 156.389 91.336 152.885 91.336C149.621 91.336 147.845 89.896 147.557 87.04H149.429C149.573 88.024 149.933 88.72 150.461 89.152C150.989 89.536 151.781 89.728 152.837 89.728C155.045 89.728 156.173 89.008 156.173 87.616C156.173 86.92 155.765 86.392 154.997 86.008C154.589 85.816 153.701 85.552 152.357 85.216C150.893 84.856 149.861 84.496 149.285 84.112C148.325 83.536 147.869 82.744 147.869 81.688C147.869 80.632 148.325 79.816 149.261 79.192C150.125 78.568 151.277 78.256 152.669 78.256ZM163.706 74.584V78.592H166.778V80.2H163.706V88.096C163.706 88.552 163.778 88.888 163.97 89.08C164.138 89.272 164.45 89.392 164.882 89.392H166.466V91H164.594C163.586 91 162.842 90.736 162.41 90.208C162.002 89.728 161.81 89.032 161.81 88.096V80.2H159.314V78.592H161.81V75.376L163.706 74.584ZM168.926 73.528H170.846V80.632C171.278 79.84 171.854 79.24 172.574 78.832C173.246 78.448 173.99 78.256 174.83 78.256C176.27 78.256 177.398 78.664 178.166 79.528C178.934 80.368 179.318 81.592 179.318 83.176V91H177.398V83.464C177.398 82.312 177.11 81.424 176.582 80.8C176.006 80.176 175.214 79.864 174.182 79.864C173.222 79.864 172.43 80.248 171.806 81.016C171.158 81.784 170.846 82.768 170.846 83.92V91H168.926V73.528ZM187.373 78.256C189.365 78.256 190.877 78.928 191.885 80.272C192.797 81.472 193.277 83.176 193.325 85.336H183.533C183.629 86.728 183.989 87.808 184.661 88.576C185.333 89.344 186.269 89.728 187.445 89.728C188.453 89.728 189.293 89.464 189.917 88.96C190.445 88.528 190.853 87.88 191.165 87.016H193.085C192.797 88.216 192.245 89.176 191.405 89.944C190.373 90.856 189.053 91.336 187.445 91.336C185.669 91.336 184.229 90.736 183.173 89.584C182.069 88.384 181.541 86.8 181.541 84.784C181.541 82.96 182.045 81.424 183.101 80.2C184.157 78.904 185.573 78.256 187.373 78.256ZM187.421 79.864C186.317 79.864 185.429 80.224 184.757 80.944C184.085 81.664 183.701 82.624 183.581 83.848H191.333C191.093 81.184 189.773 79.864 187.421 79.864ZM198.886 74.584V78.592H201.958V80.2H198.886V88.096C198.886 88.552 198.958 88.888 199.15 89.08C199.318 89.272 199.63 89.392 200.062 89.392H201.646V91H199.774C198.766 91 198.022 90.736 197.59 90.208C197.182 89.728 196.99 89.032 196.99 88.096V80.2H194.494V78.592H196.99V75.376L198.886 74.584ZM205.689 73.912C206.097 73.912 206.433 74.032 206.721 74.32C207.009 74.56 207.153 74.896 207.153 75.328C207.153 75.736 207.009 76.072 206.721 76.36C206.433 76.624 206.097 76.768 205.689 76.768C205.281 76.768 204.945 76.624 204.657 76.36C204.369 76.072 204.249 75.736 204.249 75.328C204.249 74.896 204.369 74.56 204.657 74.32C204.945 74.032 205.281 73.912 205.689 73.912ZM204.729 78.592H206.649V91H204.729V78.592ZM215.598 78.256C217.134 78.256 218.358 78.616 219.294 79.336C220.254 80.08 220.83 81.208 221.046 82.72H219.15C218.982 81.76 218.598 81.04 217.998 80.56C217.374 80.08 216.582 79.864 215.598 79.864C214.398 79.864 213.438 80.32 212.742 81.232C212.07 82.12 211.734 83.32 211.734 84.832C211.734 86.344 212.046 87.544 212.718 88.408C213.366 89.272 214.326 89.728 215.574 89.728C217.686 89.728 218.91 88.648 219.198 86.512H221.118C220.83 88.096 220.23 89.32 219.27 90.136C218.334 90.928 217.11 91.336 215.574 91.336C213.702 91.336 212.262 90.712 211.23 89.464C210.246 88.288 209.766 86.752 209.766 84.856C209.766 82.96 210.246 81.424 211.23 80.224C212.286 78.904 213.75 78.256 215.598 78.256ZM227.763 78.256C230.835 78.256 232.515 79.528 232.851 82.12H230.979C230.811 81.352 230.499 80.776 230.019 80.44C229.491 80.056 228.723 79.864 227.739 79.864C226.875 79.864 226.203 80.008 225.723 80.344C225.195 80.656 224.931 81.088 224.931 81.64C224.931 82.168 225.267 82.624 225.987 82.984C226.443 83.2 227.307 83.464 228.555 83.8C230.043 84.16 231.099 84.544 231.747 84.952C232.731 85.576 233.235 86.416 233.235 87.496C233.235 90.04 231.483 91.336 227.979 91.336C224.715 91.336 222.939 89.896 222.651 87.04H224.523C224.667 88.024 225.027 88.72 225.555 89.152C226.083 89.536 226.875 89.728 227.931 89.728C230.139 89.728 231.267 89.008 231.267 87.616C231.267 86.92 230.859 86.392 230.091 86.008C229.683 85.816 228.795 85.552 227.451 85.216C225.987 84.856 224.955 84.496 224.379 84.112C223.419 83.536 222.963 82.744 222.963 81.688C222.963 80.632 223.419 79.816 224.355 79.192C225.219 78.568 226.371 78.256 227.763 78.256Z" fill="white" fill-opacity="0.6"/>
<rect x="130" y="119" width="104" height="10" fill="white"/>
</svg>
