<svg width="600" height="103" viewBox="0 0 600 103" fill="none" xmlns="http://www.w3.org/2000/svg">
<path d="M206.4 50.504H225.168V40.952H209.616V35H225.168L225.12 26.168H215.088C214.416 28.376 213.68 30.376 212.88 32.168H205.728C208.416 26.408 210.144 20.712 210.912 15.08H217.296C217.072 16.936 216.816 18.616 216.528 20.12H225.12V14.12H231.456V20.12H248.496V26.168H231.456V35H246.384V40.952H231.456V50.504H249.6V56.84H206.4V50.504ZM265.104 39.368H271.152V51.848H282.192V45.896H288.144V57.608H265.104V39.368ZM253.92 49.64C256.672 47.592 258.24 44.344 258.624 39.896H264C263.84 44.056 262.912 47.512 261.216 50.264C259.52 53.016 257.088 55.176 253.92 56.744V49.64ZM254.4 31.736C262.176 30.52 268.224 27.64 272.544 23.096H255.504V17.192H272.832V13.64H279.168V17.192H296.496V23.096H279.456C283.776 27.64 289.824 30.52 297.6 31.736V38.024C288.032 36.584 280.832 33.32 276 28.232C274.688 29.64 273.056 30.984 271.104 32.264H274.656L276.096 37.688H269.856L268.752 33.608C264.752 35.72 259.968 37.192 254.4 38.024V31.736ZM279.312 38.504L280.992 48.296H274.992L273.312 38.504H279.312ZM293.376 39.896C293.76 44.344 295.328 47.592 298.08 49.64V56.744C294.912 55.176 292.48 53.016 290.784 50.264C289.088 47.512 288.16 44.056 288 39.896H293.376ZM314.784 57.8C316.832 53.896 318.368 50.072 319.392 46.328C320.448 42.552 321.056 38.632 321.216 34.568H318.672V28.52H326.064L331.632 21.128H318.192V15.08H343.872L333.744 28.52H345.264V57.8H336.096V51.8H339.264V34.568H336.624C336.56 38.824 336.176 42.824 335.472 46.568C334.8 50.28 333.68 54.024 332.112 57.8H325.44C327.168 53.896 328.448 50.072 329.28 46.328C330.144 42.552 330.656 38.632 330.816 34.568H327.12C326.992 38.856 326.496 42.856 325.632 46.568C324.8 50.28 323.424 54.024 321.504 57.8H314.784ZM302.352 46.664L306.816 45.8V30.152H302.448V23.912H306.816V14.6H312.96V23.912H316.944V30.152H312.96V44.6L317.136 43.784V50.456L302.352 53.336V46.664ZM389.76 14.936V30.008H375.168V31.592H393.6V36.824H350.4V31.592H368.832V30.008H354.24V14.936H389.76ZM351.6 57.8C353.584 55.208 355.072 52.632 356.064 50.072H362.16C361.232 52.632 359.904 55.208 358.176 57.8H351.6ZM353.808 38.408H390.192V49.304H375.12V57.8H368.88V49.304H353.808V38.408ZM383.952 45.032V42.584H360.048V45.032H383.952ZM383.568 25.976V24.344H360.432V25.976H383.568ZM383.568 20.648V19.016H360.432V20.648H383.568ZM387.936 50.072C388.928 52.632 390.416 55.208 392.4 57.8H385.824C384.096 55.208 382.768 52.632 381.84 50.072H387.936Z" fill="white"/>
<path d="M194.337 73.864H206.481V75.568H196.305V81.304H205.905V83.008H196.305V89.296H206.889V91H194.337V73.864ZM214.731 78.256C216.267 78.256 217.491 78.616 218.427 79.336C219.387 80.08 219.963 81.208 220.179 82.72H218.283C218.115 81.76 217.731 81.04 217.131 80.56C216.507 80.08 215.715 79.864 214.731 79.864C213.531 79.864 212.571 80.32 211.875 81.232C211.203 82.12 210.867 83.32 210.867 84.832C210.867 86.344 211.179 87.544 211.851 88.408C212.499 89.272 213.459 89.728 214.707 89.728C216.819 89.728 218.043 88.648 218.331 86.512H220.251C219.963 88.096 219.363 89.32 218.403 90.136C217.467 90.928 216.243 91.336 214.707 91.336C212.835 91.336 211.395 90.712 210.363 89.464C209.379 88.288 208.899 86.752 208.899 84.856C208.899 82.96 209.379 81.424 210.363 80.224C211.419 78.904 212.883 78.256 214.731 78.256ZM228.048 78.256C229.896 78.256 231.384 78.88 232.488 80.176C233.544 81.4 234.072 82.936 234.072 84.808C234.072 86.656 233.544 88.192 232.512 89.392C231.384 90.688 229.896 91.336 228.048 91.336C226.176 91.336 224.712 90.688 223.608 89.392C222.552 88.192 222.024 86.656 222.024 84.808C222.024 82.936 222.552 81.4 223.608 80.176C224.712 78.88 226.176 78.256 228.048 78.256ZM228.048 79.864C226.728 79.864 225.696 80.368 224.976 81.376C224.304 82.288 223.992 83.416 223.992 84.808C223.992 86.176 224.304 87.304 224.976 88.216C225.696 89.224 226.728 89.728 228.048 89.728C229.344 89.728 230.376 89.224 231.144 88.216C231.792 87.304 232.128 86.152 232.128 84.808C232.128 83.416 231.792 82.288 231.144 81.376C230.376 80.368 229.344 79.864 228.048 79.864ZM240.958 78.256C244.03 78.256 245.71 79.528 246.046 82.12H244.174C244.006 81.352 243.694 80.776 243.214 80.44C242.686 80.056 241.918 79.864 240.934 79.864C240.07 79.864 239.398 80.008 238.918 80.344C238.39 80.656 238.126 81.088 238.126 81.64C238.126 82.168 238.462 82.624 239.182 82.984C239.638 83.2 240.502 83.464 241.75 83.8C243.238 84.16 244.294 84.544 244.942 84.952C245.926 85.576 246.43 86.416 246.43 87.496C246.43 90.04 244.678 91.336 241.174 91.336C237.91 91.336 236.134 89.896 235.846 87.04H237.718C237.862 88.024 238.222 88.72 238.75 89.152C239.278 89.536 240.07 89.728 241.126 89.728C243.334 89.728 244.462 89.008 244.462 87.616C244.462 86.92 244.054 86.392 243.286 86.008C242.878 85.816 241.99 85.552 240.646 85.216C239.182 84.856 238.15 84.496 237.574 84.112C236.614 83.536 236.158 82.744 236.158 81.688C236.158 80.632 236.614 79.816 237.55 79.192C238.414 78.568 239.566 78.256 240.958 78.256ZM247.315 78.592H249.403L253.195 88.384L256.867 78.592H258.979L252.187 95.752H250.099L252.235 90.712L247.315 78.592ZM264.982 78.256C268.054 78.256 269.734 79.528 270.07 82.12H268.198C268.03 81.352 267.718 80.776 267.238 80.44C266.71 80.056 265.942 79.864 264.958 79.864C264.094 79.864 263.422 80.008 262.942 80.344C262.414 80.656 262.15 81.088 262.15 81.64C262.15 82.168 262.486 82.624 263.206 82.984C263.662 83.2 264.526 83.464 265.774 83.8C267.262 84.16 268.318 84.544 268.966 84.952C269.95 85.576 270.454 86.416 270.454 87.496C270.454 90.04 268.702 91.336 265.198 91.336C261.934 91.336 260.158 89.896 259.87 87.04H261.742C261.886 88.024 262.246 88.72 262.774 89.152C263.302 89.536 264.094 89.728 265.15 89.728C267.358 89.728 268.486 89.008 268.486 87.616C268.486 86.92 268.078 86.392 267.31 86.008C266.902 85.816 266.014 85.552 264.67 85.216C263.206 84.856 262.174 84.496 261.598 84.112C260.638 83.536 260.182 82.744 260.182 81.688C260.182 80.632 260.638 79.816 261.574 79.192C262.438 78.568 263.59 78.256 264.982 78.256ZM276.019 74.584V78.592H279.091V80.2H276.019V88.096C276.019 88.552 276.091 88.888 276.283 89.08C276.451 89.272 276.763 89.392 277.195 89.392H278.779V91H276.907C275.899 91 275.155 90.736 274.723 90.208C274.315 89.728 274.123 89.032 274.123 88.096V80.2H271.627V78.592H274.123V75.376L276.019 74.584ZM286.35 78.256C288.342 78.256 289.854 78.928 290.862 80.272C291.774 81.472 292.254 83.176 292.302 85.336H282.51C282.606 86.728 282.966 87.808 283.638 88.576C284.31 89.344 285.246 89.728 286.422 89.728C287.43 89.728 288.27 89.464 288.894 88.96C289.422 88.528 289.83 87.88 290.142 87.016H292.062C291.774 88.216 291.222 89.176 290.382 89.944C289.35 90.856 288.03 91.336 286.422 91.336C284.646 91.336 283.206 90.736 282.15 89.584C281.046 88.384 280.518 86.8 280.518 84.784C280.518 82.96 281.022 81.424 282.078 80.2C283.134 78.904 284.55 78.256 286.35 78.256ZM286.398 79.864C285.294 79.864 284.406 80.224 283.734 80.944C283.062 81.664 282.678 82.624 282.558 83.848H290.31C290.07 81.184 288.75 79.864 286.398 79.864ZM299.975 78.256C301.871 78.256 303.167 79.024 303.863 80.608C304.343 79.792 304.919 79.192 305.591 78.832C306.191 78.448 306.911 78.256 307.775 78.256C309.071 78.256 310.103 78.664 310.919 79.48C311.687 80.32 312.095 81.448 312.095 82.864V91H310.175V83.176C310.175 82.072 309.935 81.256 309.479 80.728C308.999 80.152 308.231 79.888 307.174 79.888C306.359 79.888 305.663 80.176 305.135 80.8C304.559 81.424 304.295 82.216 304.295 83.224V91H302.375V83.176C302.375 80.968 301.415 79.888 299.519 79.888C298.631 79.888 297.911 80.224 297.335 80.944C296.759 81.616 296.471 82.456 296.471 83.44V91H294.551V78.592H296.471V80.248C297.407 78.904 298.583 78.256 299.975 78.256ZM329.074 73.528C330.994 73.528 332.53 73.96 333.634 74.848C334.786 75.76 335.434 77.128 335.602 78.928H333.658C333.442 77.68 332.962 76.768 332.218 76.168C331.45 75.544 330.37 75.256 328.978 75.256C327.706 75.256 326.722 75.448 326.002 75.88C325.186 76.36 324.778 77.08 324.778 78.064C324.778 78.928 325.258 79.624 326.242 80.152C326.674 80.392 327.73 80.752 329.386 81.232C331.642 81.904 333.13 82.456 333.85 82.888C335.266 83.752 335.986 84.952 335.986 86.512C335.986 88 335.386 89.2 334.186 90.064C332.986 90.904 331.378 91.336 329.338 91.336C327.322 91.336 325.738 90.904 324.586 90.04C323.242 89.008 322.498 87.448 322.354 85.336H324.298C324.466 86.824 324.994 87.928 325.858 88.624C326.65 89.248 327.802 89.584 329.338 89.584C330.73 89.584 331.882 89.32 332.746 88.792C333.61 88.264 334.042 87.544 334.042 86.632C334.042 85.552 333.466 84.712 332.338 84.112C331.858 83.824 330.634 83.416 328.714 82.864C326.65 82.24 325.33 81.76 324.778 81.472C323.458 80.704 322.81 79.6 322.81 78.16C322.81 76.672 323.434 75.496 324.706 74.68C325.834 73.912 327.298 73.528 329.074 73.528ZM341.55 74.584V78.592H344.622V80.2H341.55V88.096C341.55 88.552 341.622 88.888 341.814 89.08C341.982 89.272 342.294 89.392 342.726 89.392H344.31V91H342.438C341.43 91 340.686 90.736 340.254 90.208C339.846 89.728 339.654 89.032 339.654 88.096V80.2H337.158V78.592H339.654V75.376L341.55 74.584ZM352.217 78.256C352.889 78.256 353.465 78.352 353.921 78.544V80.464C353.297 80.272 352.673 80.2 352.073 80.2C351.113 80.2 350.297 80.608 349.649 81.472C348.977 82.288 348.665 83.272 348.665 84.424V91H346.769V78.592H348.665V80.752C349.001 80.032 349.433 79.456 349.961 79.048C350.609 78.52 351.353 78.256 352.217 78.256ZM360.935 78.256C362.711 78.256 364.007 78.712 364.871 79.648C365.591 80.464 365.975 81.592 365.975 83.032V91H364.175V88.912C363.695 89.584 363.047 90.136 362.279 90.568C361.367 91.072 360.335 91.336 359.183 91.336C357.935 91.336 356.951 91.024 356.207 90.4C355.439 89.752 355.055 88.912 355.055 87.904C355.055 86.488 355.607 85.432 356.759 84.712C357.767 84.04 359.207 83.68 361.079 83.656L364.055 83.608V82.96C364.055 80.872 362.975 79.84 360.815 79.84C359.903 79.84 359.159 80.008 358.583 80.392C357.935 80.776 357.527 81.376 357.335 82.168L355.439 82.024C355.703 80.728 356.351 79.744 357.359 79.12C358.271 78.544 359.447 78.256 360.935 78.256ZM364.055 85.048L361.199 85.096C358.415 85.144 357.023 86.056 357.023 87.856C357.023 88.432 357.239 88.888 357.719 89.272C358.199 89.632 358.823 89.824 359.591 89.824C360.767 89.824 361.799 89.44 362.711 88.672C363.599 87.928 364.055 87.064 364.055 86.104V85.048ZM372.253 74.584V78.592H375.325V80.2H372.253V88.096C372.253 88.552 372.325 88.888 372.517 89.08C372.685 89.272 372.997 89.392 373.429 89.392H375.013V91H373.141C372.133 91 371.389 90.736 370.957 90.208C370.549 89.728 370.357 89.032 370.357 88.096V80.2H367.861V78.592H370.357V75.376L372.253 74.584ZM382.584 78.256C384.576 78.256 386.088 78.928 387.096 80.272C388.008 81.472 388.488 83.176 388.536 85.336H378.744C378.84 86.728 379.2 87.808 379.872 88.576C380.544 89.344 381.48 89.728 382.656 89.728C383.664 89.728 384.504 89.464 385.128 88.96C385.656 88.528 386.064 87.88 386.376 87.016H388.296C388.008 88.216 387.456 89.176 386.616 89.944C385.584 90.856 384.264 91.336 382.656 91.336C380.88 91.336 379.44 90.736 378.384 89.584C377.28 88.384 376.752 86.8 376.752 84.784C376.752 82.96 377.256 81.424 378.312 80.2C379.368 78.904 380.784 78.256 382.584 78.256ZM382.632 79.864C381.528 79.864 380.64 80.224 379.968 80.944C379.296 81.664 378.912 82.624 378.792 83.848H386.544C386.304 81.184 384.984 79.864 382.632 79.864ZM395.897 78.256C397.769 78.256 399.161 79.072 400.073 80.728V78.592H401.993V90.136C401.993 94.096 400.097 96.088 396.329 96.088C394.649 96.088 393.353 95.752 392.489 95.08C391.601 94.408 391.049 93.4 390.833 92.056H392.753C392.897 92.896 393.257 93.52 393.809 93.904C394.361 94.312 395.201 94.528 396.329 94.528C398.825 94.528 400.073 93.136 400.073 90.4V88.216C399.161 89.872 397.769 90.712 395.897 90.712C394.169 90.712 392.801 90.112 391.793 88.936C390.785 87.784 390.305 86.32 390.305 84.52C390.305 82.696 390.785 81.232 391.793 80.08C392.801 78.856 394.169 78.256 395.897 78.256ZM396.185 79.84C394.937 79.84 393.977 80.272 393.281 81.184C392.609 82 392.273 83.128 392.273 84.52C392.273 85.816 392.561 86.896 393.161 87.712C393.833 88.624 394.817 89.104 396.161 89.104C397.409 89.104 398.369 88.672 399.089 87.808C399.761 86.968 400.097 85.864 400.097 84.52C400.097 83.128 399.761 82 399.089 81.184C398.369 80.272 397.409 79.84 396.185 79.84ZM403.597 78.592H405.685L409.477 88.384L413.149 78.592H415.261L408.469 95.752H406.381L408.517 90.712L403.597 78.592Z" fill="white" fill-opacity="0.6"/>
</svg>
