<svg width="600" height="103" viewBox="0 0 600 103" fill="none" xmlns="http://www.w3.org/2000/svg">
<path d="M226.128 44.072L239.424 41.432V14.648H245.664V40.232L250.416 39.272V45.704L245.664 46.664V58.28H239.424V47.864L226.128 50.504V44.072ZM206.112 56.408C207.424 49.176 208.08 41.704 208.08 33.992H212.592C212.592 42.248 212.016 49.72 210.864 56.408H206.112ZM206.64 25.928H213.552V21.752C211.504 21.848 209.408 21.896 207.264 21.896V16.04C212.384 16.04 218.048 15.576 224.256 14.648V20.552C222.08 20.904 220.56 21.128 219.696 21.224V25.928H225.168V31.784H219.696V35.432L225.072 38.072V44.936L219.696 42.296V58.28H213.888V31.784H206.64V25.928ZM226.56 28.28L236.256 31.64V37.64L226.56 34.28V28.28ZM228.48 17.384L238.176 20.744V26.744L228.48 23.384V17.384ZM270.192 51.656C273.808 50.184 276.928 48.616 279.552 46.952C276.032 42.76 273.632 37.368 272.352 30.776H281.712V24.344H272.016V18.488H281.712V14.6H287.856V18.488H297.84V24.344H287.856V30.776H297.264C296.592 37.048 293.696 42.632 288.576 47.528C291.552 49.736 294.48 51.224 297.36 51.992V58.376C291.792 56.168 287.36 53.784 284.064 51.224C280.064 54.104 275.44 56.376 270.192 58.04V51.656ZM254.208 37.16L259.2 35.96V27.08H254.688V21.032H259.2V14.36H265.44V21.032H270V27.08H265.44V34.52L270.48 33.32V39.992L265.44 41.192V57.8H255.504V51.992H259.2V42.632L254.208 43.832V37.16ZM279.504 36.344C280.528 38.808 282.08 41.208 284.16 43.544C286.656 41.272 288.512 38.872 289.728 36.344H279.504ZM304.896 30.056C303.744 30.76 302.816 31.288 302.112 31.64V24.632C304.192 23.512 305.872 22.12 307.152 20.456C308.432 18.792 309.536 16.84 310.464 14.6H320.016C320.944 16.84 322.048 18.792 323.328 20.456C324.608 22.12 326.288 23.512 328.368 24.632V31.64C327.536 31.224 326.528 30.632 325.344 29.864V47.384H315.408V41.48H319.728V34.616H311.184V51.128H327.456V57.32H304.896V30.056ZM323.376 28.472C320.688 26.36 318.48 23.816 316.752 20.84H313.728C312 23.816 309.792 26.36 307.104 28.472H323.376ZM329.952 17.24H335.568V47.72H329.952V17.24ZM334.032 52.04H339.024V14.6H345.024V57.8H334.032V52.04ZM371.52 57.8C372 56.52 372.272 55.784 372.336 55.592H367.68C367.584 51.624 366.832 47.672 365.424 43.736H370.608C371.664 46.872 372.32 50.568 372.576 54.824C373.344 52.424 373.872 49.992 374.16 47.528C374.48 45.064 374.64 42.28 374.64 39.176V15.56C381.136 15.56 387.312 15.144 393.168 14.312V20.456C389.488 21 385.328 21.384 380.688 21.608V27.32H394.08V33.464H390.72V57.8H384.672V33.464H380.688V39.176C380.688 42.568 380.48 45.784 380.064 48.824C379.648 51.832 378.992 54.824 378.096 57.8H371.52ZM349.488 57.224C351.088 52.808 351.952 48.312 352.08 43.736H357.12C356.896 48.92 356.144 53.416 354.864 57.224H349.488ZM350.112 28.136H354.288L353.28 22.376H350.976V17H358.272V14.6H364.416V17H372.192V22.376H369.936L368.928 28.136H373.056V33.512H364.656V36.776H372.48V42.152H364.512V57.8H358.656V42.152H350.688V36.776H358.512V33.512H350.112V28.136ZM359.76 28.136H363.456L364.464 22.376H358.752L359.76 28.136Z" fill="#0055AA"/>
<path d="M162.408 73.864H176.448V75.568H170.4V91H168.456V75.568H162.408V73.864ZM183.459 78.256C185.451 78.256 186.963 78.928 187.971 80.272C188.883 81.472 189.363 83.176 189.411 85.336H179.619C179.715 86.728 180.075 87.808 180.747 88.576C181.419 89.344 182.355 89.728 183.531 89.728C184.539 89.728 185.379 89.464 186.003 88.96C186.531 88.528 186.939 87.88 187.251 87.016H189.171C188.883 88.216 188.331 89.176 187.491 89.944C186.459 90.856 185.139 91.336 183.531 91.336C181.755 91.336 180.315 90.736 179.259 89.584C178.155 88.384 177.627 86.8 177.627 84.784C177.627 82.96 178.131 81.424 179.187 80.2C180.243 78.904 181.659 78.256 183.459 78.256ZM183.507 79.864C182.403 79.864 181.515 80.224 180.843 80.944C180.171 81.664 179.787 82.624 179.667 83.848H187.419C187.179 81.184 185.859 79.864 183.507 79.864ZM197.012 78.256C198.548 78.256 199.772 78.616 200.708 79.336C201.668 80.08 202.244 81.208 202.46 82.72H200.564C200.396 81.76 200.012 81.04 199.412 80.56C198.788 80.08 197.996 79.864 197.012 79.864C195.812 79.864 194.852 80.32 194.156 81.232C193.484 82.12 193.148 83.32 193.148 84.832C193.148 86.344 193.46 87.544 194.132 88.408C194.78 89.272 195.74 89.728 196.988 89.728C199.1 89.728 200.324 88.648 200.612 86.512H202.532C202.244 88.096 201.644 89.32 200.684 90.136C199.748 90.928 198.524 91.336 196.988 91.336C195.116 91.336 193.676 90.712 192.644 89.464C191.66 88.288 191.18 86.752 191.18 84.856C191.18 82.96 191.66 81.424 192.644 80.224C193.7 78.904 195.164 78.256 197.012 78.256ZM204.785 73.528H206.705V80.632C207.137 79.84 207.713 79.24 208.433 78.832C209.105 78.448 209.849 78.256 210.689 78.256C212.129 78.256 213.257 78.664 214.025 79.528C214.793 80.368 215.177 81.592 215.177 83.176V91H213.257V83.464C213.257 82.312 212.969 81.424 212.441 80.8C211.865 80.176 211.073 79.864 210.041 79.864C209.081 79.864 208.289 80.248 207.665 81.016C207.017 81.784 206.705 82.768 206.705 83.92V91H204.785V73.528ZM223.929 78.256C227.001 78.256 228.561 79.96 228.561 83.368V91H226.641V83.512C226.641 81.088 225.537 79.888 223.377 79.888C222.513 79.888 221.769 80.2 221.145 80.824C220.473 81.496 220.113 82.384 220.041 83.512V91H218.121V78.592H220.041V80.416C220.473 79.72 221.025 79.192 221.697 78.832C222.369 78.448 223.113 78.256 223.929 78.256ZM237.071 78.256C238.919 78.256 240.407 78.88 241.511 80.176C242.567 81.4 243.095 82.936 243.095 84.808C243.095 86.656 242.567 88.192 241.535 89.392C240.407 90.688 238.919 91.336 237.071 91.336C235.199 91.336 233.735 90.688 232.631 89.392C231.575 88.192 231.047 86.656 231.047 84.808C231.047 82.936 231.575 81.4 232.631 80.176C233.735 78.88 235.199 78.256 237.071 78.256ZM237.071 79.864C235.751 79.864 234.719 80.368 233.999 81.376C233.327 82.288 233.015 83.416 233.015 84.808C233.015 86.176 233.327 87.304 233.999 88.216C234.719 89.224 235.751 89.728 237.071 89.728C238.367 89.728 239.399 89.224 240.167 88.216C240.815 87.304 241.151 86.152 241.151 84.808C241.151 83.416 240.815 82.288 240.167 81.376C239.399 80.368 238.367 79.864 237.071 79.864ZM245.974 73.528H247.87V91H245.974V73.528ZM256.782 78.256C258.63 78.256 260.118 78.88 261.222 80.176C262.278 81.4 262.806 82.936 262.806 84.808C262.806 86.656 262.278 88.192 261.246 89.392C260.118 90.688 258.63 91.336 256.782 91.336C254.91 91.336 253.446 90.688 252.342 89.392C251.286 88.192 250.758 86.656 250.758 84.808C250.758 82.936 251.286 81.4 252.342 80.176C253.446 78.88 254.91 78.256 256.782 78.256ZM256.782 79.864C255.462 79.864 254.43 80.368 253.71 81.376C253.038 82.288 252.726 83.416 252.726 84.808C252.726 86.176 253.038 87.304 253.71 88.216C254.43 89.224 255.462 89.728 256.782 89.728C258.078 89.728 259.11 89.224 259.878 88.216C260.526 87.304 260.862 86.152 260.862 84.808C260.862 83.416 260.526 82.288 259.878 81.376C259.11 80.368 258.078 79.864 256.782 79.864ZM270.413 78.256C272.285 78.256 273.677 79.072 274.589 80.728V78.592H276.509V90.136C276.509 94.096 274.613 96.088 270.845 96.088C269.165 96.088 267.869 95.752 267.005 95.08C266.117 94.408 265.565 93.4 265.349 92.056H267.269C267.413 92.896 267.773 93.52 268.325 93.904C268.877 94.312 269.717 94.528 270.845 94.528C273.341 94.528 274.589 93.136 274.589 90.4V88.216C273.677 89.872 272.285 90.712 270.413 90.712C268.685 90.712 267.317 90.112 266.309 88.936C265.301 87.784 264.821 86.32 264.821 84.52C264.821 82.696 265.301 81.232 266.309 80.08C267.317 78.856 268.685 78.256 270.413 78.256ZM270.701 79.84C269.453 79.84 268.493 80.272 267.797 81.184C267.125 82 266.789 83.128 266.789 84.52C266.789 85.816 267.077 86.896 267.677 87.712C268.349 88.624 269.333 89.104 270.677 89.104C271.925 89.104 272.885 88.672 273.605 87.808C274.277 86.968 274.613 85.864 274.613 84.52C274.613 83.128 274.277 82 273.605 81.184C272.885 80.272 271.925 79.84 270.701 79.84ZM281.064 73.912C281.472 73.912 281.808 74.032 282.096 74.32C282.384 74.56 282.528 74.896 282.528 75.328C282.528 75.736 282.384 76.072 282.096 76.36C281.808 76.624 281.472 76.768 281.064 76.768C280.656 76.768 280.32 76.624 280.032 76.36C279.744 76.072 279.624 75.736 279.624 75.328C279.624 74.896 279.744 74.56 280.032 74.32C280.32 74.032 280.656 73.912 281.064 73.912ZM280.104 78.592H282.024V91H280.104V78.592ZM290.973 78.256C292.509 78.256 293.733 78.616 294.669 79.336C295.629 80.08 296.205 81.208 296.421 82.72H294.525C294.357 81.76 293.973 81.04 293.373 80.56C292.749 80.08 291.957 79.864 290.973 79.864C289.773 79.864 288.813 80.32 288.117 81.232C287.445 82.12 287.109 83.32 287.109 84.832C287.109 86.344 287.421 87.544 288.093 88.408C288.741 89.272 289.701 89.728 290.949 89.728C293.061 89.728 294.285 88.648 294.573 86.512H296.493C296.205 88.096 295.605 89.32 294.645 90.136C293.709 90.928 292.485 91.336 290.949 91.336C289.077 91.336 287.637 90.712 286.605 89.464C285.621 88.288 285.141 86.752 285.141 84.856C285.141 82.96 285.621 81.424 286.605 80.224C287.661 78.904 289.125 78.256 290.973 78.256ZM304.146 78.256C305.922 78.256 307.218 78.712 308.082 79.648C308.802 80.464 309.186 81.592 309.186 83.032V91H307.386V88.912C306.906 89.584 306.258 90.136 305.49 90.568C304.578 91.072 303.546 91.336 302.394 91.336C301.146 91.336 300.162 91.024 299.418 90.4C298.65 89.752 298.266 88.912 298.266 87.904C298.266 86.488 298.818 85.432 299.97 84.712C300.978 84.04 302.418 83.68 304.29 83.656L307.266 83.608V82.96C307.266 80.872 306.186 79.84 304.026 79.84C303.114 79.84 302.37 80.008 301.794 80.392C301.146 80.776 300.738 81.376 300.546 82.168L298.65 82.024C298.914 80.728 299.562 79.744 300.57 79.12C301.482 78.544 302.658 78.256 304.146 78.256ZM307.266 85.048L304.41 85.096C301.626 85.144 300.234 86.056 300.234 87.856C300.234 88.432 300.45 88.888 300.93 89.272C301.41 89.632 302.034 89.824 302.802 89.824C303.978 89.824 305.01 89.44 305.922 88.672C306.81 87.928 307.266 87.064 307.266 86.104V85.048ZM312.536 73.528H314.432V91H312.536V73.528ZM326.177 73.864H328.121V91H326.177V73.864ZM337.296 78.256C340.368 78.256 341.928 79.96 341.928 83.368V91H340.008V83.512C340.008 81.088 338.904 79.888 336.744 79.888C335.88 79.888 335.136 80.2 334.512 80.824C333.84 81.496 333.48 82.384 333.408 83.512V91H331.488V78.592H333.408V80.416C333.84 79.72 334.392 79.192 335.064 78.832C335.736 78.448 336.48 78.256 337.296 78.256ZM350.702 78.256C353.774 78.256 355.334 79.96 355.334 83.368V91H353.414V83.512C353.414 81.088 352.31 79.888 350.15 79.888C349.286 79.888 348.542 80.2 347.918 80.824C347.246 81.496 346.886 82.384 346.814 83.512V91H344.894V78.592H346.814V80.416C347.246 79.72 347.798 79.192 348.47 78.832C349.142 78.448 349.886 78.256 350.702 78.256ZM363.845 78.256C365.693 78.256 367.181 78.88 368.285 80.176C369.341 81.4 369.869 82.936 369.869 84.808C369.869 86.656 369.341 88.192 368.309 89.392C367.181 90.688 365.693 91.336 363.845 91.336C361.973 91.336 360.509 90.688 359.405 89.392C358.349 88.192 357.821 86.656 357.821 84.808C357.821 82.936 358.349 81.4 359.405 80.176C360.509 78.88 361.973 78.256 363.845 78.256ZM363.845 79.864C362.525 79.864 361.493 80.368 360.773 81.376C360.101 82.288 359.789 83.416 359.789 84.808C359.789 86.176 360.101 87.304 360.773 88.216C361.493 89.224 362.525 89.728 363.845 89.728C365.141 89.728 366.173 89.224 366.941 88.216C367.589 87.304 367.925 86.152 367.925 84.808C367.925 83.416 367.589 82.288 366.941 81.376C366.173 80.368 365.141 79.864 363.845 79.864ZM370.995 78.592H373.107L376.659 88.6L380.211 78.592H382.323L377.619 91H375.675L370.995 78.592ZM389.341 78.256C391.117 78.256 392.413 78.712 393.277 79.648C393.997 80.464 394.381 81.592 394.381 83.032V91H392.581V88.912C392.101 89.584 391.453 90.136 390.685 90.568C389.773 91.072 388.741 91.336 387.589 91.336C386.341 91.336 385.357 91.024 384.613 90.4C383.845 89.752 383.461 88.912 383.461 87.904C383.461 86.488 384.013 85.432 385.165 84.712C386.173 84.04 387.613 83.68 389.485 83.656L392.461 83.608V82.96C392.461 80.872 391.381 79.84 389.221 79.84C388.309 79.84 387.565 80.008 386.989 80.392C386.341 80.776 385.933 81.376 385.741 82.168L383.845 82.024C384.109 80.728 384.757 79.744 385.765 79.12C386.677 78.544 387.853 78.256 389.341 78.256ZM392.461 85.048L389.605 85.096C386.821 85.144 385.429 86.056 385.429 87.856C385.429 88.432 385.645 88.888 386.125 89.272C386.605 89.632 387.229 89.824 387.997 89.824C389.173 89.824 390.205 89.44 391.117 88.672C392.005 87.928 392.461 87.064 392.461 86.104V85.048ZM400.659 74.584V78.592H403.731V80.2H400.659V88.096C400.659 88.552 400.731 88.888 400.923 89.08C401.091 89.272 401.403 89.392 401.835 89.392H403.419V91H401.547C400.539 91 399.795 90.736 399.363 90.208C398.955 89.728 398.763 89.032 398.763 88.096V80.2H396.267V78.592H398.763V75.376L400.659 74.584ZM407.463 73.912C407.871 73.912 408.207 74.032 408.495 74.32C408.783 74.56 408.927 74.896 408.927 75.328C408.927 75.736 408.783 76.072 408.495 76.36C408.207 76.624 407.871 76.768 407.463 76.768C407.055 76.768 406.719 76.624 406.431 76.36C406.143 76.072 406.023 75.736 406.023 75.328C406.023 74.896 406.143 74.56 406.431 74.32C406.719 74.032 407.055 73.912 407.463 73.912ZM406.503 78.592H408.423V91H406.503V78.592ZM417.563 78.256C419.411 78.256 420.899 78.88 422.003 80.176C423.059 81.4 423.587 82.936 423.587 84.808C423.587 86.656 423.059 88.192 422.027 89.392C420.899 90.688 419.411 91.336 417.563 91.336C415.691 91.336 414.227 90.688 413.123 89.392C412.067 88.192 411.539 86.656 411.539 84.808C411.539 82.936 412.067 81.4 413.123 80.176C414.227 78.88 415.691 78.256 417.563 78.256ZM417.563 79.864C416.243 79.864 415.211 80.368 414.491 81.376C413.819 82.288 413.507 83.416 413.507 84.808C413.507 86.176 413.819 87.304 414.491 88.216C415.211 89.224 416.243 89.728 417.563 89.728C418.859 89.728 419.891 89.224 420.659 88.216C421.307 87.304 421.643 86.152 421.643 84.808C421.643 83.416 421.307 82.288 420.659 81.376C419.891 80.368 418.859 79.864 417.563 79.864ZM431.89 78.256C434.962 78.256 436.522 79.96 436.522 83.368V91H434.602V83.512C434.602 81.088 433.498 79.888 431.338 79.888C430.474 79.888 429.73 80.2 429.106 80.824C428.434 81.496 428.074 82.384 428.002 83.512V91H426.082V78.592H428.002V80.416C428.434 79.72 428.986 79.192 429.658 78.832C430.33 78.448 431.074 78.256 431.89 78.256Z" fill="#0055AA"/>
</svg>
