<svg width="276" height="129" viewBox="0 0 276 129" fill="none" xmlns="http://www.w3.org/2000/svg">
<path d="M43.248 37.592V57.416H4.752V37.592H43.248ZM5.088 14.024H11.232L10.56 15.704H22.992V20.888H16.224V23.144H24V28.424H16.848C17.872 29.192 18.96 29.816 20.112 30.296C21.264 30.776 22.56 31.192 24 31.544V37.208C21.6 36.728 19.552 36.104 17.856 35.336C16.192 34.536 14.64 33.368 13.2 31.832C11.728 33.368 10.16 34.536 8.496 35.336C6.864 36.104 4.832 36.728 2.4 37.208V31.544C3.84 31.192 5.136 30.776 6.288 30.296C7.44 29.816 8.528 29.192 9.552 28.424H2.4V23.144H10.08V20.888H2.352L5.088 14.024ZM37.008 52.184V49.832H10.992V52.184H37.008ZM37.008 45.176V42.824H10.992V45.176H37.008ZM26.016 15.464H44.4V35.624H26.016V15.464ZM38.4 29.624V21.464H32.016V29.624H38.4ZM51.36 31.784H72.288V57.8H66.24V53.288H57.408V57.8H51.36V31.784ZM50.4 23.72H52.656L57.84 14.408H65.088L59.904 23.72H66.096L64.512 18.248H70.608L73.824 29.48H50.4V23.72ZM66.24 48.152V45.368H57.408V48.152H66.24ZM66.24 40.232V37.304H57.408V40.232H66.24ZM75.456 36.2H81.648V41.864C85.36 40.808 89.184 39.304 93.12 37.352V43.688C89.536 45.512 85.712 46.904 81.648 47.864V51.224H93.6V57.416H75.456V36.2ZM75.456 14.6H81.648V20.456C85.264 19.464 89.088 18.024 93.12 16.136V22.28C89.6 24.072 85.776 25.432 81.648 26.36V28.856H93.6V34.904H75.456V14.6ZM98.4 51.128C105.344 48.28 110.368 43.624 113.472 37.16H98.4V30.968H115.584C116.256 28.28 116.64 25.368 116.736 22.232H100.416V16.04H139.584V22.232H123.072C122.976 25.208 122.656 28.12 122.112 30.968H141.6V37.16H128.16V51.128H142.08V57.32H121.92V37.16H120.336C116.72 46.792 109.408 53.896 98.4 58.472V51.128ZM145.872 51.224C151.792 48.888 156.416 45.496 159.744 41.048C163.072 36.568 164.736 31.112 164.736 24.68L164.688 14.456H171.312V24.68C171.312 31.112 172.96 36.568 176.256 41.048C179.584 45.496 184.208 48.888 190.128 51.224V58.376C184.848 56.68 180.336 54.264 176.592 51.128C172.88 47.992 170.016 44.296 168 40.04C165.984 44.296 163.104 47.992 159.36 51.128C155.648 54.264 151.152 56.68 145.872 58.376V51.224Z" fill="white"/>
<path d="M6.744 73.864H9.024L15.768 91H13.632L11.808 86.2H3.936L2.112 91H0L6.744 73.864ZM4.56 84.544H11.184L7.944 75.976H7.848L4.56 84.544ZM17.2614 78.592H19.1814V86.176C19.1814 87.352 19.4214 88.24 19.9254 88.816C20.4294 89.392 21.2454 89.704 22.3734 89.704C23.1894 89.704 23.9334 89.368 24.5814 88.744C25.2534 88.072 25.6614 87.208 25.8054 86.152V78.592H27.7254V91H25.8054V89.08C24.7974 90.568 23.4534 91.336 21.7734 91.336C18.7494 91.336 17.2614 89.632 17.2614 86.272V78.592ZM34.0031 74.584V78.592H37.0751V80.2H34.0031V88.096C34.0031 88.552 34.0751 88.888 34.2671 89.08C34.4351 89.272 34.7471 89.392 35.1791 89.392H36.7631V91H34.8911C33.8831 91 33.1391 90.736 32.7071 90.208C32.2991 89.728 32.1071 89.032 32.1071 88.096V80.2H29.6111V78.592H32.1071V75.376L34.0031 74.584ZM44.7664 78.256C46.6144 78.256 48.1024 78.88 49.2064 80.176C50.2624 81.4 50.7904 82.936 50.7904 84.808C50.7904 86.656 50.2624 88.192 49.2304 89.392C48.1024 90.688 46.6144 91.336 44.7664 91.336C42.8944 91.336 41.4304 90.688 40.3264 89.392C39.2704 88.192 38.7424 86.656 38.7424 84.808C38.7424 82.936 39.2704 81.4 40.3264 80.176C41.4304 78.88 42.8944 78.256 44.7664 78.256ZM44.7664 79.864C43.4464 79.864 42.4144 80.368 41.6944 81.376C41.0224 82.288 40.7104 83.416 40.7104 84.808C40.7104 86.176 41.0224 87.304 41.6944 88.216C42.4144 89.224 43.4464 89.728 44.7664 89.728C46.0624 89.728 47.0944 89.224 47.8624 88.216C48.5104 87.304 48.8464 86.152 48.8464 84.808C48.8464 83.416 48.5104 82.288 47.8624 81.376C47.0944 80.368 46.0624 79.864 44.7664 79.864ZM59.0929 78.256C62.1649 78.256 63.7249 79.96 63.7249 83.368V91H61.8049V83.512C61.8049 81.088 60.7009 79.888 58.5409 79.888C57.6769 79.888 56.9329 80.2 56.3089 80.824C55.6369 81.496 55.2769 82.384 55.2049 83.512V91H53.2849V78.592H55.2049V80.416C55.6369 79.72 56.1889 79.192 56.8609 78.832C57.5329 78.448 58.2769 78.256 59.0929 78.256ZM72.2351 78.256C74.0831 78.256 75.5711 78.88 76.6751 80.176C77.7311 81.4 78.2591 82.936 78.2591 84.808C78.2591 86.656 77.7311 88.192 76.6991 89.392C75.5711 90.688 74.0831 91.336 72.2351 91.336C70.3631 91.336 68.8991 90.688 67.7951 89.392C66.7391 88.192 66.2111 86.656 66.2111 84.808C66.2111 82.936 66.7391 81.4 67.7951 80.176C68.8991 78.88 70.3631 78.256 72.2351 78.256ZM72.2351 79.864C70.9151 79.864 69.8831 80.368 69.1631 81.376C68.4911 82.288 68.1791 83.416 68.1791 84.808C68.1791 86.176 68.4911 87.304 69.1631 88.216C69.8831 89.224 70.9151 89.728 72.2351 89.728C73.5311 89.728 74.5631 89.224 75.3311 88.216C75.9791 87.304 76.3151 86.152 76.3151 84.808C76.3151 83.416 75.9791 82.288 75.3311 81.376C74.5631 80.368 73.5311 79.864 72.2351 79.864ZM86.1776 78.256C88.0736 78.256 89.3696 79.024 90.0656 80.608C90.5456 79.792 91.1216 79.192 91.7936 78.832C92.3936 78.448 93.1136 78.256 93.9776 78.256C95.2736 78.256 96.3056 78.664 97.1216 79.48C97.8896 80.32 98.2976 81.448 98.2976 82.864V91H96.3776V83.176C96.3776 82.072 96.1376 81.256 95.6816 80.728C95.2016 80.152 94.4336 79.888 93.3776 79.888C92.5616 79.888 91.8656 80.176 91.3376 80.8C90.7616 81.424 90.4976 82.216 90.4976 83.224V91H88.5776V83.176C88.5776 80.968 87.6176 79.888 85.7216 79.888C84.8336 79.888 84.1136 80.224 83.5376 80.944C82.9616 81.616 82.6736 82.456 82.6736 83.44V91H80.7536V78.592H82.6736V80.248C83.6096 78.904 84.7856 78.256 86.1776 78.256ZM106.829 78.256C108.677 78.256 110.165 78.88 111.269 80.176C112.325 81.4 112.853 82.936 112.853 84.808C112.853 86.656 112.325 88.192 111.293 89.392C110.165 90.688 108.677 91.336 106.829 91.336C104.957 91.336 103.493 90.688 102.389 89.392C101.333 88.192 100.805 86.656 100.805 84.808C100.805 82.936 101.333 81.4 102.389 80.176C103.493 78.88 104.957 78.256 106.829 78.256ZM106.829 79.864C105.509 79.864 104.477 80.368 103.757 81.376C103.085 82.288 102.773 83.416 102.773 84.808C102.773 86.176 103.085 87.304 103.757 88.216C104.477 89.224 105.509 89.728 106.829 89.728C108.125 89.728 109.157 89.224 109.925 88.216C110.573 87.304 110.909 86.152 110.909 84.808C110.909 83.416 110.573 82.288 109.925 81.376C109.157 80.368 108.125 79.864 106.829 79.864ZM115.347 78.592H117.267V86.176C117.267 87.352 117.507 88.24 118.011 88.816C118.515 89.392 119.331 89.704 120.459 89.704C121.275 89.704 122.019 89.368 122.667 88.744C123.339 88.072 123.747 87.208 123.891 86.152V78.592H125.811V91H123.891V89.08C122.883 90.568 121.539 91.336 119.859 91.336C116.835 91.336 115.347 89.632 115.347 86.272V78.592ZM133.169 78.256C136.241 78.256 137.921 79.528 138.257 82.12H136.385C136.217 81.352 135.905 80.776 135.425 80.44C134.897 80.056 134.129 79.864 133.145 79.864C132.281 79.864 131.609 80.008 131.129 80.344C130.601 80.656 130.337 81.088 130.337 81.64C130.337 82.168 130.673 82.624 131.393 82.984C131.849 83.2 132.713 83.464 133.961 83.8C135.449 84.16 136.505 84.544 137.153 84.952C138.137 85.576 138.641 86.416 138.641 87.496C138.641 90.04 136.889 91.336 133.385 91.336C130.121 91.336 128.345 89.896 128.057 87.04H129.929C130.073 88.024 130.433 88.72 130.961 89.152C131.489 89.536 132.281 89.728 133.337 89.728C135.545 89.728 136.673 89.008 136.673 87.616C136.673 86.92 136.265 86.392 135.497 86.008C135.089 85.816 134.201 85.552 132.857 85.216C131.393 84.856 130.361 84.496 129.785 84.112C128.825 83.536 128.369 82.744 128.369 81.688C128.369 80.632 128.825 79.816 129.761 79.192C130.625 78.568 131.777 78.256 133.169 78.256ZM147.806 73.864H161.846V75.568H155.798V91H153.854V75.568H147.806V73.864ZM168.858 78.256C170.85 78.256 172.362 78.928 173.37 80.272C174.282 81.472 174.762 83.176 174.81 85.336H165.018C165.114 86.728 165.474 87.808 166.146 88.576C166.818 89.344 167.754 89.728 168.93 89.728C169.938 89.728 170.778 89.464 171.402 88.96C171.93 88.528 172.338 87.88 172.65 87.016H174.57C174.282 88.216 173.73 89.176 172.89 89.944C171.858 90.856 170.538 91.336 168.93 91.336C167.154 91.336 165.714 90.736 164.658 89.584C163.554 88.384 163.026 86.8 163.026 84.784C163.026 82.96 163.53 81.424 164.586 80.2C165.642 78.904 167.058 78.256 168.858 78.256ZM168.906 79.864C167.802 79.864 166.914 80.224 166.242 80.944C165.57 81.664 165.186 82.624 165.066 83.848H172.818C172.578 81.184 171.258 79.864 168.906 79.864ZM182.41 78.256C183.946 78.256 185.17 78.616 186.106 79.336C187.066 80.08 187.642 81.208 187.858 82.72H185.962C185.794 81.76 185.41 81.04 184.81 80.56C184.186 80.08 183.394 79.864 182.41 79.864C181.21 79.864 180.25 80.32 179.554 81.232C178.882 82.12 178.546 83.32 178.546 84.832C178.546 86.344 178.858 87.544 179.53 88.408C180.178 89.272 181.138 89.728 182.386 89.728C184.498 89.728 185.722 88.648 186.01 86.512H187.93C187.642 88.096 187.042 89.32 186.082 90.136C185.146 90.928 183.922 91.336 182.386 91.336C180.514 91.336 179.074 90.712 178.042 89.464C177.058 88.288 176.578 86.752 176.578 84.856C176.578 82.96 177.058 81.424 178.042 80.224C179.098 78.904 180.562 78.256 182.41 78.256ZM190.183 73.528H192.103V80.632C192.535 79.84 193.111 79.24 193.831 78.832C194.503 78.448 195.247 78.256 196.087 78.256C197.527 78.256 198.655 78.664 199.423 79.528C200.191 80.368 200.575 81.592 200.575 83.176V91H198.655V83.464C198.655 82.312 198.367 81.424 197.839 80.8C197.263 80.176 196.471 79.864 195.439 79.864C194.479 79.864 193.687 80.248 193.063 81.016C192.415 81.784 192.103 82.768 192.103 83.92V91H190.183V73.528ZM209.327 78.256C212.399 78.256 213.959 79.96 213.959 83.368V91H212.039V83.512C212.039 81.088 210.935 79.888 208.775 79.888C207.911 79.888 207.167 80.2 206.543 80.824C205.871 81.496 205.511 82.384 205.439 83.512V91H203.519V78.592H205.439V80.416C205.871 79.72 206.423 79.192 207.095 78.832C207.767 78.448 208.511 78.256 209.327 78.256ZM222.47 78.256C224.318 78.256 225.806 78.88 226.91 80.176C227.966 81.4 228.494 82.936 228.494 84.808C228.494 86.656 227.966 88.192 226.934 89.392C225.806 90.688 224.318 91.336 222.47 91.336C220.598 91.336 219.134 90.688 218.03 89.392C216.974 88.192 216.446 86.656 216.446 84.808C216.446 82.936 216.974 81.4 218.03 80.176C219.134 78.88 220.598 78.256 222.47 78.256ZM222.47 79.864C221.15 79.864 220.118 80.368 219.398 81.376C218.726 82.288 218.414 83.416 218.414 84.808C218.414 86.176 218.726 87.304 219.398 88.216C220.118 89.224 221.15 89.728 222.47 89.728C223.766 89.728 224.798 89.224 225.566 88.216C226.214 87.304 226.55 86.152 226.55 84.808C226.55 83.416 226.214 82.288 225.566 81.376C224.798 80.368 223.766 79.864 222.47 79.864ZM231.372 73.528H233.268V91H231.372V73.528ZM242.18 78.256C244.028 78.256 245.516 78.88 246.62 80.176C247.676 81.4 248.204 82.936 248.204 84.808C248.204 86.656 247.676 88.192 246.644 89.392C245.516 90.688 244.028 91.336 242.18 91.336C240.308 91.336 238.844 90.688 237.74 89.392C236.684 88.192 236.156 86.656 236.156 84.808C236.156 82.936 236.684 81.4 237.74 80.176C238.844 78.88 240.308 78.256 242.18 78.256ZM242.18 79.864C240.86 79.864 239.828 80.368 239.108 81.376C238.436 82.288 238.124 83.416 238.124 84.808C238.124 86.176 238.436 87.304 239.108 88.216C239.828 89.224 240.86 89.728 242.18 89.728C243.476 89.728 244.508 89.224 245.276 88.216C245.924 87.304 246.26 86.152 246.26 84.808C246.26 83.416 245.924 82.288 245.276 81.376C244.508 80.368 243.476 79.864 242.18 79.864ZM255.811 78.256C257.683 78.256 259.075 79.072 259.987 80.728V78.592H261.907V90.136C261.907 94.096 260.011 96.088 256.243 96.088C254.563 96.088 253.267 95.752 252.403 95.08C251.515 94.408 250.963 93.4 250.747 92.056H252.667C252.811 92.896 253.171 93.52 253.723 93.904C254.275 94.312 255.115 94.528 256.243 94.528C258.739 94.528 259.987 93.136 259.987 90.4V88.216C259.075 89.872 257.683 90.712 255.811 90.712C254.083 90.712 252.715 90.112 251.707 88.936C250.699 87.784 250.219 86.32 250.219 84.52C250.219 82.696 250.699 81.232 251.707 80.08C252.715 78.856 254.083 78.256 255.811 78.256ZM256.099 79.84C254.851 79.84 253.891 80.272 253.195 81.184C252.523 82 252.187 83.128 252.187 84.52C252.187 85.816 252.475 86.896 253.075 87.712C253.747 88.624 254.731 89.104 256.075 89.104C257.323 89.104 258.283 88.672 259.003 87.808C259.675 86.968 260.011 85.864 260.011 84.52C260.011 83.128 259.675 82 259.003 81.184C258.283 80.272 257.323 79.84 256.099 79.84ZM263.511 78.592H265.599L269.391 88.384L273.063 78.592H275.175L268.383 95.752H266.295L268.431 90.712L263.511 78.592Z" fill="white" fill-opacity="0.6"/>
<rect y="119" width="104" height="10" fill="white"/>
</svg>
